<?xml version="1.0" encoding="utf-8"?>
<!-- Generator: Adobe Illustrator 23.0.2, SVG Export Plug-In . SVG Version: 6.00 Build 0)  -->
<svg version="1.1" id="ëÎÓÈ_1" xmlns="http://www.w3.org/2000/svg" xmlns:xlink="http://www.w3.org/1999/xlink" x="0px" y="0px"
	 viewBox="0 0 1192.7 1859" style="enable-background:new 0 0 1192.7 1859;" xml:space="preserve">
<style type="text/css">
	.st0{fill:#FFFFFF;}
	.st1{fill:#1C191C;}
	.st2{fill:#282629;}
	.st3{fill:#9F9C96;}
	.st4{fill:#181616;}
	.st5{stroke:#000000;stroke-width:0.63;stroke-miterlimit:10;}
	.st6{fill:#010103;}
	.st7{fill:#FFFFFF;stroke:#000000;stroke-width:1.27;stroke-miterlimit:10;}
	.st8{fill:#FFFFFF;stroke:#000000;stroke-width:1.2;stroke-miterlimit:10;}
	.st9{fill:#FFFFFF;stroke:#000000;stroke-width:1.25;stroke-miterlimit:10;}
	.st10{stroke:#000000;stroke-width:0.83;stroke-miterlimit:10;}
</style>
<rect class="st0" width="1192.7" height="1859"/>
<title>2-3</title>
<path class="st1" d="M502.3,1277.5c-2.6,2.1-0.5,9.1,4,16.6s12.3,25.7,9.4,28.4c-2.9,2.7-16.6,1.7-17,3.5c-4,0-7.1,4.2-7.9,5
	c6.2-2.9,8.3-1.6,8.3-1.6s2.2,4.4,9.7,1.2c9.6-4,13.6,0.9,17.6,3c4,2.1,14.7,2.7,16.6,4.3c1.9,1.6,7.8,2.4,10.7,0
	c5.4,1.6,7.5,4.8,7.5,4.8s1.9-4.4-5.6-7.5c0.1-1.6-24.3-6.4-24.1-6.7s11.1,2.3,13,2.9c3.9,1.1,8.5,0.7,11.6,1.5
	c4.9,1.3,8.6,1.3,8.6-0.1c3.5,0.8,7.2,2.1,8.9,3.5c-1.1-5.4-5.4-6.3-6.4-7c-0.3-1.8-19.2-2.6-28.8-3.2c-9.7-0.7-15.5-14.1-18.2-19.6
	c-2.7-5.5-9.1-18.6-11.4-22.9S505.5,1275,502.3,1277.5z"/>
<path class="st1" d="M513.8,1282.5c2.5,3.9,15.3,24.6,16.3,29.1s1.4,8.8,0.7,10.2c-0.8,1.4-9.8,0.4-10.6,2.5c-0.3,0.7-3-0.8-5.9,3.3
	c2.8-2.1,4.6-1.1,6.2,0.4c2,1.6,4.8,1.9,7,0.6c2.8-1.5,8-2.3,11.7-2c3.7,0.3,15.5,0.7,20.5,0.9c5,0.1,22,4,22.4-1.3
	c4.1,0.1,7.2,2,8.3,3.3c1.1,1.4-0.7-6.4-9.7-7.8c-0.8-0.8-6.7,0-9.1,0s-15.7,0.1-20.4-0.9c-4.7-1.1-7.6-0.9-11.4-6.3
	s-7.6-13.5-10.8-20.1c-3.2-6.6-4.7-7.9-6.3-10.4c-1.6-2.5-4.3-6.3-6.2-5.4C514.7,1279.3,512.8,1281,513.8,1282.5z"/>
<path d="M589,1214.4c0,0,11.1-16.8,14.1-24.1c3-7.4,5.7-22.4,5.7-35.5s0.7-35.5,6-42.9c5.3-7.4,8-10.7,15.1-14.4
	c7.1-3.7,4-15.8-6.7-21.8s-19.4-11.7-35.8-8.7c-16.4,3-22.1,11.4-28.5,18.4s-11.7,14.4-23.1,40.2c-2.1-1.4-30.3,13.6-66.5,42.2
	c-41.5,21.6-59.1,42.1-73.4,51.1c-23.2,14.7,16.7,18.6,25,18.8c2.5,3.7,32.4,15.2,41.1,15.6c5.1,0.2,11.4,2.6,14.6,8.4
	c5,9,14.4,12.1,18.6,18.8c5.6,9,11.2,19.8,12.5,16.5c0.9-2.4,3.5-2.9,7.3-2.6c4.9,0.4-7.6-16.4-3.8-15.7c2.8,0.5,9.5,18.6,10.4,16
	c1.2-3.4,2.7-5,6.1-3.9c3.6,1.3,0.5-8.9,0-12.4c-0.5-4,3.4-8.9,6.4-11.9C536.5,1264.3,561.9,1247.6,589,1214.4z"/>
<path class="st1" d="M659.6,1090.5c0,0-22.5,2.3-35,10c-4.4,2.4-5.3,3.8-9,3.9c-1.9,0.1-5.6-1.6-5.6-4.8c0-4.6,10.6-9.1,25.1-11
	C649.7,1086.8,653.5,1086.5,659.6,1090.5z"/>
<path class="st2" d="M623.2,1076.3c6.1,0.3,12.2,1.2,18.2,2.6c5.7,1.4,19.2,3.9,20.8,13c-1.4-1.1-1.8-1.2-4.5-2.4s-13.8-2.3-24-0.5
	c-10.5,1.8-16.5,3.4-23.4,8.6c1.8-7.2,4-7.1,7.6-10.1C619.7,1085.9,615.7,1076.3,623.2,1076.3z"/>
<ellipse class="st3" cx="599.3" cy="1089.1" rx="5.8" ry="5.9"/>
<ellipse class="st4" cx="599.3" cy="1089.1" rx="5" ry="5.1"/>
<path class="st0" d="M598.6,1088.3c0,0.9,0.7,1.6,1.6,1.6c0.9,0,1.6-0.7,1.6-1.6c0-0.9-0.7-1.6-1.6-1.6c0,0,0,0,0,0
	C599.3,1086.7,598.6,1087.4,598.6,1088.3z"/>
<path class="st5" d="M415.7,1233.3c-50.2-3-78.4,14.7-172.4,12.6c-14.6-0.3-26-3.2-22.2-6.7c-10.5,1.7-20.6,1-18.8-3
	c-10.4,0.1-17.9-1.4-17.9-5.1c0-2.7,9-1.9,29.1-2.8c62.7-2.7,144.6-10.2,172.7-15.5c0.2-3.8,11.9-3.8,38.7-8.5
	C423.7,1200.1,460.7,1236,415.7,1233.3z"/>
<path d="M476.1,1171.1c0,0-57,21.7-58,25.6c-10.4,3.6-21.1,7.9-20.8,11.6c-26.1,6.7-42.9,12.5-42.2,15.5s28.8-5.2,39.9-9.5
	c4,3.3,22.3,1.4,30.6-1.9C433.6,1215.3,478.3,1170.3,476.1,1171.1z"/>
<path class="st0" d="M463.5,1205.3c-1.5,5.2,6.6,50.1,47.7,55.3s87.5-59.1,85.1-72.5c-2.4-13.4-13.4-14.4-22.8-24.2
	c-9.4-9.7-12-17.2-25-17.5c-16.5-0.4-31,18.1-48.8,28.6C484,1184.3,466.2,1195.9,463.5,1205.3z"/>
<path class="st6" d="M571.4,1161.4c0,0-4.3,17-25.4,23.7c7.4-8.9,7-15.4,7-15.4s-9.8,26.1-60,20.3c7.3-2,14.5-7.7,17.4-12.5
	c-7.8,8.3-28.1,10.6-35.4,10.8c-9.5,0.3-21.5-1.7-25.1-3.1c-6.7,6.4-66.9,34.9-66.9,34.9s109.9,26.2,143.9-15.9
	c0.7,4.7-11.4,13.6-10,17.4c1.9,5.4,61.2-3.5,65.3-56.8C584.7,1130.3,571.4,1161.4,571.4,1161.4z"/>
<path d="M1137.5,970.9c0.2-1.2-0.9-3.7-0.9-3.7c-3.5-10.9-47.6-12.5-65.2-13c39.2-11-14.9-15.5-31-14.2c33-9.5-14.2-13.7-27.3-13.7
	c18.1-6.8-8-9.9-24.2-9.3c6.3-8.9-11.8-7.4-27.9-6.8c2.1-7.2-12.8-4.1-16.7-2.5c-14.4,6.2-31.5,16.6-53.8,25.9s-47.8,23.4-47.8,23.4
	v27.4c0,0,21.2,12.2,42.2,22.3c12.5,6,30.4,14,41.9,21.6c19.3,12.7,40.5,12.8,34.2,6.9c16.1,0.6,46.9-1,27.9-8
	c16.1,0.6,49.8-3.1,24.2-8c13,0,48-1.8,27.3-12.4c16.1,1.3,67.6-6.3,31-15.4c17.6-0.5,61.6-6.1,65.2-17
	C1136.6,974.6,1137.7,972.1,1137.5,970.9z"/>
<path d="M910,965.5c0,0-25.4-25.4-43.2-22.5c18.4-8.2,20.9-18.7,16.8-24.4c6.3-6,2.2-14.9-1.6-19c4.4-3.8,1-10.1-3.8-13.9
	c5.4-4.4,0-10.1-4.8-13.9c4.1-3.8,2-17.7-8.6-11.7c10.8-8.3-0.9-26-7.4-15.5c-0.8-3.2-50.9-53-101.9-21
	c-2.5,11.1-25.3,33.6,26.6,125.4c7,12,10.1,22.5,4.4,32.6s-44.3,72.8-20.3,130.5c7.6,19,83.3,3.2,98.8-25.7c13.6,8.6,14.7-14,8.2-18
	c8.5-2.2,11.1-10.1,8.9-15.8c7.9-2.5,9.5-13.3,2.8-19.6c7.6-5.4,2.2-19.3-5.1-25C888.4,1005.1,908.8,981.7,910,965.5z"/>
<path d="M760.2,1052.6c0,0-9.9,38.4-5.7,48.5c-3.8,9.3-10.6,22-14.3,34s-13,27-15.7,30.6c-2.7,3.6,15.5,1.4,23.9-22
	c-1.5,15.9-10.2,33.6-11.9,37.8c-1.7,4.2,16.2,0.4,23.6-23.4c-1.2,12.8-3.4,25.5-6.5,38c-1.7,7.2,19.6-2.3,20.7-29.6
	c2.5,16.3,1.5,41.4,8.9,37.6s12.7-25.2,10.3-36.3c4.2,16.5,11,41.4,18.2,34.6s2.4-24.7,0-33.8c5.9,9.5,19.1,30.5,21.2,20.7
	s2-18.5,0-24.5c5,4.2,10.5,16,12.4,7s2.8-15.4,0-21.5c4,2.3,10.5,7.1,12-1.7c1.5-8.9,0.4-11.8-1.3-15.2c4.2,2.5,11,4.3,11-6.8
	c0-11.1-5.6-14-7.4-16c4.2,1,11.7-3.2,11.1-10.5c-0.6-7.3-5.6-13.7-5.6-13.7L760.2,1052.6z"/>
<path d="M763,909.1c0,0-20.2-43.6-18.5-56.7c-6-10.5-15.8-24.5-22.3-38.3s-19.3-30.1-22.9-33.9s14.9-4.8,28.8,21.8
	c-5.3-18.9-18.2-38.5-20.8-43.3s15.8-3.7,28.9,23.7c-4.3-15.2-9.5-30.1-15.6-44.6c-3.4-8.3,19.9-1.1,27.5,31.6
	c-1.5-20.1-8.6-50.3-0.4-47.2s18.6,27.9,19,41.8c0.2-20.7,0.8-52.2,9.5-45.4s8.3,29.4,8.2,40.8c3.5-12.7,11.4-40.6,15.8-29.2
	s6.5,22,6,29.6c3.9-6.1,6.5-21.5,10.5-10.9s6.5,18.1,5.2,26c3.4-3.5,8.6-10.7,12.2-0.3s3.3,14.2,2.4,18.6c3.5-3.9,9.8-7.3,12.5,6.1
	s-2.1,18.1-3.4,20.7c3.9-2.1,10.9,0.6,12.1,9.6c0.6,6.2,0.3,12.4-0.8,18.5L763,909.1z"/>
<path class="st0" d="M869.7,963.9c0,0-8.6,18-25,25.3c5.1,1,12.5-4.4,12.5-4.4s-6.5,80.2-93.9,63.5c-4.8-1.5,23.6-72.6,47.7-75.1
	c-23.4-6.7-58-87.6-56.2-93.1s68-17.2,96.9,54c-4.8-5.1-14.6,0-14.6,0S853.2,929.7,869.7,963.9z"/>
<path class="st7" d="M735.7,832c2.3-1.3-5.2-22.8-11.8-32.7s-12.6-15.8-17.6-16.8s10.3,14.2,15.1,24.6S732.4,833.8,735.7,832z"/>
<path class="st7" d="M742.1,828.6c3.1-0.8-0.8-28-7-43.1s-18.5-24.5-23.8-25.9s10.1,17.9,14.3,29.8S737.2,829.9,742.1,828.6z"/>
<path class="st7" d="M749.3,827.1c3.7-1.1,3.1-30,0.4-45s-12.6-36.9-21.5-40.2s5.9,25.5,9.4,39.5S741.9,829.3,749.3,827.1z"/>
<path class="st7" d="M758.3,825.3c5-0.7,9.4-34.1,8.2-49.7s-7.9-36.2-14.7-40.8s-0.1,26.7-0.3,43.5S750.3,826.5,758.3,825.3z"/>
<path class="st7" d="M766.2,827.4c3.7,0.9,15.1-28.1,17.5-42.1s-1.4-40.7-7.5-48.6s-5.8,23-9.5,44S759.1,825.6,766.2,827.4z"/>
<path class="st7" d="M776.2,829c4.3,0.8,15.6-30.5,23.1-49.5s4.7-25.3-2.6-33.8s-10.9,19.8-16.1,37.5S769.2,827.6,776.2,829z"/>
<path class="st7" d="M787.7,829.4c4.5,0.4,18.4-20,27.5-39s5.2-21,0.4-27.2s-10.1,1.1-20.1,26S782.1,829,787.7,829.4z"/>
<path class="st7" d="M800.8,831.6c5.9,3,11.4-1.6,23-19.4s11.7-20.7,8.1-27.3s-9.7-10.9-21.5,14.9S795.7,829,800.8,831.6z"/>
<path class="st7" d="M819,834.7c6.4,1.7,10,3.2,18.1-6.4s11-13.3,8-24.3s-9.6-4.4-19.7,7.9S813.3,833.2,819,834.7z"/>
<path class="st7" d="M836.6,841c6.3,2.7,6.8,1.9,10.6-0.5s5.1-7,1.8-15.1s-6.5,0.1-10,5.2S832.9,839.4,836.6,841z"/>
<path class="st7" d="M750,1118.8c2.5,0.7-0.6,19-5.1,27.9c-4.4,8.9-9.2,14.6-13.9,16.2s7.2-13,10-22S746.5,1117.8,750,1118.8z"/>
<path class="st7" d="M756.9,1120.4c3.2,0.2,4.8,22.4,1.6,35.4c-3.2,13-13.2,22.5-18.2,24.4c-5,1.9,6.4-15.8,8.2-26
	C750.3,1144.1,751.9,1120.1,756.9,1120.4z"/>
<path class="st7" d="M764.2,1120.4c3.8,0.3,8.9,23.4,9.2,35.7c0.3,12.4-5.1,31.4-13.1,35.5c-8.1,4.1,0.8-21.2,1.4-32.9
	S756.6,1119.8,764.2,1120.4z"/>
<path class="st7" d="M773.4,1120.4c5-0.2,15.8,25.6,17.7,38.3c1.9,12.7-0.6,30.1-6.3,34.8s-5.3-21.2-8.9-34.5
	S765.3,1120.8,773.4,1120.4z"/>
<path class="st7" d="M780.7,1117.5c3.4-1.3,20.2,20,25.3,30.7s6.7,32.6,2.2,39.9s-10.2-17.3-17.9-33.5
	C782.5,1138.4,774.1,1120,780.7,1117.5z"/>
<path class="st7" d="M790.2,1114.6c4.1-1.4,21.2,21.7,32.3,35.7s9.5,19.4,4.1,27.3c-5.4,7.9-14.6-14.1-23.1-27.3
	C794.9,1137.1,783.5,1116.9,790.2,1114.6z"/>
<path class="st7" d="M801.3,1112.4c4.3-1,21.9,13,34.5,26.6c12.7,13.6,9.2,15.8,5.7,21.5c-3.5,5.7-10.1,0.7-24.7-17.5
	S795.9,1113.7,801.3,1112.4z"/>
<path class="st7" d="M813.6,1108.6c5.1-3.3,11.4-0.6,26.3,11.8s15.5,14.6,13.3,20.4s-7.4,10.3-24-8.4
	C812.6,1113.7,809.2,1111.5,813.6,1108.6z"/>
<path class="st7" d="M830.8,1103.2c5.9-2.4,9.1-4.1,19,2.2c9.9,6.3,13.3,8.9,12.5,18.1c-0.8,9.2-8.5,5-20.8-3.1
	C829.3,1112.3,825.6,1105.3,830.8,1103.2z"/>
<path class="st7" d="M846.7,1095.4c5.6-3.1,6.3-2.6,10.5-1.3c4.1,1.3,6.3,4.8,4.8,11.8s-6.3,0.9-10.8-2.5S843.5,1097.2,846.7,1095.4
	z"/>
<path d="M712,936.3c8.7-2.8,20.5-4.1,32.8-3.2c12.8,1,20.9-0.5,24.7-1.6s15-2,19-1.1c-5.1,1.1-6.5,4.7-6.5,4.7s15-8,28.3,0
	c-5.7-1-6.1,4.9-6.1,4.9s35.4-12.5,54.1,14c-4.4-4-17.1,2.7-17.1,2.7s12.4-1,23.3,4.7c-5.7,5.3-19.2,7-22.8,7.8
	c5.5,0.2,14.9-1.5,14.9-1.5s-5.4,5.2-19.1,12.8s-23,8.9-31.7,9.1c2.4,1.8,5.4,2.8,8.5,2.7c0,0-6.1,4.4-12.9,3.8s-21.1-3.8-24.5,5.1
	s-33.2-14.8-39.3-19s-7.7-3.4-13.1-4.7c-5.8-1.3-30.2-4.4-32.9-19.4C689,949.1,687,944.5,712,936.3z"/>
<path class="st1" d="M665.6,962.5c0,0,18.4-11.2,25.8-7.8s13.1,8.7,10.8,12.5s-7.2,1.1-11.4,0S671,965,665.6,962.5z"/>
<path class="st2" d="M661.5,960.4c0,0,6.3-8.5,10.8-9.9s19.4-3,19.4-3s2.3,7.9,7.4,12.1s-12.5,2-19.6,0.8
	C674.5,959.5,664.7,958.5,661.5,960.4z"/>
<ellipse class="st3" cx="709.5" cy="952.2" rx="5.4" ry="5.5"/>
<path class="st4" d="M714.1,952.2c-0.1,2.6-2.2,4.6-4.8,4.5c-2.6-0.1-4.6-2.2-4.5-4.8c0.1-2.5,2.1-4.5,4.6-4.5
	C712.1,947.5,714.1,949.6,714.1,952.2C714.1,952.2,714.1,952.2,714.1,952.2z"/>
<circle class="st0" cx="708.7" cy="951.5" r="1.5"/>
<path class="st6" d="M406.3,774.7c0,0-45-123.5-50.5-138.2s-7.5-12.4-9.4,0s-5,27.7,1.6,43.6s27.1,58.3,27.1,58.3
	s-58.3-96.3-64.8-107.6c-6.5-11.3-10.8-8.4-10.5,7.2s1.7,37.2,6.6,45c4.9,7.8,43,51.9,43,51.9s-77.8-76.7-85.2-87.7
	c-7.4-11-10.3-5.2-9.4,12.1s7.3,26.2,9.4,31.2c2.1,4.9,70.5,56.2,70.5,56.2s-85.7-59.1-96-71.8s-7.8,26,4.6,43
	c12.4,8.1,76,40.4,76,40.4s-90.1-42.6-99.3-47.7s3.6,24,9,29.5s12,8.1,77.5,30c-73.3-23.7-84.4-27.4-89.8-30.3s0.1,19.6,9,25.8
	s18.8,7.2,73,17.4c-56.8-9.4-78.7-18.1-74.3-5.1s3.1,10.3,60,15.7c-53.3-2.7-59-3.5-58.2,4.7s44.5,11.8,61.4,12.9
	C304.6,812.4,406.3,774.7,406.3,774.7z"/>
<path class="st6" d="M519.7,887.8c0,0,7.8,2.6,14.1,2c6.4-0.6,14.6-5.2,22.7-6.1c8.1-0.9,30.1-2.3,35.5-4.3
	c6.1-2.4,11.9-5.6,17.3-9.5c3.8-2.9-5.2,21.6-63.5,45c-22.8,10.1-34.1,23.6-64.3,18.9S519.7,887.8,519.7,887.8z"/>
<path class="st0" d="M558.6,887.8c-3-1.2-3.5-2.8,4.5-3.4s22-1,27.6-2.6c5.6-1.6,13.5-5,16.4-8.3c-5.6,6.3-12.4,10.4-17.6,11.7
	S564.7,890.2,558.6,887.8z"/>
<path class="st0" d="M559.5,891.3c2-1.4,3.7-1.6,10.6-1.7c6.9-0.1,14.2-1,18.1-2.1c3.3-0.8,6.4-2.2,9.2-4.1
	c-9,5.6-11.9,8.5-17.6,9.5C574,894,555.6,894.2,559.5,891.3z"/>
<path class="st0" d="M553.7,895c3.3-1.9,4.4-0.6,8.7,0c4.2,0.6,14,0.8,19.5-1.1c-15.4,8.4-22,7.8-26.9,5.9
	C550.2,897.8,550.4,897,553.7,895z"/>
<path class="st0" d="M545.7,901c3.9-1.5,4.1-1.4,9.4,1.2c5.3,2.6,11.9,0.7,14.2,0c-14.9,6.8-19.7,8.1-22.6,5.7
	S540.2,903.2,545.7,901z"/>
<path class="st0" d="M539.5,904.5c0.8,1,3.3,7.8,2.6,9.6c-0.7,1.8-11.3,7.1-10.3,2.6s1.6-8.3,1.8-9.5
	C533.7,906.1,539,904,539.5,904.5z"/>
<path class="st0" d="M529.1,909.6c0.4,1,0.8,7.8,0,10.5s-9.1,5.6-8.8,2.4c0.3-3.2,0.9-7.5,1-9S528.7,908.8,529.1,909.6z"/>
<path class="st0" d="M518.6,915.6c0,1.3-0.6,8.8-1.3,10.7c-0.7,2-9.7,6-8.4,2.4c1.1-3.1,2-6.3,2.6-9.5
	C511.8,917.1,518.6,914.2,518.6,915.6z"/>
<path class="st0" d="M507.3,921.1c0.2,2-3.5,9.1-4.6,10.5s-10.6,2.3-8.5,0S507,917.4,507.3,921.1z"/>
<path class="st6" d="M462.5,945.6c-8.7,8.9-32.8,9.4-32.8,30.6c0,12.9-27.9,4.6-14.9-15.8c-7,4.7-21,2.3-18.5-7.9
	c-10.1,9.2-67.6,8.3-70.7-9.9s50.4-30.1,59-33.6S472.9,934.9,462.5,945.6z"/>
<path class="st6" d="M379.2,940c0,0-47,42.3-56.5,45.4s-18,3.7-21.6,1.3c-11.9,2.4-16,2.6-18.4,0.2c-14.7,4.5-21.9,6-25.1,1.7
	c-18.8,5-25.1,6.2-27.9,2.6c-24,5-49.3,5.3-30.3-3.6s146.7-65.3,169.6-73.8S382,937.6,379.2,940z"/>
<path class="st6" d="M436.9,842.2c-5.8-5.9-9.6-13.5-10.8-21.7c-1.2-10-3.1-18.6-9.1-27.2s-6.1-25.1-33.3-36.8s-81.8,38.5-95.5,51
	c-1.5,1.3-2.2,2.5-2.3,3.5c-22.1-1.2-42.6-1.9-49.1-2.7c-16.2-2-9.5,14.3,6.5,17.1s67.3,7.1,67.3,7.1s-45.6,0.2-64.4-1.1
	s-14.3,11.5,0.9,13.4s65.1,3.2,65.1,3.2s-44.1,0.9-59.9,0.1s-10.2,9.5,3.5,11.9c13.6,2.4,64.6,0,64.6,0s-37.6,4.5-55.9,3.9
	s-11.5,6.9,1.5,8.4c13,1.5,61.5-1.5,61.5-1.5s-33.6,4.5-48.7,4.8c-15.1,0.2-15.1,5.4,0,7.8c15.1,2.4,59.1-4.3,59.1-4.3
	s-30.7,7.8-44.6,8.2s-7.4,6.5,4.1,6.7s49.3-6.7,49.3-6.7s-30.3,8.4-40,11.2s-6.5,5.8,16.2,8c15.9,1.5,41.3,0.3,55-0.6
	c-1.7,3.1-3.5,6.5-5.5,9.9c15.6,2.6,70.7-26.4,78.8-39.6S440.8,846.1,436.9,842.2z"/>
<path class="st0" d="M354.7,655.3c5,4.9,47.5,108.8,49.1,114.8s-14-4.5-18.1-12.7s-36.1-75.7-36.1-78.7S351.7,652.4,354.7,655.3z"/>
<path class="st0" d="M315.8,649.7c2.9,3.3,65.4,100.4,68,106.9s-8.7,5.2-12.6,0S311,690,309.3,681.7S311,644.2,315.8,649.7z"/>
<path class="st0" d="M270.5,662.3c3.9,2.7,92.3,85.5,96.7,91.4s-7.9,7.6-13.3,3.3s-83.5-56.6-87.4-64.5S264.1,658,270.5,662.3z"/>
<path class="st0" d="M248.4,688.9c4,2,97.4,68.2,102.2,73.2s-7.2,7.9-12.9,4.6s-86.6-42.6-91.1-49.4S241.8,685.6,248.4,688.9z"/>
<path class="st0" d="M234.1,719.6c3.9,1.2,97.9,47,102.9,50.7s-5.4,5.6-11,3.5s-84.3-25.4-89.3-31S227.6,717.7,234.1,719.6z"/>
<path class="st0" d="M227,746.8c3.6,0.6,92.3,30.4,97.2,33.2s-4.1,5.6-9.3,4.3c-5.2-1.2-77.8-12.9-82.9-17.2S221,745.8,227,746.8z"
	/>
<path class="st0" d="M230.8,773.5c3.1,0.1,79.2,14.3,83.6,16s-2.7,3.3-7.1,2.9s-65.3-1.6-70-4.5S225.8,773.4,230.8,773.5z"/>
<path class="st0" d="M233.3,793.6c2.7-0.2,71.8,5,75.8,6.1s-2.1,3.2-6.1,3.3c-4,0.1-58.2-0.3-62.6-2.5S228.8,794,233.3,793.6z"/>
<path class="st1" d="M423.7,980.8c1.6,2.5,26.8,12.2,26.8,13s-4.5,4.5-6.8,5.4c-2-0.1-5.4,0.8-5,4c0.5-1.5,2-2.5,3.6-2.3
	c0.8,1.9,3.3,1.8,4.6-0.2c1.4-1.4,3-2.6,4.8-3.4c1.1-0.3,3.5,1.3,4.5,1.8s2.1,0.3,4.4,1.4s3.1,0.6,5.4,1.4s4.9,1.1,5.4-1.1
	c1.5-0.8,3.2-0.7,4.7,0.1c-1.2-2-3.8-1.9-5.3-1.3c-1-0.3-2.1-0.6-3.2-0.8c-1.5-0.2-3.5-0.2-5.1-0.6c-1.4-0.3-2.7-0.8-3.9-1.6
	c2.5,1.1,5.3,1.1,7.8,0c1.9-0.7,5.4-2.4,7-2.3s3.3,0,3.5-1.6c1.5-0.6,3.3-0.3,4.5,0.8c-0.8-3-4.2-2.6-5.2-2.1
	c-2.1-1.3-6,0.4-8.7,1.5s-4.3,2-8.4,1.4c2.1-0.7,4.1-1.5,6-2.6c0.9-0.4,2.1-1.9,1.8-2.6c1.1-1,1.9-2,3.7-1c-1.1-1.2-3-1.3-4.2-0.2
	c-0.1,0-0.1,0.1-0.2,0.1c-1.6-0.8-6.2,3.6-7.7,4.2c-1.7,0.8-3.7,0.4-4.9-1.1c-1.4-1.8-25-9.3-26.5-11.9S422.2,978.3,423.7,980.8z"/>
<path class="st1" d="M400.4,960.2c1.6,2.5,26.8,12.2,26.8,13s-4.5,4.5-6.8,5.4c-2-0.1-5.4,0.8-5,4c0.5-1.5,2-2.5,3.6-2.3
	c0.8,1.9,3.3,1.8,4.6-0.2c1.4-1.4,3-2.6,4.8-3.4c1.1-0.3,3.5,1.3,4.5,1.8s2.1,0.3,4.4,1.4s3.1,0.6,5.4,1.4s4.9,1.1,5.4-1.1
	c1.5-0.8,3.2-0.7,4.7,0c-1.2-2-3.8-1.9-5.3-1.3c-1-0.3-2.1-0.6-3.2-0.8c-1.5-0.2-3.5-0.2-5.1-0.6c-1.4-0.3-2.7-0.8-3.9-1.6
	c2.5,1.1,5.3,1.1,7.8,0c1.9-0.7,5.4-2.4,7-2.3s3.3,0,3.5-1.6c1.5-0.6,3.3-0.3,4.5,0.8c-0.8-3-4.2-2.6-5.2-2.1
	c-2.1-1.3-6,0.4-8.7,1.5s-4.3,2-8.4,1.4c2.1-0.7,4.1-1.5,6-2.7c0.9-0.4,2.2-1.9,1.8-2.6c1.1-1,1.9-2,3.6-1c-1.1-1.2-3-1.3-4.2-0.2
	c0,0-0.1,0.1-0.1,0.1c-1.6-0.8-6.2,3.6-7.7,4.2c-1.7,0.8-3.7,0.4-4.9-1.1c-1.4-1.8-25-9.3-26.5-11.9S398.8,957.7,400.4,960.2z"/>
<path class="st6" d="M552.9,853.5c0,0-4.3-19.3-20.2-22.5s-32.3,3.2-43,11.2s-21.6,11-34.6,11.2c5.2,5.8,9.5,17.9,7.5,26.2
	s-13,45.6-11.2,57.1s-5.9,17.3-0.2,15.3s29.6-17.6,41.1-25.4s17.6-17,23.1-27.4c5.5-10.4,10.7-17.9,17.6-25.1S550.5,860,552.9,853.5
	z"/>
<path class="st0" d="M460.8,854.5c0,0-14.1-0.8-17.9-5.2c1.1,5.7,11.2,10.5,6,24.2s-44.1,19.3-60.6,45.1s17,31.4,32.6,20.2
	c-6.1,19.1-3.8,27.9,26.4,12.6c6.7-3.4,37-16.5,28.6-18.4c-12.8-2.8-17.6-17.5-16.3-25.5c2.1-12.8,9.8-24.1,7.8-35.1
	C466.2,865.3,464,859,460.8,854.5z"/>
<ellipse class="st3" cx="528.8" cy="846.5" rx="4.9" ry="5.1"/>
<ellipse class="st4" cx="528.8" cy="846.5" rx="4.2" ry="4.3"/>
<path class="st0" d="M529.4,845.9c-0.1,0.7-0.7,1.3-1.5,1.2c-0.7-0.1-1.2-0.6-1.2-1.2c-0.1-0.7,0.5-1.4,1.2-1.5s1.4,0.5,1.5,1.2
	C529.4,845.7,529.4,845.8,529.4,845.9z"/>
<path class="st1" d="M577.5,862.4c0,0-17.5-2.8-28.4,0.1c-3.7,0.8-4.7,1.6-7.5,1c-1.5-0.3-4-2.2-3.4-4.4c0.8-3.2,9.6-4.2,21-2.7
	C570.6,858,573.7,858.5,577.5,862.4z"/>
<path class="st2" d="M552.5,846.1c4.6,1.4,9,3.2,13.3,5.4c4.1,2.1,13.9,6.5,13.5,13.1c-0.9-1-1.9-1.9-3-2.6
	c-1.9-1.4-10.1-4.3-18.1-5.1c-8.3-0.8-13.2-0.9-19.3,1.3c2.7-4.6,4.3-4.1,7.5-5.5C548.1,852,546.8,844.6,552.5,846.1z"/>
<path class="st6" d="M429.4,1560.5c0,0,33.5,74.9,59.2,124.9s39.3,80.1,57.4,106.8c18.1,26.7-4.8,25.8-21.7,3.4
	c-16.9-22.4-34.6-49.7-34.6-49.7s-8.2,8-21.3-18.4c-13.1-26.4-19.1-39.9-19.1-39.9s-9,3.1-22.8-28.1s-36-90.7-40.5-95
	c-4.5-4.3-9.2-15.8-17.4-18.4s-12.4,13.4-17.6,8.5c-5.2-4.9-27.8-45.6,6.1-24.9S424.2,1549,429.4,1560.5z"/>
<path class="st1" d="M320.8,1586.8c0,0,7.4,1.1,9.5-1.5c2.1-2.6,6.2-8.2,2.3-10.4c-4-2.2-12.5-5.8-7.4-7.7c8.3-3.5,16.3-7.6,24-12.3
	c5.3-3.5,3-9.5-4.3-6.1c-7.3,3.4-24.3,11.6-29.3,13.5c-5,1.9-6.5,9.9-9.7,12.7s-5.8,5.4,1.8,11.1c7.6,5.8,11.8,11.2,15.5,8.4
	c6,1,7.4-2.6,6.4-6.9c-0.5,4-5.3,3.6-5.3,3.6s0.7-2-2.3-3.2c-3-1.2-3.5,1-3.5,1c-0.6-1.5-1.5-2.8-2.7-3.8c-1.9-1.6-4.8-2.2-4.7-3.8
	c0.3-3.3,0.9-6.1,3.8-6.4c2.9-0.3,7.7,5.7,9.2,4.1c-0.3,1.9,2,3.4,2,3.4S329.9,1585,320.8,1586.8z"/>
<path class="st8" d="M285.8,1444.2c0,0-11.8,18.8,6.5,55.2c18.2,36.4,56.6,56,54.9,49.8c-1.8-6.2-4.1-16.3,6.7-15.8s30.9,6.8-2.2-35
	C318.7,1456.6,288.7,1436,285.8,1444.2z"/>
<path class="st6" d="M299.7,1424.5c0,0-21.2,9-15.1,40.2c6.1,31.2,18.1,37,25.2,36.1c8,10.2,22.3,16,24.9,15
	c10.3,8.2,66.5,37.1,79.2,44.9s28.4,23.1,31.9,20.3c5.2,6.7,15.7,18.5,12-1.7c-2.2-12-6-23.6-11.3-34.6c0,0,1.9-5.9-11.8-27.2
	c-13.7-21.4-11-29.4-16.1-37c-5.1-7.6-13.3-31.4-30.2-20.4S310.2,1418.4,299.7,1424.5z"/>
<path class="st6" d="M364.3,1417.6c0,0,32.8,9.1,34.5,48.7c-33.7-2-103.5-31.3-107-40.8c-4.7-13-22.9-1.9-25.4-17.6
	c-1-6.3,24-28.4,44.9-31.7c26.6-4.2,44.2,28.1,51.4,34.5C369.8,1417.1,357.9,1415.1,364.3,1417.6z"/>
<path class="st8" d="M400.9,1474.5c-2.1,2.6-4.1-30-12.9-39.5C402.8,1447.8,413,1459.6,400.9,1474.5z"/>
<path class="st1" d="M247.9,1416.7c0,0,15.8,2.3,24.1-0.1c8.3-2.4,15.7-0.8,15.1-4.1c-0.7-3.3-4.3-5.4-11.4-3.7
	C268.7,1410.4,259.7,1406.6,247.9,1416.7z"/>
<path class="st2" d="M244.6,1418.9c0,0-2.5-3.9,6-9.3c8.5-5.4,11.5-5,14-6.5s3.6-2.2,5.1-3.2c1.5-1,0.6,2.9,0.8,4.9
	c0.1,2,9,0.9,11.7,3.5c2.7,2.6-10.9,2.9-13.8,3c-3,0.1-12.1,1-15.7,2.1C248.9,1414.5,246.3,1415.6,244.6,1418.9z"/>
<path class="st0" d="M302.4,1427.4c-3.7,2.1-9,6.8-11.1,10.9s54.1,42.5,89,35.9c6.1-0.1-27.6-12.1-39.8-21.9
	S305.5,1425.6,302.4,1427.4z"/>
<path class="st3" d="M299.4,1397.5c0.4,2.8-1.6,5.3-4.4,5.7c-2.8,0.4-5.3-1.6-5.7-4.4c-0.3-2.7,1.5-5.2,4.3-5.7
	C296.4,1392.7,299,1394.7,299.4,1397.5C299.4,1397.5,299.4,1397.5,299.4,1397.5z"/>
<path class="st4" d="M298.7,1397.6c0.3,2.4-1.4,4.6-3.8,4.9s-4.6-1.4-4.9-3.8c-0.3-2.4,1.3-4.5,3.7-4.9
	C296.1,1393.5,298.4,1395.2,298.7,1397.6z"/>
<path class="st0" d="M294.9,1397.5c0.1,0.8-0.4,1.5-1.2,1.6s-1.5-0.4-1.6-1.2c-0.1-0.8,0.4-1.5,1.2-1.6c0,0,0,0,0,0
	C294.1,1396.2,294.8,1396.7,294.9,1397.5z"/>
<path d="M427.2,119.6c3.3,3.8,17.1,14.6,25.3,51.2S463.2,248,465.2,273s0.3,72.2-4,76.2c-0.3,9.8-4,8-3.7,12.6s11.6,74,8.6,75.5
	c3.5,20.3,5,38.7,10,67.5c5,28.8,14.2,57.9,6.9,60.2s-12.3-3.4-12.3-3.4s3.5,27.2,6.1,44.5s-1.5,22.2-6.1,22.6s-15,2.7-20.3-65.6
	c-4.2,1.2-11.1,10.3-14.2-25.7c-1.5-32.2-9-79.8-9-79.8c-7.9,3.8-12.5-35.3-15.5-63.6s-10-60.6-10-60.6s-14.6,8.4-49.1-91.2
	c-8.4-0.8-14.6-23.8-16.1-36c-10.7,2.3-13-43.7-5.4-66.7C338.8,116.5,403.6,92.7,427.2,119.6z"/>
<path class="st9" d="M377.2,139.6c15.5-2.9,47.9-20.2,51.8-11.6s4.5,14.8,7.1,17.8s9,10.4,10,27.4c-0.4-2-1.4-3.9-2.7-5.6
	c1,5,0.8,10.1-0.6,14.9c-2.3,8.2,2.5,20.1,3.3,25.7s5.9,15.7,5.6,31.2c-0.3-2.5-1.2-4.9-2.7-6.9c0,0,0.6,27.6-9,40.8
	c0.4-1.9,2.1-10.2,2.1-10.2s-3.2,12.6-9.6,11.3s-3.8-8-3.8-8s-3.8,0.4-4.4,3.5c-4.9-4.5-6.6-11.5-4.4-17.8c-3.6,4-6.5,5.9-12.3,8.2
	c1.6-1.6,2.6-3.6,2.9-5.8c-2.2,2.2-4.7,4-7.5,5.4c-3.1-2.9-4.6-5.8-4.6-7.9c-1.3,3.1-3.3,4.2-3.3,5.9s-5.2-1.5-6-5
	c-0.4,5.9-0.6,7.1,0,8.4c-5.5,0.6-10.9-3.6-12-6.1c-0.4,1.3-0.4,2.7,0,4c0,0-6-0.2-8.5-5c1,5.2,7.1,6.5,7.1,6.5s-5.3,9.7-12.8-0.6
	s-18-31.6-23.4-49.6c-5.4-18-19.4-50.6-5-65.9C348.9,129.5,377.2,139.6,377.2,139.6z"/>
<path class="st6" d="M416.3,65.4c-0.9-1.1-21-15.8-35.7-13.8S343,64.3,339.9,88.1c-5.8,13.2-8.6,33.4-7.7,49
	c-4.6,20.2-2.6,44.1,10.9,49c6.3,10.9,25,22.7,35.4,6c18.7,11.8,35.1-6.6,35.4-14.7c5.5-1.7,29-24.4,13.5-53.2
	c-7.8-13.5-19.6-16.8-21.9-20.7s-3.2-9.6-2.4-12.1s2.1-8.1,10-10.8S417.3,66.5,416.3,65.4z"/>
<path class="st1" d="M438.4,70.8c0,0-13.3,7.5-22.8,7.3s-24.9,4.8-26.4,0s23-10.4,30-11.2S438.4,70.8,438.4,70.8z"/>
<path class="st2" d="M440.4,71.2c-2.4-3.7-5.9-6.4-10.1-7.8c-7.1-2.4-16.8-2.1-19.3-1.8s0.1,1.6,0,3.2s-23.3,6.2-22.6,9.8
	s13.2-2.9,20.3-4S435.1,67.4,440.4,71.2z"/>
<path class="st1" d="M434.3,273.4c0,0-1.4,5.9-0.6,6.5s1.7-0.4,2.9-0.5s2.3,4.5,1.3,4.5c0.4,2-1.1,6-2,7.4c0.8-2.4,0-5.8-0.7-6.5
	c-0.3,1.6-3,0.5-3.6-0.4s-5.4-1.6-6.6-0.3s-4.2,7.5-6.8,6c-2.4,1.7-3.5,5-3.2,6.6c-3.2-2.6,0.4-7.8,1.4-8.6c-0.9-1.4,0.9-5.4,3.2-6
	s-1.7-1.4-2.7-0.6s-7-0.2-5.8-2.5c-0.9-1.2-4.5,1.2-4.2,4.1c-1.6-4.3,3.4-7.4,6.8-6.9s4,2.3,6.6,2.5s8.4,0.8,8.6-1.3s0-5.6,1.9-5.2
	S434.5,272.5,434.3,273.4z"/>
<path class="st1" d="M373.1,263.6c0,0-1.4,5.9-0.6,6.5s1.7-0.4,2.9-0.5s2.3,4.5,1.3,4.5c0.4,2-1.1,6-2,7.4c0.8-2.4,0-5.8-0.7-6.5
	c-0.3,1.6-3,0.5-3.6-0.4s-5.4-1.6-6.6-0.3s-4.2,7.5-6.8,6c-2.4,1.7-3.5,5-3.2,6.6c-3.2-2.6,0.4-7.8,1.4-8.6c-0.9-1.4,0.9-5.4,3.2-6
	s-1.7-1.4-2.7-0.6s-7-0.2-5.8-2.5c-0.9-1.2-4.5,1.2-4.2,4.1c-1.6-4.3,3.4-7.4,6.8-6.9s4,2.3,6.6,2.5s8.4,0.8,8.6-1.3s0-5.6,1.9-5.2
	S373.2,262.8,373.1,263.6z"/>
<path class="st3" d="M385,66.8c-0.1,3.5-3,6.2-6.5,6.1c-3.5-0.1-6.2-3-6.1-6.5c0.1-3.4,2.9-6.1,6.3-6.1
	C382.2,60.3,385,63.2,385,66.8z"/>
<path class="st4" d="M384.1,66.8c-0.1,3-2.6,5.3-5.6,5.3s-5.3-2.6-5.3-5.6c0.1-2.9,2.5-5.3,5.4-5.3
	C381.7,61.3,384.1,63.7,384.1,66.8z"/>
<path class="st0" d="M379.5,65.9c0,1-0.8,1.7-1.7,1.7c-1,0-1.7-0.8-1.7-1.7c0-1,0.8-1.7,1.7-1.7c0,0,0,0,0,0
	C378.7,64.1,379.5,64.9,379.5,65.9z"/>
<path class="st1" d="M803.4,1495.7c0,0-7.1,8.4-9.3,11.3c-7,0.9-24,2.5-26.9,11.5c1.3-1.3,2.8-2.4,4.3-3.4c0,0,0,1.6,3.2,0.7
	s9.5-4.5,11.8-3.2c-6.1,5.4-13.8,12.4-12,23.3c0.2-3.2,2.7-6.6,2.7-6.6s1.8,0.7,3.6-2c1.8-2.7,6.1-8.4,10.4-11.5
	c-2,6.1-5.2,12.9-0.9,22.9c-1-2.4-0.5-5.1,1.1-7c0,0,3.4,0.4,3.6-2.5s-0.7-13.6,3.2-17c3.8-3.4,12.2-6.6,15.4-7.2
	c1.7-0.2,3-1.7,3.1-3.4c0,0,0.1-1.6,2.1-1.8c-4.8-0.9-16.3,3.9-18.3,6.1c5.2-5.7,7.5-8.8,8.6-10.2S806.6,1491.9,803.4,1495.7z"/>
<path class="st1" d="M762.6,1484c0,0-6.4,7.6-8.5,10.3c-6.4,0.8-21.7,2.3-24.4,10.5c1.2-1.1,2.5-2.2,3.9-3.1c0,0,0,1.4,2.9,0.6
	c2.9-0.8,8.6-4.1,10.7-2.9c-5.5,4.9-12.5,11.3-10.9,21.1c0.2-2.9,2.5-5.9,2.5-5.9s1.6,0.6,3.3-1.9s5.5-7.6,9.4-10.5
	c-1.8,5.5-4.7,11.7-0.8,20.7c-0.9-2.1-0.5-4.6,1-6.4c0,0,3.1,0.4,3.3-2.3c0.2-2.7-0.6-12.3,2.9-15.4c3.5-3.1,11.1-6,14-6.6
	c1.6-0.2,2.8-1.5,2.8-3.1c0,0,0.1-1.4,1.9-1.6c-4.3-0.8-14.8,3.5-16.6,5.5c4.7-5.1,6.8-8,7.8-9.2S765.4,1480.6,762.6,1484z"/>
<path class="st6" d="M661.5,1446.7c-0.1-6,7-36.1,15.2-45.6s22.8-13.3,35.5-10.8s21.5,13.3,29.2,15.2s24.1-8.2,34.9-9.5
	s31,0,39.3-3.2c8.3-3.2,30.4-10.1,51.3-8.2c22.2-14.6,179.3-129.3,187.6-121.7c8.2,7.6-17.7,30.4-17.7,30.4s10.1-1.9,2.5,7
	c-7.6,8.9-27.2,31.1-27.2,31.1s8.2,0.6,1.9,6.3s-52.6,48.2-121,69.1c-22.2,48.8-36.1,71.6-68.4,80.5c-4.4,8.9-27.2,15.8-23.5,7.6
	c-16.5,3.8-46.3,6.3-72.2-18.4c-13.3-10.8-15.2-19-20.9-19S661.6,1454.5,661.5,1446.7z"/>
<path class="st0" d="M776.2,1417.5c-18.3,5.3-39.9,29.2-17.1,38c-0.6,18.4-12.8,27-22.2,27.8c20.3,10.4,81.8,26.1,124.9-29
	C881.4,1422.6,871.9,1389.7,776.2,1417.5z"/>
<path class="st6" d="M955.5,1407c0,0-27.1,38-131.2,49.8c-19,8.2-74.2,7.6-74.5-9.2c9.2,7.9,70.7,14.6,78.9-40.4
	c0.6-6.2,30-8.1,27.3-3c10.1-7,22.8-4.8,20.9,0.3c5.2-3.3,18-5.4,16.3-0.3c2.7-3.2,18.7-4,17.3,0.5c6.5-4.1,24.7-5.1,20.6,1.3
	C938.1,1402,960,1402.2,955.5,1407z"/>
<path class="st0" d="M825.1,1395.1c-6.2-0.2-3.4-3.3,12-6.5c15.4-3.2,26.3-3.1,22.8,0c-3.4,3.1-7.1,0.8-18.6,3.7
	S825.1,1395.1,825.1,1395.1z"/>
<path class="st1" d="M675.5,1453.4c-10.1,4.2-25.2,6.1-34.4,11.5c15.4-15.3,44.4-26.7,47-23.9C690.7,1443.8,688,1448.3,675.5,1453.4
	z"/>
<path class="st2" d="M636.4,1469.8c0,0,6.9-16,17.2-26.5c3.6-3.7,10.2-12.7,11.8-10.1s1.9,6,6.8,8.3s15.1-3.6,16.8,0
	c1.6,3.6-12.2,1.7-21,6.1C659.2,1452.1,639.3,1464.4,636.4,1469.8z"/>
<path class="st3" d="M699.8,1427.4c-0.1,4.2-3.6,7.5-7.8,7.4c-4.2-0.1-7.5-3.6-7.4-7.8c0.1-4.1,3.5-7.4,7.6-7.4
	C696.4,1419.6,699.8,1423.1,699.8,1427.4z"/>
<path class="st4" d="M698.7,1427.4c-0.1,3.6-3.1,6.4-6.7,6.3s-6.4-3.1-6.3-6.7c0.1-3.5,3-6.3,6.5-6.3
	C695.8,1420.7,698.7,1423.7,698.7,1427.4z"/>
<path class="st0" d="M693.2,1426.3c0,1.2-0.9,2.1-2.1,2.1s-2.1-0.9-2.1-2.1c0-1.2,0.9-2.1,2.1-2.1l0,0
	C692.3,1424.2,693.2,1425.2,693.2,1426.3z"/>
<path class="st10" d="M657.4,401.2c0,0,2.6-11-1.8-15.8s-8.1-9.2-15.5-16.6s-6.1-21.4-4.9-33.5s-8.4-22.7-8-42.5s4.8-6.1,4.8-6.1
	s1.8-24.3,6.3-42.8s24.5-56,23.1-31.3s-1.7,28.2-1.7,28.2s5.9-27.8,18.8-47.7s21-19.2,20.6-4.3s-13.6,52-13.6,52s18.8-41.5,24.7-52
	s19.5-18.6,13.3,5.8s-20.3,60.8-20.3,60.8s28-44.6,34.6-54.2s18.8-11.1,11.1,15.5s-19.5,54.2-19.5,54.2s26.9-27.4,41.6-37.1
	s14.4,12-4.4,45.9c15.1-7,31.8-11.7,33.2-10.2c-6,7.6-33.2,52.2-61.2,71.4c-11.8,32-18.8,66.3-48.8,65.5S657.4,401.2,657.4,401.2z"
	/>
<path class="st0" d="M717.5,378.4c0,0-19.9-6.1-28.8,3.7c-2.2-2.6,3.7-9.6,3.7-9.6s-14.4,0-15.5,4.8c-5.2-1.9,0-8.5,0-8.5
	s-15.3,6.2-15.6,26.7S723.8,415.2,717.5,378.4z"/>
<path class="st1" d="M804.9,511c0,0-21,23.4-23.6,25.6s-5.5,12.9-2.8,15.4s6.2,6.4,9.8,6.7s6.5,1.2,7.3,2.9s9.8,5.6,13.9-1
	c-5.2,4.2-9.2,0.6-9.2,0.6c0.2-1.7-0.8-3.4-2.5-4c6.4,0.8,6.9-0.5,7.4-2.8c-2.5,3.2-5.9,0.4-5.9,0.4s1.9-0.6,3.1-3.9
	c-2.5,1.7-4,2.3-6.1,1c-2.7-1.6-10.5,0-10.2-5c0.3-4.5,8.7-1,11.4-0.2s4.4-2.4,4.4-2.4s8.4,0.2,7.7,7c3-3.5-3.6-9.7-8.1-9.5
	s-17.7,0.7-13.5-3.7s22-24.2,22-24.2S810.3,506.7,804.9,511z"/>
<path class="st1" d="M792.7,508.5c0,0-19.5,21.8-21.9,23.8s-5.2,12-2.6,14.4s5.8,6,9.1,6.2s0.8-9.9,4.5-11.8s-8.8-3.3-4.9-7.5
	s20.4-22.5,20.4-22.5S797.6,504.5,792.7,508.5z"/>
<path class="st10" d="M765.8,488c0,0-4.5,3.8,11.2,12.2s37.7,20.8,42.2,8.2s10.8-19.8,22-17.5s14.9-3.6,14.9-3.6s9.9,6.2,12.5-1.5
	c7,2.4,9.3-2.3,10.2-4.7c69.9,18.3,124.5,33.6,127,25.1c15.3,4,20.9,2.8,21.2,0.2c17.1,4.5,32.5,5.1,33-0.1
	c34.7,5.3,51.8,6.7,54.9-6.2c0.6-4-29.2-3.2-37.1-3.2c-7.9,0-75.8-7.9-98.8-11.5s-101.4-19.4-115.9-25.5s-45.1-22.2-62.6-18.4
	S763.2,473.3,765.8,488z"/>
<path d="M606,408.4c0.4-3.7,22.6-20,53.9-13.2s36.4,4.6,44.5,0.8s20.2-13,47.5,2.7s39.8,33.7,68.1,44.1s-15.8,62.6-50.5,52.7
	s-42.3-16.7-61.3-23.9s-21.8-11.3-33.3-14s-35.4-18.3-44.6-25.8S605.3,414.6,606,408.4z"/>
<path class="st1" d="M584.4,409.1c0,0,27.1,9.4,30.2,10.5s9.8-4.6,7.4-5.8s-20-8.3-24.1-7.5S585.3,405.7,584.4,409.1z"/>
<path class="st2" d="M578.3,411c0,0,6.8-8.8,15-8.9c8.2-0.1,12.7-0.2,15.9-0.9s6.7-2.9,7.6-1.4s-2.4,3.2-2.4,5.8s9.6,5,9.1,8.6
	s-2.6,0.2-10-2.4S596.1,404.6,578.3,411z"/>
<path class="st0" d="M710.1,410.4c0,0,5.2,3.2,8.8,5.5c-1.5,2.6-3.7,3.1-6.6,4c11.8,0.1,16.6,9.4,18.4,11.9
	c-3.3-1.1-7.4-2.2-7.4-2.2s10,4,11.4,19.2c-2.2,2.6-8.5,0-8.5,0s4,4.8,8.5,4.4c-2.2,2.6-9.6,2.2-9.6,2.2s1.5,3.7,6.6,5.2
	c-0.4,4.8-7,4-7,4s4.5,4.4,3.7,10c-1.8-1.5-6.1-1.8-6.1-1.8s-6.4,2.9,31.1,15.1c-4.4-3.7,0-7,0-7s8.3-0.2,15.8,9.6
	c4,0.7,2.2-4.8,2.2-4.8s6.4-1.1,10.6,7.7c3.1,0.4,3.1-7.7,3.1-7.7s5.1-1.5,8.6,4.4c1.2-2.8,1.2-6,0-8.8c4.6,0.2,9.3,0.1,13.9-0.4
	c-4,1.9-3.3-6.3-3.3-6.3s5.9-6.2,11-3.3c2.6-2.2-2.2-9.2-2.2-9.2s7,0.4,9.2,5.5c3-5.9-11.3-30-25.2-38.3s-29.3-11.3-37-13.4
	c-0.4,2.3,4.9,4,4.9,4s-20,1.5-30.7-4S719.3,411.2,710.1,410.4z"/>
<path d="M708.4,396.4c0,0,12.3-11.5,12.8-38.7c-0.2-10.1,12.3-18.4,24.3-27s28.5-27.5,36.8-39s24.8-29.2,33.2-46.7
	s17.9-39.3,22.1-52.3s8.1-19.6,6.4-3.2s-9.8,39.8-14.5,49.1c13.5-20.6,27.5-42.5,30.2-68s8.3-16.9,7.6,1.7s-12.8,54-25.3,67.5
	c24.1-28,37.6-45,42.7-75.4s8.8,2.9,3.7,21.1s-17.4,40.3-31.2,56c26-24.8,34.2-35.4,42-51.8s17.4-24.1,4.2,11.1
	s-35.1,53.5-35.1,53.5s36.6-23.1,49.6-36.1s-1.7,10.8-15.5,26.5s-20.1,25.5-20.1,25.5s23.8-10.3,36.6-14.7s8.4-0.2-2.9,8.4
	s-26.8,24.3-26.8,24.3s11.5-2.5,20.9-4.2s1.5,8.6-2,12.8c-2.2,2.6-4.6,5.1-7.1,7.4c0,0,5.7-0.2,2,7.6s-8.1,10.2-8.1,10.2
	s3.4,2-0.7,9.1c-2.6,4.4-5.8,8.4-9.6,11.8c0,0,5.2,0,2.5,5.4c-2.1,3.8-4.7,7.2-7.9,10.1c0,0,6.2,2.5,2,8.9c-2.5,3.9-5.9,7.1-9.8,9.6
	c0,0,5.9,1.5,2.5,7.4c-2.4,3.9-5.4,7.5-8.8,10.6c0,0,3.2,6.8,0.2,11.6c-1.8,2.9-4.4,5.1-7.6,6.2c0.4,3.4-0.9,6.8-3.4,9.1
	c-2.5,2.5-6.3,3-9.4,1.3c0,0,2.5,5.2-2,8.1s-11,1.2-11,1.2c-0.2,2.7-2.2,5-4.9,5.4c-3.7,0.4-7.4,0.4-11,0c0,0-3.8,7.3-6.6,3.1
	s-7-11.3-21.1-16.3S746.7,393.3,708.4,396.4z"/>
<path class="st0" d="M785.8,292.8c-1.7,1,27.7-38.1,31.8-46.7s8.8-18.9,13.4-30.9s8.8-27.8,10.3-26.3s-1.2,15.7-4.2,24.3
	s-7.4,21.8-10.8,27.6S789.7,290.3,785.8,292.8z"/>
<path class="st0" d="M799.8,281.5c-1.2,0.4,11.3-16.7,16-22.8s12-13.3,16.9-20.1s10.8-18.4,16-28.2s10.3-26,11.8-34.6
	s4.4-19.6,5.2-13s-1.2,21.1-3.4,29s-6.1,23.3-17,39.8c-7.9,12.1-17.2,23.2-27.7,33.2C811.8,270,802,280.7,799.8,281.5z"/>
<path class="st0" d="M806.7,281.5c-2.2,1.3,0.6-5.2,7-11.1s12.1-11,17.8-16.5s12-13,19.2-20.9s12.8-16.5,18.9-25.6
	c6-8.7,10.5-18.3,13.3-28.5c2.5-9.8,5.7-24.7,6.1-18.5c0.8,9.5-0.4,19.1-3.4,28.2c-3.9,11.1-7.6,19-16,32.2s-11.5,15.7-17.4,21.9
	C846.2,249,814.5,277.1,806.7,281.5z"/>
<path class="st0" d="M809.8,286.6c-3.2,0.5,3.2-6.6,9.8-11.3s16.2-12.8,25.3-20.1c8.3-6.9,16.3-14.2,23.8-21.9
	c6.5-6.4,12.6-13.3,18.2-20.6c6.6-8.6,12-19.4,15.5-25.5s6.9-9.6,4.7-2.5s-3,11.8-9.8,25.1s-10.3,18.4-19.2,29.7s-15.7,17-26.3,22.9
	S815.5,285.6,809.8,286.6z"/>
<path class="st0" d="M813.7,292.8c-1.8-1,3.3-4.4,16-11.3s25.5-16.7,37.8-23.6s17.2-11.5,28-19.4s23.3-20.1,20.6-16
	c-5.4,8.2-11.4,16-17.9,23.3c-8.6,9.6-11.8,16.5-16.9,20.6s-14.7,7.6-32.2,13.8S817.6,295,813.7,292.8z"/>
<path class="st0" d="M817.5,301.6c-0.3-4,6.1-6.9,22.8-13s24.3-9.8,34.9-13s18.9-8.8,27.8-11.3s0.7,4.2-4.4,9.6s-11,9.6-12.8,12.8
	s-13.5,7.8-34.4,10.4S817.6,303.1,817.5,301.6z"/>
<path class="st0" d="M823.1,313.2c-0.4-3.4,5.2-6.4,20.9-9.1s26.5-6.4,37.6-8.4s13-0.2,8.6,6.3s-6.4,10.9-16.5,11.2
	S823.6,317.3,823.1,313.2z"/>
<path class="st0" d="M826.5,322.7c-1.1-4.1,10-3.4,21-3.2s34-5,29.6-0.2s-3.7,9-23.1,8.3S827.8,327.4,826.5,322.7z"/>
<path class="st0" d="M826.5,334.3c-1.3-3.7,5.5-4.2,18.2-3.7s33.2-3.9,27,1.8s-9.6,12.7-24.2,12S829.4,342.4,826.5,334.3z"/>
<path class="st0" d="M635.7,318.3c-0.2,2.1-6.4-12.6-6.4-21.3s1.7-10,3.2-2.1S636.2,313.2,635.7,318.3z"/>
<path class="st0" d="M641.1,303.1c-3.5,5.3-5.9,10.3-6.4-7.1s3.9-48.6,10.8-64.1s13.8-30.2,12.8-13.8s-0.7,26-1.7,30.4
	s-5.4,13.3-8.1,26.5S645.3,296.7,641.1,303.1z"/>
<path class="st0" d="M652.2,297c-4.2-0.3-5.6-0.3-4.2-8.7s3.4-12,9.1-30.9s7.1-26.8,14-42.5s15.2-32.9,20.9-30.4s4.2,11.5,0,25.5
	s-5.9,23.1-17.4,49.5c-5.7,13.9-11.8,15.6-15,25.4S655.4,297.3,652.2,297z"/>
<path class="st0" d="M664.9,298.7c-4.7-0.3-4.4-4.2-2.2-10.3s7.6-16.7,12.5-26s16.7-31,19.5-37.4s18.8-44.4,25.2-42.5
	s-4.7,30.5-9.1,44.2s-9.1,23.1-13.3,32.8s-7.9,12.9-11.8,16.3s-11.3,15.4-13.3,19.1S668.6,298.9,664.9,298.7z"/>
<path class="st0" d="M677.2,304.1c-5-1.4,0.7-9.9,5.4-16s17.2-22.1,21.4-28.6s28.2-47.5,32.2-52.9s14.2-9.8,10.3,4.3
	s-7.6,23.7-14.2,41.9s-8.8,20.4-13,22.3s-15.2,9.4-21.4,14.6s-10.8,9.7-12.5,12.3S680.9,305.1,677.2,304.1z"/>
<path class="st0" d="M691.5,310c-4.2-2.5-4.5-2.8,8.3-12.9s42.7-36.4,53.1-44s27.5-22.9,22.1-8.4c-3.9,10.8-8.5,21.4-13.8,31.7
	c-3.7,7.1-3.4,8.9-24.8,16.8s-30,12.8-34.9,14.9S694,311.4,691.5,310z"/>
<path class="st0" d="M705.2,318.5c-4.3-2.9-2-5.6,13.5-12.5s44-20.4,54.8-24.6s14.7-3.9,9.3,5.2s-12.5,16.2-15.5,19.9
	s-10.8,5.8-29.5,8.5S708.4,320.7,705.2,318.5z"/>
<path class="st0" d="M717.2,329.4c-3.8-3.2,4.9-7.2,15.2-8.4s28.3-7.7,22.8-2.5s-11.9,12.3-18.8,12.6S719.7,331.5,717.2,329.4z"/>
<path class="st0" d="M726.3,338.2c-1-2,10.8-3.3,7.9-1.3S727.3,340.2,726.3,338.2z"/>
<path class="st3" d="M641.5,407.7c-0.1,3.4-3,6.1-6.4,6c-3.4-0.1-6.1-3-6-6.4c0.1-3.4,2.9-6.1,6.2-6
	C638.7,401.4,641.5,404.2,641.5,407.7C641.5,407.7,641.5,407.7,641.5,407.7z"/>
<path class="st4" d="M640.6,407.7c-0.1,2.9-2.5,5.3-5.5,5.2c-2.9-0.1-5.3-2.5-5.2-5.5c0.1-2.9,2.4-5.2,5.3-5.2
	C638.2,402.3,640.6,404.7,640.6,407.7z"/>
<circle class="st0" cx="634.3" cy="406.8" r="1.7"/>
</svg>
