<?xml version="1.0" encoding="utf-8"?>
<!-- Generator: Adobe Illustrator 23.0.2, SVG Export Plug-In . SVG Version: 6.00 Build 0)  -->
<svg version="1.1" id="_ÎÓÈ_1" xmlns="http://www.w3.org/2000/svg" xmlns:xlink="http://www.w3.org/1999/xlink" x="0px" y="0px"
	 viewBox="0 0 609.6 1859" style="enable-background:new 0 0 609.6 1859;" xml:space="preserve">
<style type="text/css">
	.st0{fill:#FFFFFF;}
	.st1{fill:none;stroke:#000000;stroke-width:8.8;stroke-linecap:round;stroke-linejoin:round;}
	.st2{fill:#FFFFFF;stroke:#000000;stroke-width:8.8;stroke-linecap:round;stroke-linejoin:round;}
</style>
<title>2-5</title>
<g>
	<rect class="st0" width="609.6" height="1859"/>
	<line class="st1" x1="322.6" y1="1687.6" x2="143.2" y2="1822.2"/>
	<line class="st1" x1="575.4" y1="1822.2" x2="396.6" y2="1688.1"/>
	<polygon class="st1" points="575.4,1550.4 359.3,1389 143.2,1550.4 143.2,1822.2 575.4,1822.2 	"/>
	<polyline class="st2" points="194.8,1589.9 194.8,36.8 523.7,36.8 523.7,1590.1 	"/>
	<polyline class="st1" points="575.4,1550.4 360,1716.2 143.2,1550.4 	"/>
	<circle class="st2" cx="242.8" cy="82.7" r="20.6"/>
	<rect x="285.1" y="71.9" class="st2" width="130.2" height="21.7"/>
	<rect x="219.9" y="132" class="st2" width="277.2" height="43.4"/>
	<line class="st1" x1="222.2" y1="202.4" x2="335.5" y2="202.4"/>
	<line class="st1" x1="222.2" y1="224.2" x2="335.5" y2="224.2"/>
	<line class="st1" x1="222.2" y1="246" x2="335.5" y2="246"/>
	<line class="st1" x1="222.2" y1="267.9" x2="335.5" y2="267.9"/>
	<line class="st1" x1="222.2" y1="289.7" x2="335.5" y2="289.7"/>
	<line class="st1" x1="222.2" y1="311.5" x2="497.1" y2="311.5"/>
	<line class="st1" x1="222.2" y1="333.4" x2="497.1" y2="333.4"/>
	<line class="st1" x1="222.2" y1="355.2" x2="497.1" y2="355.2"/>
	<line class="st1" x1="222.2" y1="377" x2="497.1" y2="377"/>
	<line class="st1" x1="222.2" y1="398.9" x2="497.1" y2="398.9"/>
	<rect x="358.5" y="202.4" class="st2" width="138.6" height="87.3"/>
	<rect x="219.9" y="442.5" class="st2" width="164.8" height="43.4"/>
	<rect x="222.2" y="512.9" class="st2" width="138.6" height="196.5"/>
	<line class="st1" x1="383.8" y1="512.9" x2="497.1" y2="512.9"/>
	<line class="st1" x1="383.8" y1="534.8" x2="497.1" y2="534.8"/>
	<line class="st1" x1="383.8" y1="556.6" x2="497.1" y2="556.6"/>
	<line class="st1" x1="383.8" y1="578.4" x2="497.1" y2="578.4"/>
	<line class="st1" x1="383.8" y1="600.3" x2="497.1" y2="600.3"/>
	<line class="st1" x1="383.8" y1="622.1" x2="497.1" y2="622.1"/>
	<line class="st1" x1="383.8" y1="643.9" x2="497.1" y2="643.9"/>
	<line class="st1" x1="383.8" y1="665.7" x2="482" y2="665.7"/>
	<line class="st1" x1="383.8" y1="687.6" x2="466.4" y2="687.6"/>
	<rect x="219.9" y="753.1" class="st2" width="251" height="43.4"/>
	<line class="st1" x1="222.2" y1="823.5" x2="457.6" y2="823.5"/>
	<line class="st1" x1="222.2" y1="845.3" x2="415.3" y2="845.3"/>
	<line class="st1" x1="222.2" y1="867.2" x2="486" y2="867.2"/>
	<line class="st1" x1="222.2" y1="889" x2="440.4" y2="889"/>
	<line class="st1" x1="222.2" y1="910.8" x2="440.4" y2="910.8"/>
	<rect x="219.9" y="1063.6" class="st2" width="108.3" height="43.4"/>
	<rect x="219.9" y="937.2" class="st2" width="266" height="100"/>
	<line class="st1" x1="222.2" y1="1134" x2="497.1" y2="1134"/>
	<line class="st1" x1="222.2" y1="1155.9" x2="497.1" y2="1155.9"/>
	<line class="st1" x1="222.2" y1="1177.7" x2="497.1" y2="1177.7"/>
	<line class="st1" x1="222.2" y1="1199.5" x2="497.1" y2="1199.5"/>
	<line class="st1" x1="222.2" y1="1221.4" x2="497.1" y2="1221.4"/>
	<line class="st1" x1="383.8" y1="1243.2" x2="497.1" y2="1243.2"/>
	<line class="st1" x1="383.8" y1="1265" x2="497.1" y2="1265"/>
	<line class="st1" x1="383.8" y1="1286.9" x2="497.1" y2="1286.9"/>
	<line class="st1" x1="383.8" y1="1308.7" x2="497.1" y2="1308.7"/>
	<line class="st1" x1="383.8" y1="1330.5" x2="497.1" y2="1330.5"/>
	<rect x="222.2" y="1243.2" class="st2" width="138.6" height="87.3"/>
	<rect x="219.9" y="1374.2" class="st2" width="266" height="43.4"/>
	<line class="st1" x1="222.2" y1="1444.6" x2="335.5" y2="1444.6"/>
	<line class="st1" x1="222.2" y1="1466.4" x2="335.5" y2="1466.4"/>
	<line class="st1" x1="222.2" y1="1488.3" x2="335.5" y2="1488.3"/>
	<line class="st1" x1="222.2" y1="1510.1" x2="335.5" y2="1510.1"/>
	<line class="st1" x1="222.2" y1="1531.9" x2="335.5" y2="1531.9"/>
	<line class="st1" x1="222.2" y1="1553.7" x2="497.1" y2="1553.7"/>
	<line class="st1" x1="222.2" y1="1575.6" x2="497.1" y2="1575.6"/>
	<line class="st1" x1="222.2" y1="1597.4" x2="497.1" y2="1597.4"/>
	<line class="st1" x1="233.2" y1="1619.2" x2="486" y2="1619.2"/>
	<line class="st1" x1="261.8" y1="1641.1" x2="457.6" y2="1641.1"/>
	<rect x="358.5" y="1444.6" class="st2" width="138.6" height="87.3"/>
</g>
</svg>
