<svg id="_ÎÓÈ_1" data-name="—ÎÓÈ_1" xmlns="http://www.w3.org/2000/svg" viewBox="0 0 440.99 1794.27"><defs><style>.cls-1{fill:#fff;}.cls-1,.cls-2{stroke:#000;stroke-linecap:round;stroke-linejoin:round;stroke-width:8.8px;}.cls-2{fill:none;}</style></defs><title>2-5</title><line class="cls-1" x1="183.78" y1="1655.21" x2="4.4" y2="1789.87"/><line class="cls-1" x1="436.58" y1="1789.87" x2="257.85" y2="1655.69"/><polygon class="cls-2" points="436.58 1518 220.49 1356.66 4.4 1518 4.4 1789.87 436.58 1789.87 436.58 1518"/><polyline class="cls-1" points="56.05 1557.5 56.05 4.4 384.94 4.4 384.94 1557.78"/><polyline class="cls-2" points="436.58 1518 221.26 1683.88 4.4 1518"/><circle class="cls-1" cx="103.98" cy="50.34" r="20.6"/><rect class="cls-1" x="146.29" y="39.49" width="130.24" height="21.71"/><rect class="cls-1" x="81.17" y="99.6" width="277.19" height="43.41"/><line class="cls-1" x1="83.38" y1="170.02" x2="196.75" y2="170.02"/><line class="cls-1" x1="83.38" y1="191.85" x2="196.75" y2="191.85"/><line class="cls-1" x1="83.38" y1="213.68" x2="196.75" y2="213.68"/><line class="cls-1" x1="83.38" y1="235.51" x2="196.75" y2="235.51"/><line class="cls-1" x1="83.38" y1="257.34" x2="196.75" y2="257.34"/><line class="cls-1" x1="83.38" y1="279.17" x2="358.36" y2="279.17"/><line class="cls-1" x1="83.38" y1="301" x2="358.36" y2="301"/><line class="cls-1" x1="83.38" y1="322.83" x2="358.36" y2="322.83"/><line class="cls-1" x1="83.38" y1="344.66" x2="358.36" y2="344.66"/><line class="cls-1" x1="83.38" y1="366.49" x2="358.36" y2="366.49"/><rect class="cls-1" x="219.76" y="170.02" width="138.59" height="87.32"/><rect class="cls-1" x="81.17" y="410.15" width="164.81" height="43.41"/><rect class="cls-1" x="83.38" y="480.57" width="138.59" height="196.47"/><line class="cls-1" x1="244.99" y1="480.57" x2="358.36" y2="480.57"/><line class="cls-1" x1="244.99" y1="502.4" x2="358.36" y2="502.4"/><line class="cls-1" x1="244.99" y1="524.23" x2="358.36" y2="524.23"/><line class="cls-1" x1="244.99" y1="546.06" x2="358.36" y2="546.06"/><line class="cls-1" x1="244.99" y1="567.89" x2="358.36" y2="567.89"/><line class="cls-1" x1="244.99" y1="589.72" x2="358.36" y2="589.72"/><line class="cls-1" x1="244.99" y1="611.55" x2="358.36" y2="611.55"/><line class="cls-1" x1="244.99" y1="633.38" x2="343.27" y2="633.38"/><line class="cls-1" x1="244.99" y1="655.21" x2="327.58" y2="655.21"/><rect class="cls-1" x="81.17" y="720.7" width="250.96" height="43.41"/><line class="cls-1" x1="83.38" y1="791.13" x2="318.84" y2="791.13"/><line class="cls-1" x1="83.38" y1="812.96" x2="276.54" y2="812.96"/><line class="cls-1" x1="83.38" y1="834.79" x2="347.22" y2="834.79"/><line class="cls-1" x1="83.38" y1="856.62" x2="301.67" y2="856.62"/><line class="cls-1" x1="83.38" y1="878.45" x2="301.67" y2="878.45"/><rect class="cls-1" x="81.17" y="1031.26" width="108.29" height="43.41"/><rect class="cls-1" x="81.17" y="904.84" width="266.05" height="100.02"/><line class="cls-1" x1="83.38" y1="1101.68" x2="358.36" y2="1101.68"/><line class="cls-1" x1="83.38" y1="1123.51" x2="358.36" y2="1123.51"/><line class="cls-1" x1="83.38" y1="1145.34" x2="358.36" y2="1145.34"/><line class="cls-1" x1="83.38" y1="1167.17" x2="358.36" y2="1167.17"/><line class="cls-1" x1="83.38" y1="1189" x2="358.36" y2="1189"/><line class="cls-1" x1="244.99" y1="1210.83" x2="358.36" y2="1210.83"/><line class="cls-1" x1="244.99" y1="1232.66" x2="358.36" y2="1232.66"/><line class="cls-1" x1="244.99" y1="1254.49" x2="358.36" y2="1254.49"/><line class="cls-1" x1="244.99" y1="1276.32" x2="358.36" y2="1276.32"/><line class="cls-1" x1="244.99" y1="1298.15" x2="358.36" y2="1298.15"/><rect class="cls-1" x="83.38" y="1210.83" width="138.59" height="87.32"/><rect class="cls-1" x="81.17" y="1341.81" width="266.05" height="43.41"/><line class="cls-1" x1="83.38" y1="1412.23" x2="196.75" y2="1412.23"/><line class="cls-1" x1="83.38" y1="1434.06" x2="196.75" y2="1434.06"/><line class="cls-1" x1="83.38" y1="1455.89" x2="196.75" y2="1455.89"/><line class="cls-1" x1="83.38" y1="1477.72" x2="196.75" y2="1477.72"/><line class="cls-1" x1="83.38" y1="1499.55" x2="196.75" y2="1499.55"/><line class="cls-1" x1="83.38" y1="1521.38" x2="358.36" y2="1521.38"/><line class="cls-1" x1="83.38" y1="1543.21" x2="358.36" y2="1543.21"/><line class="cls-1" x1="83.38" y1="1565.04" x2="358.36" y2="1565.04"/><line class="cls-1" x1="94.45" y1="1586.87" x2="347.22" y2="1586.87"/><line class="cls-1" x1="122.98" y1="1608.7" x2="318.84" y2="1608.7"/><rect class="cls-1" x="219.76" y="1412.23" width="138.59" height="87.32"/></svg>