<svg id="Layer_1" data-name="Layer 1" xmlns="http://www.w3.org/2000/svg" xmlns:xlink="http://www.w3.org/1999/xlink" viewBox="0 0 904.76 1920"><defs><style>.cls-1{fill:url(#linear-gradient);}.cls-2{fill:url(#radial-gradient);}.cls-3{fill:url(#radial-gradient-2);}.cls-4{fill:url(#linear-gradient-2);}.cls-5{fill:url(#linear-gradient-3);}.cls-6{fill:url(#linear-gradient-4);}.cls-7{fill:url(#linear-gradient-5);}.cls-8{fill:url(#linear-gradient-6);}.cls-9{fill:url(#linear-gradient-7);}.cls-10{fill:url(#linear-gradient-8);}.cls-11{fill:url(#linear-gradient-9);}.cls-12{fill:url(#linear-gradient-10);}.cls-13{fill:url(#linear-gradient-11);}.cls-14{fill:url(#linear-gradient-12);}.cls-15{fill:url(#linear-gradient-13);}.cls-16{fill:url(#linear-gradient-14);}.cls-17{fill:url(#linear-gradient-15);}.cls-18{fill:url(#linear-gradient-16);}.cls-19{fill:url(#linear-gradient-17);}.cls-20,.cls-21,.cls-22,.cls-23,.cls-24,.cls-25,.cls-26,.cls-27,.cls-28,.cls-37,.cls-38,.cls-39,.cls-40{fill-rule:evenodd;}.cls-20{fill:url(#linear-gradient-18);}.cls-21{fill:url(#linear-gradient-19);}.cls-22{fill:url(#radial-gradient-3);}.cls-23{fill:url(#linear-gradient-20);}.cls-24{fill:url(#linear-gradient-21);}.cls-25{fill:url(#linear-gradient-22);}.cls-26{fill:url(#linear-gradient-23);}.cls-27{fill:url(#linear-gradient-24);}.cls-28{fill:url(#linear-gradient-25);}.cls-29{fill:url(#linear-gradient-26);}.cls-30{fill:url(#linear-gradient-27);}.cls-31{fill:url(#linear-gradient-28);}.cls-32{fill:url(#linear-gradient-29);}.cls-33{fill:url(#linear-gradient-30);}.cls-34{fill:url(#linear-gradient-31);}.cls-35{fill:url(#linear-gradient-32);}.cls-36{fill:url(#linear-gradient-33);}.cls-38{fill:url(#linear-gradient-34);}.cls-39{fill:url(#linear-gradient-35);}.cls-40{fill:url(#linear-gradient-36);}.cls-41{fill:url(#linear-gradient-37);}.cls-42{fill:url(#linear-gradient-38);}.cls-43{fill:url(#radial-gradient-4);}.cls-44{fill:url(#radial-gradient-5);}.cls-45{fill:url(#linear-gradient-39);}.cls-46{fill:url(#linear-gradient-40);}.cls-47{fill:url(#linear-gradient-41);}.cls-48{fill:url(#linear-gradient-42);}</style><linearGradient id="linear-gradient" x1="-126.06" y1="864.87" x2="-91.1" y2="935.63" gradientTransform="translate(1640.43 560.43) rotate(90)" gradientUnits="userSpaceOnUse"><stop offset="0" stop-color="#535353"/><stop offset="0.07" stop-color="#606060"/><stop offset="0.2" stop-color="#717171"/><stop offset="0.29" stop-color="#777"/><stop offset="0.39" stop-color="#707070"/><stop offset="0.55" stop-color="#5c5c5c"/><stop offset="0.73" stop-color="#3b3b3b"/><stop offset="0.94" stop-color="#0d0d0d"/><stop offset="1"/></linearGradient><radialGradient id="radial-gradient" cx="60.38" cy="781.7" r="95.48" gradientTransform="translate(1640.43 560.43) rotate(90)" gradientUnits="userSpaceOnUse"><stop offset="0" stop-color="#a8a8a8"/><stop offset="1"/></radialGradient><radialGradient id="radial-gradient-2" cx="63.39" cy="780.43" r="94.15" gradientTransform="translate(1640.43 560.43) rotate(90)" gradientUnits="userSpaceOnUse"><stop offset="0" stop-color="#a8a8a8"/><stop offset="0.02" stop-color="#a5a5a5"/><stop offset="0.37" stop-color="#5f5f5f"/><stop offset="0.66" stop-color="#2b2b2b"/><stop offset="0.88" stop-color="#0c0c0c"/><stop offset="1"/></radialGradient><linearGradient id="linear-gradient-2" x1="19.97" y1="760.98" x2="67.86" y2="889.83" gradientTransform="translate(1640.43 560.43) rotate(90)" gradientUnits="userSpaceOnUse"><stop offset="0" stop-color="#777"/><stop offset="0.29" stop-color="#a8a8a8"/><stop offset="0.56" stop-color="#535353"/><stop offset="1"/></linearGradient><linearGradient id="linear-gradient-3" x1="-399.79" y1="996.69" x2="-58.86" y2="996.69" gradientTransform="translate(1640.43 560.43) rotate(90)" gradientUnits="userSpaceOnUse"><stop offset="0"/><stop offset="0.09" stop-color="#1f1f1f"/><stop offset="0.31" stop-color="#686868"/><stop offset="0.47" stop-color="#969696"/><stop offset="0.55" stop-color="#a8a8a8"/><stop offset="1" stop-color="#eee"/></linearGradient><linearGradient id="linear-gradient-4" x1="-559.4" y1="1072.38" x2="-378.66" y2="1018.95" xlink:href="#linear-gradient-3"/><linearGradient id="linear-gradient-5" x1="1.98" y1="1122.18" x2="239.71" y2="888.24" gradientTransform="translate(1640.43 560.43) rotate(90)" gradientUnits="userSpaceOnUse"><stop offset="0"/><stop offset="0.21" stop-color="#383838"/><stop offset="0.45" stop-color="#747474"/><stop offset="0.63" stop-color="#9a9a9a"/><stop offset="0.73" stop-color="#a8a8a8"/><stop offset="0.79" stop-color="#aeaeae"/><stop offset="0.86" stop-color="silver"/><stop offset="0.95" stop-color="#dcdcdc"/><stop offset="1" stop-color="#eee"/></linearGradient><linearGradient id="linear-gradient-6" x1="-35.2" y1="1065.66" x2="165.58" y2="869.72" gradientTransform="translate(1640.43 560.43) rotate(90)" gradientUnits="userSpaceOnUse"><stop offset="0"/><stop offset="0.06" stop-color="#0d0d0d"/><stop offset="0.27" stop-color="#3b3b3b"/><stop offset="0.45" stop-color="#5c5c5c"/><stop offset="0.61" stop-color="#707070"/><stop offset="0.71" stop-color="#777"/><stop offset="0.75" stop-color="#7d7d7d"/><stop offset="0.81" stop-color="#8f8f8f"/><stop offset="0.88" stop-color="#ababab"/><stop offset="0.96" stop-color="#d3d3d3"/><stop offset="1" stop-color="#eee"/></linearGradient><linearGradient id="linear-gradient-7" x1="126.31" y1="895.31" x2="62.61" y2="959.55" gradientTransform="translate(1640.43 560.43) rotate(90)" gradientUnits="userSpaceOnUse"><stop offset="0" stop-color="#777"/><stop offset="0.15" stop-color="#5c5c5c"/><stop offset="0.41" stop-color="#343434"/><stop offset="0.65" stop-color="#181818"/><stop offset="0.85" stop-color="#060606"/><stop offset="1"/></linearGradient><linearGradient id="linear-gradient-8" x1="126.22" y1="895.21" x2="62.52" y2="959.45" xlink:href="#linear-gradient-7"/><linearGradient id="linear-gradient-9" x1="125.92" y1="894.92" x2="62.22" y2="959.16" xlink:href="#linear-gradient-7"/><linearGradient id="linear-gradient-10" x1="62.79" y1="960.23" x2="128.38" y2="892.49" gradientTransform="translate(1640.43 560.43) rotate(90)" gradientUnits="userSpaceOnUse"><stop offset="0"/><stop offset="0.06" stop-color="#0d0d0d"/><stop offset="0.27" stop-color="#3b3b3b"/><stop offset="0.45" stop-color="#5c5c5c"/><stop offset="0.61" stop-color="#707070"/><stop offset="0.71" stop-color="#777"/><stop offset="1" stop-color="#777"/></linearGradient><linearGradient id="linear-gradient-11" x1="62.44" y1="959.88" x2="128.02" y2="892.15" xlink:href="#linear-gradient-10"/><linearGradient id="linear-gradient-12" x1="61.86" y1="959.32" x2="127.44" y2="891.59" xlink:href="#linear-gradient-10"/><linearGradient id="linear-gradient-13" x1="48.15" y1="1123.46" x2="165.76" y2="1007.73" xlink:href="#linear-gradient-3"/><linearGradient id="linear-gradient-14" x1="97.52" y1="1167.41" x2="148.48" y2="1117.26" xlink:href="#linear-gradient-3"/><linearGradient id="linear-gradient-15" x1="107.62" y1="1124.97" x2="167.42" y2="1066.11" xlink:href="#linear-gradient-3"/><linearGradient id="linear-gradient-16" x1="-577.78" y1="1569.65" x2="-5.96" y2="1006.94" xlink:href="#linear-gradient-3"/><linearGradient id="linear-gradient-17" x1="-4.54" y1="1095.56" x2="127.68" y2="965.45" xlink:href="#linear-gradient-3"/><linearGradient id="linear-gradient-18" x1="233.49" y1="1243.69" x2="463.81" y2="1243.69" gradientTransform="translate(1640.43 560.43) rotate(90)" gradientUnits="userSpaceOnUse"><stop offset="0" stop-color="#777"/><stop offset="1"/></linearGradient><linearGradient id="linear-gradient-19" x1="250.8" y1="1138.62" x2="499.16" y2="1209.58" gradientTransform="translate(1640.43 560.43) rotate(90)" gradientUnits="userSpaceOnUse"><stop offset="0" stop-color="#eee"/><stop offset="0.05" stop-color="#dcdcdc"/><stop offset="0.14" stop-color="silver"/><stop offset="0.21" stop-color="#aeaeae"/><stop offset="0.27" stop-color="#a8a8a8"/><stop offset="0.51" stop-color="#878787"/><stop offset="0.83" stop-color="#626262"/><stop offset="1" stop-color="#535353"/></linearGradient><radialGradient id="radial-gradient-3" cx="395.19" cy="885.24" r="202.76" gradientTransform="matrix(-0.02, 1, -1, -0.02, 1653.19, 583.75)" xlink:href="#radial-gradient"/><linearGradient id="linear-gradient-20" x1="314.13" y1="1071.73" x2="466.97" y2="1071.73" xlink:href="#linear-gradient-18"/><linearGradient id="linear-gradient-21" x1="292.32" y1="1177.91" x2="436.67" y2="1205.16" xlink:href="#linear-gradient"/><linearGradient id="linear-gradient-22" x1="261.54" y1="1258.87" x2="175.53" y2="1665.27" gradientTransform="translate(1640.43 560.43) rotate(90)" gradientUnits="userSpaceOnUse"><stop offset="0" stop-color="#eee"/><stop offset="0.45" stop-color="#a8a8a8"/><stop offset="0.53" stop-color="#969696"/><stop offset="0.69" stop-color="#686868"/><stop offset="0.91" stop-color="#1f1f1f"/><stop offset="1"/></linearGradient><linearGradient id="linear-gradient-23" x1="587.59" y1="982.38" x2="690.85" y2="1206.11" gradientTransform="translate(1640.43 560.43) rotate(90)" gradientUnits="userSpaceOnUse"><stop offset="0" stop-color="#eee"/><stop offset="0.05" stop-color="#dcdcdc"/><stop offset="0.14" stop-color="silver"/><stop offset="0.21" stop-color="#aeaeae"/><stop offset="0.27" stop-color="#a8a8a8"/><stop offset="0.44" stop-color="#9a9a9a"/><stop offset="0.75" stop-color="#757575"/><stop offset="1" stop-color="#535353"/></linearGradient><linearGradient id="linear-gradient-24" x1="670.63" y1="1215.19" x2="727.88" y2="1254.7" gradientTransform="translate(1640.43 560.43) rotate(90)" gradientUnits="userSpaceOnUse"><stop offset="0" stop-color="#535353"/><stop offset="0.2" stop-color="#3c3c3c"/><stop offset="0.53" stop-color="#1b1b1b"/><stop offset="0.81" stop-color="#070707"/><stop offset="1"/></linearGradient><linearGradient id="linear-gradient-25" x1="655.98" y1="930.25" x2="757.79" y2="1172.19" gradientTransform="translate(1640.43 560.43) rotate(90)" gradientUnits="userSpaceOnUse"><stop offset="0" stop-color="#eee"/><stop offset="0.04" stop-color="#d3d3d3"/><stop offset="0.12" stop-color="#ababab"/><stop offset="0.19" stop-color="#8f8f8f"/><stop offset="0.25" stop-color="#7d7d7d"/><stop offset="0.29" stop-color="#777"/><stop offset="0.53" stop-color="#707070"/><stop offset="0.88" stop-color="#5c5c5c"/><stop offset="1" stop-color="#535353"/></linearGradient><linearGradient id="linear-gradient-26" x1="866.49" y1="1080.92" x2="802.79" y2="1145.16" gradientTransform="matrix(0.41, -0.91, -0.91, -0.41, 1217.72, 2509.37)" xlink:href="#linear-gradient-7"/><linearGradient id="linear-gradient-27" x1="866.4" y1="1080.83" x2="802.7" y2="1145.07" gradientTransform="matrix(0.41, -0.91, -0.91, -0.41, 1217.72, 2509.37)" xlink:href="#linear-gradient-7"/><linearGradient id="linear-gradient-28" x1="866.1" y1="1080.54" x2="802.4" y2="1144.77" gradientTransform="matrix(0.41, -0.91, -0.91, -0.41, 1217.72, 2509.37)" xlink:href="#linear-gradient-7"/><linearGradient id="linear-gradient-29" x1="802.97" y1="1145.85" x2="868.56" y2="1078.11" gradientTransform="matrix(0.41, -0.91, -0.91, -0.41, 1217.72, 2509.37)" xlink:href="#linear-gradient-10"/><linearGradient id="linear-gradient-30" x1="802.62" y1="1145.49" x2="868.19" y2="1077.77" gradientTransform="matrix(0.41, -0.91, -0.91, -0.41, 1217.72, 2509.37)" xlink:href="#linear-gradient-10"/><linearGradient id="linear-gradient-31" x1="802.04" y1="1144.94" x2="867.62" y2="1077.21" gradientTransform="matrix(0.41, -0.91, -0.91, -0.41, 1217.72, 2509.37)" xlink:href="#linear-gradient-10"/><linearGradient id="linear-gradient-32" x1="597.8" y1="1036.07" x2="656.66" y2="1190.08" gradientTransform="translate(1640.43 560.43) rotate(90)" gradientUnits="userSpaceOnUse"><stop offset="0" stop-color="#a8a8a8"/><stop offset="0.27" stop-color="#878787"/><stop offset="0.56" stop-color="#6b6b6b"/><stop offset="0.81" stop-color="#595959"/><stop offset="1" stop-color="#535353"/></linearGradient><linearGradient id="linear-gradient-33" x1="590.28" y1="1029.59" x2="666.5" y2="1203.25" gradientTransform="translate(1640.43 560.43) rotate(90)" gradientUnits="userSpaceOnUse"><stop offset="0" stop-color="#eee"/><stop offset="0.09" stop-color="#dcdcdc"/><stop offset="0.27" stop-color="silver"/><stop offset="0.43" stop-color="#aeaeae"/><stop offset="0.54" stop-color="#a8a8a8"/><stop offset="0.83" stop-color="#868686"/><stop offset="1" stop-color="#777"/></linearGradient><linearGradient id="linear-gradient-34" x1="586.61" y1="1188.79" x2="668.06" y2="1648.09" xlink:href="#linear-gradient-22"/><linearGradient id="linear-gradient-35" x1="761.55" y1="1091.29" x2="876.59" y2="1209.02" xlink:href="#linear-gradient-22"/><linearGradient id="linear-gradient-36" x1="737.52" y1="1114.77" x2="852.56" y2="1232.5" xlink:href="#linear-gradient-22"/><linearGradient id="linear-gradient-37" x1="909.66" y1="1032.94" x2="872.48" y2="1055.36" xlink:href="#linear-gradient-3"/><linearGradient id="linear-gradient-38" x1="844.16" y1="957.51" x2="885.24" y2="1040.67" gradientTransform="matrix(0.54, -0.84, -0.84, -0.54, 992.21, 2750.11)" gradientUnits="userSpaceOnUse"><stop offset="0"/><stop offset="0.06" stop-color="#0d0d0d"/><stop offset="0.27" stop-color="#3b3b3b"/><stop offset="0.45" stop-color="#5c5c5c"/><stop offset="0.61" stop-color="#707070"/><stop offset="0.71" stop-color="#777"/><stop offset="0.8" stop-color="#717171"/><stop offset="0.93" stop-color="#606060"/><stop offset="1" stop-color="#535353"/></linearGradient><radialGradient id="radial-gradient-4" cx="1167.5" cy="897.3" r="136.74" gradientTransform="matrix(0.54, -0.84, -0.84, -0.54, 992.21, 2750.11)" xlink:href="#radial-gradient"/><radialGradient id="radial-gradient-5" cx="1162.75" cy="895.3" r="168.12" gradientTransform="matrix(0.54, -0.84, -0.84, -0.54, 992.21, 2750.11)" xlink:href="#radial-gradient-2"/><linearGradient id="linear-gradient-39" x1="1034.82" y1="826.13" x2="1091.09" y2="977.55" gradientTransform="matrix(0.54, -0.84, -0.84, -0.54, 992.21, 2750.11)" gradientUnits="userSpaceOnUse"><stop offset="0"/><stop offset="0.44" stop-color="#535353"/><stop offset="0.71" stop-color="#a8a8a8"/><stop offset="1" stop-color="#535353"/></linearGradient><linearGradient id="linear-gradient-40" x1="917.01" y1="1086.04" x2="1013.26" y2="1086.04" xlink:href="#linear-gradient-22"/><linearGradient id="linear-gradient-41" x1="872.07" y1="1105.72" x2="1349.43" y2="1522.87" xlink:href="#linear-gradient-22"/><linearGradient id="linear-gradient-42" x1="966.21" y1="1229.66" x2="1342.24" y2="1478.13" xlink:href="#linear-gradient"/></defs><title>6-4</title><path class="cls-1" d="M799.63,564.08c18-11.7,20-24.65,20-24.65L712.22,332s-1.7-3.41-21.6,2.84-27.94,25.58-27.94,25.58l92.8,207.36S776.5,579.13,799.63,564.08Z"/><path class="cls-2" d="M885.75,604c-23-57-66.12-64.59-66.12-64.59s-2,13-20,24.65c-23.13,15-44.15,3.74-44.15,3.74s-19.67,42.06,12.73,90.48C816.74,730.83,912.29,669.81,885.75,604Z"/><path class="cls-3" d="M826.71,666.21q6.39-1.92,12-4.24c.68.83,1.35,1.65,2.06,2.48a.85.85,0,0,0,1.2.09.84.84,0,0,0,.09-1.2c-.58-.69-1.14-1.38-1.72-2.06a113.41,113.41,0,0,0,12.82-6.45c.84,1.08,1.68,2.13,2.51,3.15A.85.85,0,1,0,857,656.9c-.78-.95-1.57-1.94-2.36-2.95a101.5,101.5,0,0,0,10.66-7.41c.44,1.25.89,2.51,1.31,3.78a.85.85,0,1,0,1.62-.54c-.49-1.47-1-2.93-1.52-4.38a93.57,93.57,0,0,0,7.4-6.79c.37,1.54.7,3.08,1,4.64a.85.85,0,0,0,1,.67.84.84,0,0,0,.67-1c-.36-1.94-.81-3.86-1.3-5.77a80.61,80.61,0,0,0,6.6-8c.41,2.31.76,4.66,1,7.06a.84.84,0,0,0,.92.77.86.86,0,0,0,.77-.92,85.1,85.1,0,0,0-1.29-8.9,47.08,47.08,0,0,0,3.5-6,.85.85,0,1,0-1.56-.68,40,40,0,0,1-2.44,4.35,90.47,90.47,0,0,0-3.3-11.26c2.46-2.86,3.75-4.69,3.81-4.77a.86.86,0,0,0-.22-1.19.84.84,0,0,0-1.18.22c0,.07-1.1,1.55-3.08,3.9a102.1,102.1,0,0,0-5.9-12.58c3.39-3.26,5.29-5.41,5.36-5.5a.85.85,0,0,0-.08-1.2.86.86,0,0,0-1.21.08c-.07.08-1.82,2.07-4.94,5.1a133.59,133.59,0,0,0-25.55-31.37c2.31-2.5,3.52-4.12,3.57-4.18a.86.86,0,0,0-.18-1.2.87.87,0,0,0-1.2.19c0,.06-1.21,1.62-3.45,4-3.13-2.82-6.11-5.27-8.81-7.36,1.54-1.44,2.4-2.34,2.44-2.38a.85.85,0,1,0-1.24-1.17s-.95,1-2.56,2.5a116.76,116.76,0,0,0-11-7.54.86.86,0,0,0-1.16.32.91.91,0,0,0-.11.42.85.85,0,0,0,.43.74,118.92,118.92,0,0,1,10.59,7.22c-1.33,1.2-3,2.63-4.92,4.17-5.63-5.75-9.45-9-9.59-9.16a.85.85,0,0,0-1.2.09.89.89,0,0,0-.2.56.81.81,0,0,0,.3.64c.13.12,3.85,3.33,9.34,8.93-2.08,1.61-4.44,3.32-7,5-4.1-4.66-6.71-7.21-6.8-7.3a.85.85,0,0,0-1.45.61.87.87,0,0,0,.26.62c.1.09,2.6,2.53,6.54,7a89.87,89.87,0,0,1-11.39,6.13c-2.22-4.45-3.52-7.17-3.58-7.3a.85.85,0,0,0-1.62.37.83.83,0,0,0,.08.37c.06.12,1.35,2.82,3.55,7.23a68.94,68.94,0,0,1-10.14,3.39c-1.46-5.25-2-8.32-2-8.43a.86.86,0,0,0-1.7.14.77.77,0,0,0,0,.15c0,.11.57,3.21,2,8.52q-1.24.27-2.49.48a.85.85,0,0,0-.71.84.76.76,0,0,0,0,.15.85.85,0,0,0,1,.69c.9-.15,1.79-.32,2.68-.52.88,3,2,6.71,3.52,10.86-.23,0-.45.1-.68.15a.85.85,0,0,0-.68.83,1,1,0,0,0,0,.17.85.85,0,0,0,1,.67c.31-.06.62-.14.92-.21a227.5,227.5,0,0,0,17.33,36.5c-1.71.38-3.43.72-5.18,1a.86.86,0,0,0-.73.84s0,.09,0,.13a.85.85,0,0,0,1,.71c2-.29,3.93-.68,5.86-1.12,2.89,4.85,6.09,9.83,9.65,14.89a92.26,92.26,0,0,1-11.38,2.6.85.85,0,0,0-.71.84.71.71,0,0,0,0,.14.85.85,0,0,0,1,.7A94.39,94.39,0,0,0,828,648.07c3,4.13,6.14,8.32,9.59,12.53-3.54,1.43-7.3,2.77-11.32,4a.85.85,0,0,0-.61.82,1,1,0,0,0,0,.24A.85.85,0,0,0,826.71,666.21Zm26.87-13.62c-2.76-3.61-5.55-7.51-8.32-11.62a113.15,113.15,0,0,0,14.27-8.9q2.72,6.18,5.14,12.79A102.9,102.9,0,0,1,853.58,652.59Zm-1.15-38.85a256.46,256.46,0,0,0-21.95-33.68c2.81-1.92,5.35-3.86,7.57-5.72a202.73,202.73,0,0,1,23.28,32.81C858.64,609.3,855.66,611.53,852.43,613.74Zm9.73-5.09a141.36,141.36,0,0,1,6.56,13.7c-2.5,2.29-5.33,4.69-8.49,7.09q-3.36-7.43-7-14.19C856.47,613,859.46,610.8,862.16,608.65ZM851,614.7a122.82,122.82,0,0,1-16.53,9.3c-7.51-12.46-14.43-25.14-19.74-35.3A92.82,92.82,0,0,0,829.07,581,254.31,254.31,0,0,1,851,614.7Zm.8,1.5c2.42,4.54,4.77,9.3,7,14.28a110.06,110.06,0,0,1-14.52,9.07c-3-4.55-6-9.29-8.94-14.09A123.36,123.36,0,0,0,851.82,616.2Zm14.24,27.51c-1.6-4.36-3.32-8.6-5.12-12.68,3.13-2.36,5.95-4.74,8.45-7a112.45,112.45,0,0,1,4.18,12.67A95.49,95.49,0,0,1,866.06,643.71Zm15.57-16.92a77.22,77.22,0,0,1-6.69,8.42,114.82,114.82,0,0,0-4.21-12.42c3.09-2.89,5.64-5.56,7.62-7.79A88.91,88.91,0,0,1,881.63,626.79Zm-3.93-13.62c-1.93,2.21-4.48,4.94-7.65,7.93a141.84,141.84,0,0,0-6.55-13.53c3.25-2.64,6-5.13,8.3-7.26A99.81,99.81,0,0,1,877.7,613.17Zm-6.77-14.38c-2.23,2.11-5,4.61-8.27,7.27a204.57,204.57,0,0,0-23.31-32.82c2.44-2.12,4.49-4.1,6.13-5.79A131.58,131.58,0,0,1,870.93,598.79Zm-35.62-39.91c2.71,2.09,5.73,4.56,8.91,7.42-1.6,1.65-3.59,3.59-6,5.66-2.88-3.3-5.59-6.22-8-8.75C832.22,561.6,833.94,560.11,835.31,558.88Zm-6.45,5.39c2.44,2.53,5.18,5.47,8.08,8.79-2.2,1.84-4.71,3.76-7.5,5.66-2.84-3.64-5.45-6.78-7.68-9.36C824.38,567.63,826.76,565.9,828.86,564.27Zm-8.54,6c2.23,2.57,4.85,5.72,7.7,9.38A90.74,90.74,0,0,1,814,587.19c-2.1-4-3.91-7.59-5.4-10.54A91.78,91.78,0,0,0,820.32,570.29Zm-23.76,10.54a70.3,70.3,0,0,0,10.44-3.5c1.47,2.94,3.29,6.5,5.38,10.51a84,84,0,0,1-12.28,3.86C798.61,587.54,797.44,583.87,796.56,580.83Zm4.12,12.49a86.15,86.15,0,0,0,12.49-4c5.31,10.15,12.23,22.85,19.75,35.34a90.43,90.43,0,0,1-14.84,5.09A226.77,226.77,0,0,1,800.68,593.32Zm18.32,38a92.51,92.51,0,0,0,14.81-5.15c2.93,4.83,5.94,9.59,9,14.16a97.85,97.85,0,0,1-14.18,5.75C825.06,641.05,821.88,636.12,819,631.31Zm10.66,16.21a99.7,99.7,0,0,0,14.07-5.77c2.79,4.14,5.6,8.08,8.38,11.72a112.7,112.7,0,0,1-12.92,6.44Q834.06,653.67,829.66,647.52Z"/><path class="cls-4" d="M864,567.82s-34.09,49-113.53,44.87c0,0-2.69,10.55,4,17.42,0,0,87.32,4.07,119.9-48.49C874.28,581.62,872.36,571.9,864,567.82Z"/><path d="M718.08,474.07c5-18.87,17.27-77.05,17.84-86.72s.15-49.44.15-49.44,1-54.66-.11-69.92-39.55-63-58.29-76.34c-11.94-8.51-20.89-22.19-25.82-31-13.56,10.31-65.69,47.64-115.73,53,3.73,15.34,9.35,39.64,12.23,58,4.55,29,2.28,52.86,9.67,71.26s26.4,28.83,26.4,28.83c5.44,22.09,26,22.71,26,22.71,10.3,22.76,30.85,22.2,30.85,22.2,7,42.69,33.18,33.79,33.18,33.79s-1,13.95-.9,19.44,5,22.3,18.06,29.66S713.09,492.94,718.08,474.07Z"/><path class="cls-5" d="M691.57,499.58c-7.79-4.39-12.67-12.14-15.36-18.85,8.61,8.27,18.91,16.64,23,14,7.69-4.8,17.9-42.63,23.87-78.44s.66-129.58,0-139.82c-1.7-26.43-41-58-51.15-70.77-6.47-8.15-20.63-25.68-30.27-37.75,4.37-3,7.83-5.6,10.14-7.36,4.93,8.82,13.88,22.5,25.82,31C696.41,205,734.89,252.74,736,268s.11,69.92.11,69.92.42,39.78-.15,49.44-12.86,67.85-17.84,86.72S704.62,506.94,691.57,499.58ZM610.38,394.49c10.3,22.76,30.85,22.2,30.85,22.2,7,42.69,33.18,33.79,33.18,33.79s-16.93-9-22-19.64a63.74,63.74,0,0,1-6-19.19s-19.18,1.71-31.12-21.74c0,0-17.87.38-24.3-24.3,0,0-21.74-12.79-26.43-29.84-2.94-10.69-9.23-28.1-13.52-39.58,1.37,18.2,1.8,33.83,7,46.76,7.39,18.41,26.4,28.83,26.4,28.83C589.86,393.87,610.38,394.49,610.38,394.49Z"/><path d="M625.1,0s22.73,78.44,22.44,90.94a52.33,52.33,0,0,1-6.31,22.74l14,44.33s-71.56,58-133.56,56.27l-18-40.92s-16.67-12.79-25.2-24.73S400.61,0,400.61,0Z"/><path class="cls-6" d="M655.24,158l-14-44.33a52.33,52.33,0,0,0,6.31-22.74C647.83,78.44,625.1,0,625.1,0H595.27l30.38,101.74c-9.09,13.07-70.48,49.73-70.48,49.73,31.83-7.67,62.52-24.72,62.52-24.72l17.25,45.86C647.52,164.27,655.24,158,655.24,158Z"/><path class="cls-7" d="M627.67,551.11s113.19,113.27,130.1,131.32c15.87,16.94,12.39,27.05,4.36,35.16S675.23,788,666.25,795s-17.86,10.26-30.18-1.1C624.92,783.63,489.42,657,483.49,650.7c-8.6-9.12-8.19-16.78-2.18-26,4.58-7.06,93.17-93,98.54-98.41s13.44-7.52,20.43-2.15S627.67,551.11,627.67,551.11Z"/><path class="cls-8" d="M762.13,717.59c8-8.11,11.51-18.22-4.36-35.16-16.91-18-130.1-131.32-130.1-131.32s-20.4-21.61-27.39-27-15-3.22-20.43,2.15c-1.06,1.07-5.39,5.3-11.68,11.44,26.41,25.55,174,168.51,175.91,174.37,1.54,4.59,4,9.89,2,19.16C754.22,724.59,760.21,719.54,762.13,717.59Z"/><path class="cls-9" d="M724.68,670a3.5,3.5,0,0,1,.94-2.58c1.24-1.25,3.46-1.29,6.25-.1a26.85,26.85,0,0,1,7.85,5.57c4,4,6.59,8.44,6.59,11.45a3.54,3.54,0,0,1-.94,2.58c-2.75,2.78-9.32-.74-14.11-5.46C727.26,677.53,724.68,673,724.68,670Z"/><path class="cls-10" d="M702.81,648.15a3.56,3.56,0,0,1,.94-2.58c1.24-1.25,3.46-1.29,6.25-.1a27,27,0,0,1,7.86,5.57c4,4,6.58,8.44,6.58,11.46a3.53,3.53,0,0,1-.94,2.57c-2.75,2.78-9.32-.74-14.11-5.46C705.39,655.66,702.81,651.16,702.81,648.15Z"/><path class="cls-11" d="M680.46,625.4a3.54,3.54,0,0,1,.94-2.58c1.24-1.25,3.46-1.29,6.25-.1a27,27,0,0,1,7.86,5.57c4,4,6.58,8.44,6.58,11.45a3.54,3.54,0,0,1-.94,2.58c-2.75,2.78-9.32-.74-14.11-5.46C683.05,632.91,680.46,628.41,680.46,625.4Z"/><path class="cls-12" d="M745.16,686.3c-2,2-7.71-.44-12.81-5.47s-7.61-10.74-5.63-12.74,7.71.44,12.81,5.47S747.15,684.29,745.16,686.3Z"/><path class="cls-13" d="M723.3,664.43c-2,2-7.72-.44-12.82-5.47s-7.61-10.74-5.63-12.74,7.72.44,12.81,5.47S725.28,662.42,723.3,664.43Z"/><path class="cls-14" d="M701,641.68c-2,2-7.72-.44-12.82-5.47s-7.61-10.74-5.63-12.74,7.72.44,12.81,5.47S702.93,639.67,701,641.68Z"/><path d="M298.93,243.73c20.25,32.31,59.42,79.34,91.69,116.44s126.53,84.39,149.82,96.22,58.76,18.28,68.44,30.1S629.45,524.12,631,533.8a27.11,27.11,0,0,1-3.32,17.31s-18.43-20.54-27-20-18.08,3.81-17.67,8.33,17,54.55,27.36,77.41,40.43,80.38,39.36,89-7.39,14.94-18.75,11.77-35.92-39.19-35.92-39.19l-21.42-35.18s23.53,45.95,31,59.12,12,30.5,10.44,36.56c-2.15,8.19-12.93,16.11-25.9,4.66a122.72,122.72,0,0,1-15.54-16.13s-5.88,7.37-13,6.86S534.11,722.37,523.71,707c0,0-4.14,8.1-13.64,3.85s-35.85-30.78-39.61-35.65-32.39-48.19-41-61.05S371.27,562.29,361.6,544s-24.45-62-32.55-71.64S156.25,326.3,129.37,305.87,0,172.61,0,172.61V0H154.45s32.44,41.15,53.94,86.31S260.56,182.52,298.93,243.73Z"/><path class="cls-15" d="M615.09,738.9c1.6-6.06-3-23.4-10.44-36.56s-31-59.12-31-59.12L551,589.17s25.06,75.32,25.06,76,30.64,55.61,34.27,66.11c2.24,6.46-2.26,12.85-8.11,18C608.9,749.16,613.73,744.09,615.09,738.9Z"/><path class="cls-16" d="M482.55,654.68S494,676.46,498.07,682.5s22.58,23,22.38,24.52c-.11.8-3.19,3.27-7.05,4.91A9.78,9.78,0,0,0,523.71,707s-21.6-24.11-25.23-28.35S482.55,654.68,482.55,654.68Z"/><path class="cls-17" d="M529.72,661.19s9.48,23.53,21.31,43.69c4,6.88,17.14,19.47,17.14,22.17,0,2.86-4.17,5.28-8.7,7.06a11.58,11.58,0,0,0,1.17.18c7.13.51,13-6.86,13-6.86s-16.1-18.68-20.95-26.58S529.72,661.19,529.72,661.19Z"/><path class="cls-18" d="M625.81,538.64a26.89,26.89,0,0,1-1.08,9.34c1.82,1.88,2.94,3.13,2.94,3.13A27.11,27.11,0,0,0,631,533.8c-1.54-9.68-12.43-35.48-22.11-47.31s-45.16-18.27-68.44-30.1-117.56-59.13-149.82-96.22S319.18,276,298.93,243.73c-38.37-61.21-69-112.27-90.54-157.42S154.45,0,154.45,0H122.83C149.29,34.42,189.46,88.66,210,126.32c32.25,59.14,121.76,189.5,172.82,241.1,34.22,34.59,70.45,52.21,98.65,70.15,46.45,29.57,109.93,47.31,118.26,53.76S625.28,530.84,625.81,538.64Z"/><path class="cls-19" d="M607.54,626.13c8.87,19.08,36.13,71.49,36.21,82.38,0,5-3.7,8-8,9.87,8.39.43,13.12-5.24,14-12.56,1.07-8.6-29-66.12-39.36-89S583.43,544,583,539.43c-.25-2.81,3.35-5.15,8.17-6.64-4-.86-9.3-.32-11.88,7.19C574.88,552.88,598.67,607,607.54,626.13Z"/><path class="cls-20" d="M372.65,1024.14c-12.83-2.69-12.44-56.38.87-119.92S408,791.34,420.85,794,433.28,850.41,420,914,385.47,1026.83,372.65,1024.14Z"/><path class="cls-21" d="M491.34,1058.54s80.5-65.11,60.05-232.57L420.85,794c12.83,2.69,12.43,56.38-.87,119.92s-34.51,112.88-47.33,110.19Z"/><path class="cls-22" d="M550.8,1027.31s116.47,65.2,177.18,34.13,65.29-137.63,7.64-164.66c-53.17-24.93-149-22.12-149-22.12L566,970.43Z"/><path class="cls-23" d="M550.8,1027.31c-8.51-2-7.39-37.78,2.49-79.94s24.8-74.71,33.31-72.71,7.39,37.78-2.49,79.94S559.31,1029.31,550.8,1027.31Z"/><path class="cls-24" d="M387.81,964.32,324.88,952c-22.95-67.58,20.59-101.67,20.59-101.67l64.21,13.5s8.16,8.94.29,49.73C400.83,960.92,387.81,964.32,387.81,964.32Zm146.34,29.06,19.67,3.89s14.35-2.47,23.75-42.75c8.89-38.1,0-55.07,0-55.07l-23.2-4.91C552.64,935.89,544.27,968.5,534.15,993.38Z"/><path d="M367.33,854.59a62.21,62.21,0,0,0-4.05-36.42c-8.33-19.31-20.23-58.86-47.64-58.86S275.32,775,275.32,775s-35.95-.38-54,15.46-48.88,6-76-.5S0,719,0,719V912.82s86.83,11.12,112.13,30,26.88,20.2,32.42,29.4,10.84,20.75,19.4,24,17.5-3.09,24.8,9.23,18.05,22.75,36.58,22.71,31.72,4.49,43.48,10.9,27.66-10.19,37.45-20.24,36.48-7.41,49.08-8.7,23.4-11.58,20.78-33.59S355.15,895.58,367.33,854.59Z"/><path class="cls-25" d="M0,719v25c33.79,16.43,186.74,88.37,219.69,60.5,28.45-24.07,60.2-20.23,60.2-20.23s23.12-16.12,38.31-15,45,58.06,45.08,78.49a196.48,196.48,0,0,0,1.24,20,93.16,93.16,0,0,1,2.81-13.11,62.21,62.21,0,0,0-4.05-36.42c-8.33-19.31-20.23-58.86-47.64-58.86S275.32,775,275.32,775s-35.95-.38-54,15.46-48.88,6-76-.5S0,719,0,719Z"/><path class="cls-26" d="M527.31,1318.16,693,1250.3s18.16-22.34,2.56-52c0,0-109.89-90.56-118-96.76-8.84-6.73-9.74-11.67-26.49-6s-208.89,79.8-208.89,79.8-9,3.62-14.91,19.36c-4.82,12.9-6,19.35-4.44,25.8S471,1345.72,471,1345.72Z"/><path class="cls-27" d="M471,1345.72c7.06-15.29,15.28-40.32,5.18-59.52,0,0-93.48-84-127.26-113.34l-6.78,2.52s-9,3.62-14.91,19.36c-4.82,12.9-6,19.35-4.44,25.8S471,1345.72,471,1345.72Z"/><path class="cls-28" d="M693,1250.3s17.16-21.12,3.78-49.55l-220.6,85.45c10.1,19.2,1.88,44.23-5.18,59.52l56.27-27.56Z"/><path class="cls-29" d="M561.59,1282.74a3.54,3.54,0,0,0-.2,2.74c.62,1.65,2.63,2.59,5.66,2.65a27,27,0,0,0,9.45-1.85c5.26-2,9.46-5,10.7-7.76a3.52,3.52,0,0,0,.2-2.73c-1.37-3.66-8.8-3.15-15.11-.8C567,1277,562.82,1280,561.59,1282.74Z"/><path class="cls-30" d="M532.68,1293.72a3.54,3.54,0,0,0-.2,2.74c.62,1.65,2.63,2.59,5.66,2.65a26.69,26.69,0,0,0,9.44-1.85c5.27-2,9.47-5,10.71-7.75a3.5,3.5,0,0,0,.19-2.74c-1.36-3.66-8.8-3.15-15.1-.8C538.11,1287.94,533.91,1291,532.68,1293.72Z"/><path class="cls-31" d="M503,1305.31a3.53,3.53,0,0,0-.19,2.74c.61,1.65,2.62,2.59,5.65,2.65a27,27,0,0,0,9.45-1.85c5.27-2,9.47-5,10.7-7.76a3.47,3.47,0,0,0,.2-2.73c-1.36-3.67-8.8-3.15-15.1-.8C508.4,1299.52,504.2,1302.56,503,1305.31Z"/><path class="cls-32" d="M587,1276.29c-1-2.64-7.22-2.76-13.93-.26s-11.35,6.67-10.36,9.31,7.22,2.76,13.93.26S587.93,1278.94,587,1276.29Z"/><path class="cls-33" d="M558,1287.27c-1-2.64-7.22-2.76-13.93-.26s-11.35,6.67-10.36,9.31,7.22,2.76,13.92.26S559,1289.92,558,1287.27Z"/><path class="cls-34" d="M528.33,1298.86c-1-2.64-7.23-2.76-13.93-.26s-11.35,6.66-10.37,9.31,7.22,2.76,13.93.26S529.31,1301.5,528.33,1298.86Z"/><polygon class="cls-35" points="552.92 1126.61 636.09 1196.38 499.91 1249.44 423.45 1176.22 552.92 1126.61"/><polygon class="cls-36" points="552.75 1127.66 634.32 1196.09 500.13 1248.37 425.13 1176.55 552.75 1127.66"/><path class="cls-37" d="M459.45,1205.86c5.43-4.77,9.28-31.28-7.28-42-13.28-8.61-43.4-.82-58.27,9.66s-37.36,10.59-45,9.65-39.71-5.41-60.55,11.29-44.49,19.38-83.73,14S0,1185.19,0,1185.19v213.5s163.6-34.51,199.77-38.57,57.78-7.66,81.09,4.6,20.75,13.27,30.43,16a30.13,30.13,0,0,0,18.29-1s19.2,16.07,33.7,19.35,30.62-12.67,30.62-12.67,48.76,23.32,58.83,20.9,19.4-23.58,19.4-23.58,23.32,7,33.81,2.81,15.79-9.13,19.38-17.36,2-50.92,2-50.92-29,14.41-37,11.24-52.12-41.91-57.83-54.26S418.85,1241.42,459.45,1205.86Z"/><path class="cls-38" d="M0,1185.19v19.3c39,3.71,188.2,17.87,209.2,19.28,24.19,1.61,47.57,4.83,64.51-8.07s48.38-23.38,74.18-21.77,41.13-4,60.48-17.74c13.4-9.49,34.77-10.48,46.64-10.18a23.1,23.1,0,0,0-2.84-2.17c-13.28-8.61-43.4-.82-58.27,9.66s-37.36,10.59-45,9.65-39.71-5.41-60.55,11.29-44.49,19.38-83.73,14S0,1185.19,0,1185.19Z"/><path class="cls-39" d="M505.94,1386.44c10.48-4.23,15.79-9.13,19.38-17.36s2-50.92,2-50.92-1.47.73-3.84,1.83c-1.17,12.23-4.37,42.77-7.7,49.19-4.19,8.06-16.55,13.44-20.85,13.44s-22.79,1-22.79,1S495.45,1390.67,505.94,1386.44Z"/><path class="cls-40" d="M452.73,1407.21c10.07-2.42,19.4-23.58,19.4-23.58l-8.45-4.78s-6.2,21-13.82,22.58-56-15.12-56-15.12S442.66,1409.63,452.73,1407.21Z"/><path d="M608.75,1462.85s4.43-29-15.34-30.78c-15.35-1.35-29,25.58-24.58,49.68C568.83,1481.75,604.26,1473.18,608.75,1462.85Z"/><path class="cls-41" d="M605.68,1466.68a11.31,11.31,0,0,0,3.07-3.83s4.43-29-15.34-30.78c-6.79-.6-13.24,4.34-17.94,12.12,6.89-4,15.09-7.23,20.78-4.73C605.37,1443.48,605.88,1459.84,605.68,1466.68Z"/><path class="cls-42" d="M764.18,1399.35c10.38,23,4.17,37.05,4.17,37.05L496.72,1595.73s-3.85,2.3-19.58-16.49-11.45-43-11.45-43l257.16-168.54S750.82,1369.8,764.18,1399.35Z"/><path class="cls-43" d="M874.72,1414.37c-58.94,41.89-106.37,22-106.37,22s6.21-14.09-4.17-37.05c-13.36-29.55-41.33-31.67-41.33-31.67s7.18-54.09,69.91-81.49C886.75,1245.15,942.66,1366.08,874.72,1414.37Z"/><path class="cls-44" d="M854.27,1315.32a1,1,0,0,0-.19.21,1,1,0,0,0,.09,1.2c3.21,3.74,6.08,7.45,8.67,11.11q-9.11,3-17.43,6.33a106.07,106.07,0,0,0-10.23-10.49,1,1,0,0,0-1.41.07,1.13,1.13,0,0,0-.1.13,1,1,0,0,0,.18,1.29,107.76,107.76,0,0,1,9.61,9.78c-6.73,2.75-13.05,5.65-19,8.61-1.64-1.65-3.32-3.27-5.09-4.81a1,1,0,0,0-1.41.09.47.47,0,0,0-.09.12,1,1,0,0,0,.18,1.29c1.57,1.37,3.06,2.8,4.52,4.26a266.67,266.67,0,0,0-40.28,25.14c-.26-.26-.51-.53-.78-.79a1,1,0,0,0-1.42,0,.79.79,0,0,0-.12.15,1,1,0,0,0,.15,1.26l.57.58c-4.09,3.17-7.56,6-10.36,8.51-.76-.76-1.53-1.49-2.32-2.21a1,1,0,0,0-1.42.07,1.13,1.13,0,0,0-.1.13,1,1,0,0,0,.17,1.29c.74.66,1.46,1.35,2.17,2-4.83,4.32-7.35,7-7.44,7.14a1.13,1.13,0,0,0-.1.13,1,1,0,0,0,1.58,1.22c.09-.1,2.58-2.79,7.35-7.06a79,79,0,0,1,7.9,9.78c-5,3-8,4.82-8.1,4.91a1,1,0,0,0-.32.31,1,1,0,0,0,0,1.07,1,1,0,0,0,1.38.32c.13-.09,3.14-2,8.17-5a105.29,105.29,0,0,1,7.38,13.28c-6.73,1.93-10.75,2.76-10.9,2.79a1,1,0,0,0-.65.44,1,1,0,0,0-.14.74,1,1,0,0,0,1.18.78c.15,0,4.35-.9,11.35-2.91,1.49,3.32,2.74,6.51,3.78,9.42-9,2.06-14.69,2.89-14.89,2.92a1,1,0,0,0-.71.45.94.94,0,0,0-.15.68,1,1,0,0,0,1.13.85c.2,0,6.07-.87,15.29-3,.93,2.75,1.67,5.2,2.23,7.23a135,135,0,0,1-15,.44,1,1,0,0,0-.9.46,1.05,1.05,0,0,0-.16.49,1,1,0,0,0,1,1,136.73,136.73,0,0,0,15.68-.47c.64,2.5.94,4,.95,4.09a1,1,0,0,0,2-.37c0-.07-.29-1.51-.9-3.9,4-.36,8.49-.91,13.38-1.71a61.72,61.72,0,0,1,.85,6.19,1,1,0,0,0,1.07.94,1,1,0,0,0,.93-1.07c0-.09-.18-2.46-.88-6.4a157.12,157.12,0,0,0,45.15-14.86c1.17,5,1.65,8.06,1.67,8.18a1,1,0,0,0,2-.3c0-.13-.54-3.45-1.82-8.83a119.78,119.78,0,0,0,13.81-8.72c.46,3.58.56,5.72.57,5.82a1,1,0,0,0,1,1,1,1,0,0,0,1-1c0-.11-.13-2.75-.74-7.13a108.41,108.41,0,0,0,10.4-9.06,46.75,46.75,0,0,1-.35,5.85,1,1,0,1,0,2,.32,52.22,52.22,0,0,0,.36-8.19,103.15,103.15,0,0,0,6.92-8,1,1,0,0,0-.18-1.41,1,1,0,0,0-1.4.18c-1.74,2.24-3.57,4.34-5.44,6.37a95.36,95.36,0,0,0-1.45-12.12c1.69-1.58,3.35-3.2,4.94-4.88a1,1,0,0,0-1.46-1.38q-1.9,2-3.93,4a108.34,108.34,0,0,0-3-11.4c1.44-1.1,2.86-2.22,4.29-3.37a1,1,0,0,0-1.27-1.56c-1.22,1-2.45,1.95-3.69,2.91a119.42,119.42,0,0,0-5.85-14.09c1.42-.5,2.82-1,4.2-1.42a1,1,0,0,0-.62-1.91q-2.21.72-4.47,1.53a137.85,137.85,0,0,0-8.61-14.5c1-.32,2-.64,3-1a1,1,0,0,0-.58-1.92c-1.22.37-2.41.76-3.61,1.14-2.72-3.88-5.76-7.81-9.17-11.78A1,1,0,0,0,854.27,1315.32Zm25.45,45.28q-6.57,5-13.19,9.41a132,132,0,0,0-8.48-17.85c5.34-2.32,10.58-4.42,15.59-6.24A118.43,118.43,0,0,1,879.72,1360.6Zm-27.2,35.21a238.26,238.26,0,0,1-43.82,17.73c-1-3.26-2.3-6.78-3.87-10.46a301,301,0,0,0,43.07-19.43C849.69,1387.88,851.22,1392,852.52,1395.81Zm-2.87-13.14c5.24-2.94,10.56-6.14,15.91-9.63,1.61,4.38,2.89,8.56,3.91,12.41a166.39,166.39,0,0,1-15.17,9.4C853,1391,851.45,1386.91,849.65,1382.67ZM804,1401.25a107.72,107.72,0,0,0-9.31-16.69c11.7-6.69,26.58-14.86,41.9-22.43a142.39,142.39,0,0,1,10.47,19.67A299.88,299.88,0,0,1,804,1401.25Zm34.39-40c5.93-2.9,11.91-5.7,17.78-8.28a128.84,128.84,0,0,1,8.62,18.17q-8.05,5.28-16,9.69A145,145,0,0,0,838.43,1361.24Zm44.92,13.09a130.65,130.65,0,0,1-12.15,9.88c-1-3.83-2.33-8-3.93-12.28,4.37-2.91,8.75-6,13.1-9.3A108.34,108.34,0,0,1,883.35,1374.33Zm-9,24.49c-.55-3.46-1.37-7.72-2.6-12.54a137.11,137.11,0,0,0,12-9.62,89.87,89.87,0,0,1,1.28,12.58A104.28,104.28,0,0,1,874.34,1398.82Zm-15.78,10.38c-.89-3.53-2.08-7.76-3.61-12.43a166.54,166.54,0,0,0,15-9.25c1.24,5,2,9.29,2.54,12.7A115.2,115.2,0,0,1,858.56,1409.2Zm-46.88,15.86c-.54-2.71-1.31-6-2.39-9.62a241.44,241.44,0,0,0,43.87-17.71c1.53,4.7,2.7,8.93,3.57,12.43A154.64,154.64,0,0,1,811.68,1425.06Zm-17.79-5.49c4-1,8.55-2.13,13.49-3.56,1,3.56,1.8,6.74,2.33,9.38-5,.82-9.5,1.35-13.52,1.71C795.62,1425,794.86,1422.45,793.89,1419.57Zm-4.47-11.42c3.85-1.15,8.41-2.6,13.53-4.41,1.56,3.65,2.83,7.14,3.85,10.36-5,1.44-9.56,2.62-13.57,3.58C792.18,1414.73,790.93,1411.51,789.42,1408.15ZM781,1392.57c3.34-2,7.4-4.36,12-7a105.81,105.81,0,0,1,9.15,16.36c-5.14,1.81-9.73,3.27-13.56,4.4A108.67,108.67,0,0,0,781,1392.57Zm1.16-20.26a96.52,96.52,0,0,1,9.7,11.6c-4.6,2.64-8.66,5-12,7a82.58,82.58,0,0,0-8.12-10.08C774.55,1378.37,778,1375.48,782.14,1372.31ZM824.07,1346a105.47,105.47,0,0,1,11.45,14.44c-15.35,7.6-30.24,15.78-41.93,22.47a99.75,99.75,0,0,0-9.85-11.83A264.37,264.37,0,0,1,824.07,1346Zm20.73-9.44a115.59,115.59,0,0,1,10.39,14.67c-5.9,2.59-11.9,5.4-17.86,8.32a109.61,109.61,0,0,0-11.39-14.48C831.84,1342.15,838.11,1339.28,844.8,1336.56Zm19.24-7a133.19,133.19,0,0,1,8.7,14.56c-5,1.84-10.32,4-15.71,6.3a116.8,116.8,0,0,0-10.27-14.63C852.26,1333.6,858,1331.51,864,1329.56Z"/><path class="cls-45" d="M830.21,1436.4s-2.66-70.15-83.93-116.33c0,0,4-12.15,15-14.74,0,0,87.95,42.61,87.94,124C849.17,1429.29,841.11,1437.69,830.21,1436.4Z"/><path d="M634.32,1501.65c4.1-11.07-7.89-31.23-25.44-21.74s-41.78,31.75-41.78,31.75-2.45-34.87-14.07-48.89-25-9.35-32.84-6-9.82,19.33-9.82,19.33-6.11-16.15-25.83-17.7-24.19,6.25-27.87,24.12c0,0-15.51-14-26.26-12.06s-23.12,18.65-26.34,28.32-17.74,46.49-17.74,46.49-26.7,24-30.24,65.69,3.16,52.56-21.41,83-111,142.63-210.95,226H408.4s51.57-116.47,72.54-145.5,35.08-54.52,52.5-66.94,63.14-39.6,73.46-60.11,9.46-64.8,8.67-81.43S629.66,1514.25,634.32,1501.65Z"/><path class="cls-46" d="M480.94,1573.7S526.85,1544,563.57,1551c0,0,4.44-34.31,25-49.33,15-10.92,28.19-18.91,39.27-20.41-4.67-4-11.29-5.48-19-1.33-17.56,9.49-41.78,31.75-41.78,31.75s-9.11,15.54-8.93,33.56C558.17,1545.22,508.35,1536.31,480.94,1573.7Z"/><path class="cls-47" d="M359.45,1673.44c2.69-12.9.54-35.48,5.44-65.93s29-55.13,29-55.13,4.79-15,9.93-35,27.92-44.5,34.42-41.15,38.25,34.55,39.21,40.3,1.87,48.27-2.37,60-11.89,17.3-11.89,17.3,10.48-3.23,15.11-9.34,9.68-62.93,6.23-71.3-18.9-30.77-18.9-30.77-.42-8.74,5.4-12.06,17.56-2.32,26,0c3.27.9,6.32,3.8,8.84,7,0,.06,6.22,25.86,7.65,36.39s0,31.38,0,31.38,5.29-22.84,5-30.36-5-32.39-5-32.39h0c1.1-5.86,3.22-14.42,6.64-18.41,5.48-6.41,16-3.63,22.44-2.83,4.09.52,12.7,10.64,18.46,18-2-6.34-4.63-12.29-8.06-16.43-11.61-14-25-9.35-32.84-6s-9.82,19.33-9.82,19.33-6.11-16.15-25.83-17.7-24.19,6.25-27.87,24.12c0,0-15.51-14-26.26-12.06s-23.12,18.65-26.34,28.32-17.74,46.49-17.74,46.49-26.7,24-30.24,65.69,3.16,52.56-21.41,83-111,142.63-210.95,226h23.48C278.7,1798.41,356.85,1685.88,359.45,1673.44Z"/><path class="cls-48" d="M206.78,1920c0-1.42-1.63-144.6,43.65-223.08,45-78,176.86-113.78,178.06-114.08l-1.57-6.25c-5,1.26-135.68,36.69-182.08,117.11-42.88,74.32-44.52,204.71-44.52,224,0,1.47,0,2.25,0,2.35Z"/></svg>