<svg version="1.1" id="ëÎÓÈ_1" xmlns="http://www.w3.org/2000/svg" x="0" y="0" viewBox="0 0 1192.7 1859" xml:space="preserve"><style>.st0{fill:#fff}.st1{fill:#1c191c}.st2{fill:#282629}.st3{fill:#9f9c96}.st4{fill:#181616}.st6{fill:#010103}.st7{fill:#fff;stroke-width:1.27}.st10,.st7,.st8{stroke:#000;stroke-miterlimit:10}.st8{fill:#fff;stroke-width:1.2}.st10{stroke-width:.83}</style><path class="st0" d="M0 0h1192.7v1859H0z"/><path class="st1" d="M502.3 1277.5c-2.6 2.1-.5 9.1 4 16.6s12.3 25.7 9.4 28.4c-2.9 2.7-16.6 1.7-17 3.5-4 0-7.1 4.2-7.9 5 6.2-2.9 8.3-1.6 8.3-1.6s2.2 4.4 9.7 1.2c9.6-4 13.6.9 17.6 3 4 2.1 14.7 2.7 16.6 4.3 1.9 1.6 7.8 2.4 10.7 0 5.4 1.6 7.5 4.8 7.5 4.8s1.9-4.4-5.6-7.5c.1-1.6-24.3-6.4-24.1-6.7s11.1 2.3 13 2.9c3.9 1.1 8.5.7 11.6 1.5 4.9 1.3 8.6 1.3 8.6-.1 3.5.8 7.2 2.1 8.9 3.5-1.1-5.4-5.4-6.3-6.4-7-.3-1.8-19.2-2.6-28.8-3.2-9.7-.7-15.5-14.1-18.2-19.6-2.7-5.5-9.1-18.6-11.4-22.9s-3.3-8.6-6.5-6.1z"/><path class="st1" d="M513.8 1282.5c2.5 3.9 15.3 24.6 16.3 29.1s1.4 8.8.7 10.2c-.8 1.4-9.8.4-10.6 2.5-.3.7-3-.8-5.9 3.3 2.8-2.1 4.6-1.1 6.2.4 2 1.6 4.8 1.9 7 .6 2.8-1.5 8-2.3 11.7-2 3.7.3 15.5.7 20.5.9 5 .1 22 4 22.4-1.3 4.1.1 7.2 2 8.3 3.3 1.1 1.4-.7-6.4-9.7-7.8-.8-.8-6.7 0-9.1 0s-15.7.1-20.4-.9c-4.7-1.1-7.6-.9-11.4-6.3s-7.6-13.5-10.8-20.1c-3.2-6.6-4.7-7.9-6.3-10.4-1.6-2.5-4.3-6.3-6.2-5.4-1.8.7-3.7 2.4-2.7 3.9z"/><path d="M589 1214.4s11.1-16.8 14.1-24.1c3-7.4 5.7-22.4 5.7-35.5s.7-35.5 6-42.9c5.3-7.4 8-10.7 15.1-14.4 7.1-3.7 4-15.8-6.7-21.8s-19.4-11.7-35.8-8.7-22.1 11.4-28.5 18.4-11.7 14.4-23.1 40.2c-2.1-1.4-30.3 13.6-66.5 42.2-41.5 21.6-59.1 42.1-73.4 51.1-23.2 14.7 16.7 18.6 25 18.8 2.5 3.7 32.4 15.2 41.1 15.6 5.1.2 11.4 2.6 14.6 8.4 5 9 14.4 12.1 18.6 18.8 5.6 9 11.2 19.8 12.5 16.5.9-2.4 3.5-2.9 7.3-2.6 4.9.4-7.6-16.4-3.8-15.7 2.8.5 9.5 18.6 10.4 16 1.2-3.4 2.7-5 6.1-3.9 3.6 1.3.5-8.9 0-12.4-.5-4 3.4-8.9 6.4-11.9 2.4-2.2 27.8-18.9 54.9-52.1z"/><path class="st1" d="M659.6 1090.5s-22.5 2.3-35 10c-4.4 2.4-5.3 3.8-9 3.9-1.9.1-5.6-1.6-5.6-4.8 0-4.6 10.6-9.1 25.1-11 14.6-1.8 18.4-2.1 24.5 1.9z"/><path class="st2" d="M623.2 1076.3c6.1.3 12.2 1.2 18.2 2.6 5.7 1.4 19.2 3.9 20.8 13-1.4-1.1-1.8-1.2-4.5-2.4s-13.8-2.3-24-.5c-10.5 1.8-16.5 3.4-23.4 8.6 1.8-7.2 4-7.1 7.6-10.1 1.8-1.6-2.2-11.2 5.3-11.2z"/><ellipse class="st3" cx="599.3" cy="1089.1" rx="5.8" ry="5.9"/><ellipse class="st4" cx="599.3" cy="1089.1" rx="5" ry="5.1"/><path class="st0" d="M598.6 1088.3c0 .9.7 1.6 1.6 1.6.9 0 1.6-.7 1.6-1.6 0-.9-.7-1.6-1.6-1.6-.9 0-1.6.7-1.6 1.6z"/><path d="M415.7 1233.3c-50.2-3-78.4 14.7-172.4 12.6-14.6-.3-26-3.2-22.2-6.7-10.5 1.7-20.6 1-18.8-3-10.4.1-17.9-1.4-17.9-5.1 0-2.7 9-1.9 29.1-2.8 62.7-2.7 144.6-10.2 172.7-15.5.2-3.8 11.9-3.8 38.7-8.5-1.2-4.2 35.8 31.7-9.2 29z" stroke="#000" stroke-width=".63" stroke-miterlimit="10"/><path d="M476.1 1171.1s-57 21.7-58 25.6c-10.4 3.6-21.1 7.9-20.8 11.6-26.1 6.7-42.9 12.5-42.2 15.5s28.8-5.2 39.9-9.5c4 3.3 22.3 1.4 30.6-1.9 8 2.9 52.7-42.1 50.5-41.3z"/><path class="st0" d="M463.5 1205.3c-1.5 5.2 6.6 50.1 47.7 55.3s87.5-59.1 85.1-72.5c-2.4-13.4-13.4-14.4-22.8-24.2-9.4-9.7-12-17.2-25-17.5-16.5-.4-31 18.1-48.8 28.6-15.7 9.3-33.5 20.9-36.2 30.3z"/><path class="st6" d="M571.4 1161.4s-4.3 17-25.4 23.7c7.4-8.9 7-15.4 7-15.4s-9.8 26.1-60 20.3c7.3-2 14.5-7.7 17.4-12.5-7.8 8.3-28.1 10.6-35.4 10.8-9.5.3-21.5-1.7-25.1-3.1-6.7 6.4-66.9 34.9-66.9 34.9s109.9 26.2 143.9-15.9c.7 4.7-11.4 13.6-10 17.4 1.9 5.4 61.2-3.5 65.3-56.8 2.5-34.5-10.8-3.4-10.8-3.4z"/><path d="M1137.5 970.9c.2-1.2-.9-3.7-.9-3.7-3.5-10.9-47.6-12.5-65.2-13 39.2-11-14.9-15.5-31-14.2 33-9.5-14.2-13.7-27.3-13.7 18.1-6.8-8-9.9-24.2-9.3 6.3-8.9-11.8-7.4-27.9-6.8 2.1-7.2-12.8-4.1-16.7-2.5-14.4 6.2-31.5 16.6-53.8 25.9S842.7 957 842.7 957v27.4s21.2 12.2 42.2 22.3c12.5 6 30.4 14 41.9 21.6 19.3 12.7 40.5 12.8 34.2 6.9 16.1.6 46.9-1 27.9-8 16.1.6 49.8-3.1 24.2-8 13 0 48-1.8 27.3-12.4 16.1 1.3 67.6-6.3 31-15.4 17.6-.5 61.6-6.1 65.2-17 0 .2 1.1-2.3.9-3.5z"/><path d="M910 965.5s-25.4-25.4-43.2-22.5c18.4-8.2 20.9-18.7 16.8-24.4 6.3-6 2.2-14.9-1.6-19 4.4-3.8 1-10.1-3.8-13.9 5.4-4.4 0-10.1-4.8-13.9 4.1-3.8 2-17.7-8.6-11.7 10.8-8.3-.9-26-7.4-15.5-.8-3.2-50.9-53-101.9-21-2.5 11.1-25.3 33.6 26.6 125.4 7 12 10.1 22.5 4.4 32.6s-44.3 72.8-20.3 130.5c7.6 19 83.3 3.2 98.8-25.7 13.6 8.6 14.7-14 8.2-18 8.5-2.2 11.1-10.1 8.9-15.8 7.9-2.5 9.5-13.3 2.8-19.6 7.6-5.4 2.2-19.3-5.1-25 8.6-2.9 29-26.3 30.2-42.5z"/><path d="M760.2 1052.6s-9.9 38.4-5.7 48.5c-3.8 9.3-10.6 22-14.3 34s-13 27-15.7 30.6c-2.7 3.6 15.5 1.4 23.9-22-1.5 15.9-10.2 33.6-11.9 37.8-1.7 4.2 16.2.4 23.6-23.4-1.2 12.8-3.4 25.5-6.5 38-1.7 7.2 19.6-2.3 20.7-29.6 2.5 16.3 1.5 41.4 8.9 37.6s12.7-25.2 10.3-36.3c4.2 16.5 11 41.4 18.2 34.6s2.4-24.7 0-33.8c5.9 9.5 19.1 30.5 21.2 20.7s2-18.5 0-24.5c5 4.2 10.5 16 12.4 7s2.8-15.4 0-21.5c4 2.3 10.5 7.1 12-1.7 1.5-8.9.4-11.8-1.3-15.2 4.2 2.5 11 4.3 11-6.8s-5.6-14-7.4-16c4.2 1 11.7-3.2 11.1-10.5-.6-7.3-5.6-13.7-5.6-13.7l-104.9-33.8zm2.8-143.5s-20.2-43.6-18.5-56.7c-6-10.5-15.8-24.5-22.3-38.3s-19.3-30.1-22.9-33.9 14.9-4.8 28.8 21.8c-5.3-18.9-18.2-38.5-20.8-43.3s15.8-3.7 28.9 23.7c-4.3-15.2-9.5-30.1-15.6-44.6-3.4-8.3 19.9-1.1 27.5 31.6-1.5-20.1-8.6-50.3-.4-47.2s18.6 27.9 19 41.8c.2-20.7.8-52.2 9.5-45.4s8.3 29.4 8.2 40.8c3.5-12.7 11.4-40.6 15.8-29.2s6.5 22 6 29.6c3.9-6.1 6.5-21.5 10.5-10.9s6.5 18.1 5.2 26c3.4-3.5 8.6-10.7 12.2-.3s3.3 14.2 2.4 18.6c3.5-3.9 9.8-7.3 12.5 6.1s-2.1 18.1-3.4 20.7c3.9-2.1 10.9.6 12.1 9.6.6 6.2.3 12.4-.8 18.5l-93.9 61z"/><path class="st0" d="M869.7 963.9s-8.6 18-25 25.3c5.1 1 12.5-4.4 12.5-4.4s-6.5 80.2-93.9 63.5c-4.8-1.5 23.6-72.6 47.7-75.1-23.4-6.7-58-87.6-56.2-93.1s68-17.2 96.9 54c-4.8-5.1-14.6 0-14.6 0s16.1-4.4 32.6 29.8z"/><path class="st7" d="M735.7 832c2.3-1.3-5.2-22.8-11.8-32.7s-12.6-15.8-17.6-16.8 10.3 14.2 15.1 24.6 11 26.7 14.3 24.9zm6.4-3.4c3.1-.8-.8-28-7-43.1s-18.5-24.5-23.8-25.9 10.1 17.9 14.3 29.8 11.6 40.5 16.5 39.2z"/><path class="st7" d="M749.3 827.1c3.7-1.1 3.1-30 .4-45s-12.6-36.9-21.5-40.2 5.9 25.5 9.4 39.5 4.3 47.9 11.7 45.7z"/><path class="st7" d="M758.3 825.3c5-.7 9.4-34.1 8.2-49.7s-7.9-36.2-14.7-40.8-.1 26.7-.3 43.5-1.2 48.2 6.8 47z"/><path class="st7" d="M766.2 827.4c3.7.9 15.1-28.1 17.5-42.1s-1.4-40.7-7.5-48.6-5.8 23-9.5 44-7.6 44.9-.5 46.7z"/><path class="st7" d="M776.2 829c4.3.8 15.6-30.5 23.1-49.5s4.7-25.3-2.6-33.8-10.9 19.8-16.1 37.5-11.4 44.4-4.4 45.8z"/><path class="st7" d="M787.7 829.4c4.5.4 18.4-20 27.5-39s5.2-21 .4-27.2-10.1 1.1-20.1 26-13.4 39.8-7.8 40.2z"/><path class="st7" d="M800.8 831.6c5.9 3 11.4-1.6 23-19.4s11.7-20.7 8.1-27.3-9.7-10.9-21.5 14.9-14.7 29.2-9.6 31.8zm18.2 3.1c6.4 1.7 10 3.2 18.1-6.4s11-13.3 8-24.3-9.6-4.4-19.7 7.9-12.1 21.3-6.4 22.8zm17.6 6.3c6.3 2.7 6.8 1.9 10.6-.5s5.1-7 1.8-15.1-6.5.1-10 5.2-6.1 8.8-2.4 10.4zM750 1118.8c2.5.7-.6 19-5.1 27.9-4.4 8.9-9.2 14.6-13.9 16.2s7.2-13 10-22 5.5-23.1 9-22.1zm6.9 1.6c3.2.2 4.8 22.4 1.6 35.4-3.2 13-13.2 22.5-18.2 24.4-5 1.9 6.4-15.8 8.2-26 1.8-10.1 3.4-34.1 8.4-33.8z"/><path class="st7" d="M764.2 1120.4c3.8.3 8.9 23.4 9.2 35.7.3 12.4-5.1 31.4-13.1 35.5-8.1 4.1.8-21.2 1.4-32.9s-5.1-38.9 2.5-38.3z"/><path class="st7" d="M773.4 1120.4c5-.2 15.8 25.6 17.7 38.3 1.9 12.7-.6 30.1-6.3 34.8s-5.3-21.2-8.9-34.5-10.6-38.2-2.5-38.6z"/><path class="st7" d="M780.7 1117.5c3.4-1.3 20.2 20 25.3 30.7s6.7 32.6 2.2 39.9-10.2-17.3-17.9-33.5c-7.8-16.2-16.2-34.6-9.6-37.1z"/><path class="st7" d="M790.2 1114.6c4.1-1.4 21.2 21.7 32.3 35.7s9.5 19.4 4.1 27.3c-5.4 7.9-14.6-14.1-23.1-27.3-8.6-13.2-20-33.4-13.3-35.7z"/><path class="st7" d="M801.3 1112.4c4.3-1 21.9 13 34.5 26.6 12.7 13.6 9.2 15.8 5.7 21.5-3.5 5.7-10.1.7-24.7-17.5s-20.9-29.3-15.5-30.6z"/><path class="st7" d="M813.6 1108.6c5.1-3.3 11.4-.6 26.3 11.8s15.5 14.6 13.3 20.4-7.4 10.3-24-8.4c-16.6-18.7-20-20.9-15.6-23.8zm17.2-5.4c5.9-2.4 9.1-4.1 19 2.2s13.3 8.9 12.5 18.1c-.8 9.2-8.5 5-20.8-3.1-12.2-8.1-15.9-15.1-10.7-17.2zm15.9-7.8c5.6-3.1 6.3-2.6 10.5-1.3 4.1 1.3 6.3 4.8 4.8 11.8s-6.3.9-10.8-2.5-7.7-6.2-4.5-8z"/><path d="M712 936.3c8.7-2.8 20.5-4.1 32.8-3.2 12.8 1 20.9-.5 24.7-1.6s15-2 19-1.1c-5.1 1.1-6.5 4.7-6.5 4.7s15-8 28.3 0c-5.7-1-6.1 4.9-6.1 4.9s35.4-12.5 54.1 14c-4.4-4-17.1 2.7-17.1 2.7s12.4-1 23.3 4.7c-5.7 5.3-19.2 7-22.8 7.8 5.5.2 14.9-1.5 14.9-1.5s-5.4 5.2-19.1 12.8-23 8.9-31.7 9.1c2.4 1.8 5.4 2.8 8.5 2.7 0 0-6.1 4.4-12.9 3.8s-21.1-3.8-24.5 5.1-33.2-14.8-39.3-19-7.7-3.4-13.1-4.7c-5.8-1.3-30.2-4.4-32.9-19.4-2.6-9-4.6-13.6 20.4-21.8z"/><path class="st1" d="M665.6 962.5s18.4-11.2 25.8-7.8 13.1 8.7 10.8 12.5-7.2 1.1-11.4 0-19.8-2.2-25.2-4.7z"/><path class="st2" d="M661.5 960.4s6.3-8.5 10.8-9.9 19.4-3 19.4-3 2.3 7.9 7.4 12.1-12.5 2-19.6.8c-5-.9-14.8-1.9-18 0z"/><ellipse class="st3" cx="709.5" cy="952.2" rx="5.4" ry="5.5"/><path class="st4" d="M714.1 952.2c-.1 2.6-2.2 4.6-4.8 4.5-2.6-.1-4.6-2.2-4.5-4.8.1-2.5 2.1-4.5 4.6-4.5 2.7.1 4.7 2.2 4.7 4.8z"/><circle class="st0" cx="708.7" cy="951.5" r="1.5"/><path class="st6" d="M406.3 774.7s-45-123.5-50.5-138.2-7.5-12.4-9.4 0-5 27.7 1.6 43.6 27.1 58.3 27.1 58.3-58.3-96.3-64.8-107.6c-6.5-11.3-10.8-8.4-10.5 7.2s1.7 37.2 6.6 45c4.9 7.8 43 51.9 43 51.9s-77.8-76.7-85.2-87.7c-7.4-11-10.3-5.2-9.4 12.1s7.3 26.2 9.4 31.2c2.1 4.9 70.5 56.2 70.5 56.2s-85.7-59.1-96-71.8-7.8 26 4.6 43c12.4 8.1 76 40.4 76 40.4s-90.1-42.6-99.3-47.7 3.6 24 9 29.5 12 8.1 77.5 30c-73.3-23.7-84.4-27.4-89.8-30.3s.1 19.6 9 25.8 18.8 7.2 73 17.4c-56.8-9.4-78.7-18.1-74.3-5.1s3.1 10.3 60 15.7c-53.3-2.7-59-3.5-58.2 4.7s44.5 11.8 61.4 12.9c17 1.2 118.7-36.5 118.7-36.5zm113.4 113.1s7.8 2.6 14.1 2c6.4-.6 14.6-5.2 22.7-6.1 8.1-.9 30.1-2.3 35.5-4.3 6.1-2.4 11.9-5.6 17.3-9.5 3.8-2.9-5.2 21.6-63.5 45-22.8 10.1-34.1 23.6-64.3 18.9s38.2-46 38.2-46z"/><path class="st0" d="M558.6 887.8c-3-1.2-3.5-2.8 4.5-3.4s22-1 27.6-2.6c5.6-1.6 13.5-5 16.4-8.3-5.6 6.3-12.4 10.4-17.6 11.7s-24.8 5-30.9 2.6z"/><path class="st0" d="M559.5 891.3c2-1.4 3.7-1.6 10.6-1.7 6.9-.1 14.2-1 18.1-2.1 3.3-.8 6.4-2.2 9.2-4.1-9 5.6-11.9 8.5-17.6 9.5-5.8 1.1-24.2 1.3-20.3-1.6z"/><path class="st0" d="M553.7 895c3.3-1.9 4.4-.6 8.7 0 4.2.6 14 .8 19.5-1.1-15.4 8.4-22 7.8-26.9 5.9-4.8-2-4.6-2.8-1.3-4.8z"/><path class="st0" d="M545.7 901c3.9-1.5 4.1-1.4 9.4 1.2 5.3 2.6 11.9.7 14.2 0-14.9 6.8-19.7 8.1-22.6 5.7s-6.5-4.7-1-6.9zm-6.2 3.5c.8 1 3.3 7.8 2.6 9.6-.7 1.8-11.3 7.1-10.3 2.6s1.6-8.3 1.8-9.5c.1-1.1 5.4-3.2 5.9-2.7zm-10.4 5.1c.4 1 .8 7.8 0 10.5s-9.1 5.6-8.8 2.4c.3-3.2.9-7.5 1-9s7.4-4.7 7.8-3.9zm-10.5 6c0 1.3-.6 8.8-1.3 10.7-.7 2-9.7 6-8.4 2.4 1.1-3.1 2-6.3 2.6-9.5.3-2.1 7.1-5 7.1-3.6zm-11.3 5.5c.2 2-3.5 9.1-4.6 10.5s-10.6 2.3-8.5 0 12.8-14.2 13.1-10.5z"/><path class="st6" d="M462.5 945.6c-8.7 8.9-32.8 9.4-32.8 30.6 0 12.9-27.9 4.6-14.9-15.8-7 4.7-21 2.3-18.5-7.9-10.1 9.2-67.6 8.3-70.7-9.9s50.4-30.1 59-33.6 88.3 25.9 77.9 36.6z"/><path class="st6" d="M379.2 940s-47 42.3-56.5 45.4-18 3.7-21.6 1.3c-11.9 2.4-16 2.6-18.4.2-14.7 4.5-21.9 6-25.1 1.7-18.8 5-25.1 6.2-27.9 2.6-24 5-49.3 5.3-30.3-3.6s146.7-65.3 169.6-73.8 13 23.8 10.2 26.2z"/><path class="st6" d="M436.9 842.2c-5.8-5.9-9.6-13.5-10.8-21.7-1.2-10-3.1-18.6-9.1-27.2s-6.1-25.1-33.3-36.8-81.8 38.5-95.5 51c-1.5 1.3-2.2 2.5-2.3 3.5-22.1-1.2-42.6-1.9-49.1-2.7-16.2-2-9.5 14.3 6.5 17.1s67.3 7.1 67.3 7.1-45.6.2-64.4-1.1-14.3 11.5.9 13.4 65.1 3.2 65.1 3.2-44.1.9-59.9.1-10.2 9.5 3.5 11.9c13.6 2.4 64.6 0 64.6 0s-37.6 4.5-55.9 3.9-11.5 6.9 1.5 8.4 61.5-1.5 61.5-1.5-33.6 4.5-48.7 4.8c-15.1.2-15.1 5.4 0 7.8 15.1 2.4 59.1-4.3 59.1-4.3s-30.7 7.8-44.6 8.2-7.4 6.5 4.1 6.7 49.3-6.7 49.3-6.7-30.3 8.4-40 11.2-6.5 5.8 16.2 8c15.9 1.5 41.3.3 55-.6-1.7 3.1-3.5 6.5-5.5 9.9 15.6 2.6 70.7-26.4 78.8-39.6s-10.4-30.1-14.3-34z"/><path class="st0" d="M354.7 655.3c5 4.9 47.5 108.8 49.1 114.8s-14-4.5-18.1-12.7-36.1-75.7-36.1-78.7 2.1-26.3 5.1-23.4zm-38.9-5.6c2.9 3.3 65.4 100.4 68 106.9s-8.7 5.2-12.6 0-60.2-66.6-61.9-74.9 1.7-37.5 6.5-32zm-45.3 12.6c3.9 2.7 92.3 85.5 96.7 91.4s-7.9 7.6-13.3 3.3-83.5-56.6-87.4-64.5-2.4-34.5 4-30.2zm-22.1 26.6c4 2 97.4 68.2 102.2 73.2s-7.2 7.9-12.9 4.6-86.6-42.6-91.1-49.4-4.8-31.7 1.8-28.4zm-14.3 30.7c3.9 1.2 97.9 47 102.9 50.7s-5.4 5.6-11 3.5-84.3-25.4-89.3-31-9.1-25.1-2.6-23.2zm-7.1 27.2c3.6.6 92.3 30.4 97.2 33.2s-4.1 5.6-9.3 4.3c-5.2-1.2-77.8-12.9-82.9-17.2s-11-21.3-5-20.3zm3.8 26.7c3.1.1 79.2 14.3 83.6 16s-2.7 3.3-7.1 2.9-65.3-1.6-70-4.5-11.5-14.5-6.5-14.4zm2.5 20.1c2.7-.2 71.8 5 75.8 6.1s-2.1 3.2-6.1 3.3c-4 .1-58.2-.3-62.6-2.5s-11.6-6.5-7.1-6.9z"/><path class="st1" d="M423.7 980.8c1.6 2.5 26.8 12.2 26.8 13s-4.5 4.5-6.8 5.4c-2-.1-5.4.8-5 4 .5-1.5 2-2.5 3.6-2.3.8 1.9 3.3 1.8 4.6-.2 1.4-1.4 3-2.6 4.8-3.4 1.1-.3 3.5 1.3 4.5 1.8s2.1.3 4.4 1.4 3.1.6 5.4 1.4 4.9 1.1 5.4-1.1c1.5-.8 3.2-.7 4.7.1-1.2-2-3.8-1.9-5.3-1.3-1-.3-2.1-.6-3.2-.8-1.5-.2-3.5-.2-5.1-.6-1.4-.3-2.7-.8-3.9-1.6 2.5 1.1 5.3 1.1 7.8 0 1.9-.7 5.4-2.4 7-2.3s3.3 0 3.5-1.6c1.5-.6 3.3-.3 4.5.8-.8-3-4.2-2.6-5.2-2.1-2.1-1.3-6 .4-8.7 1.5s-4.3 2-8.4 1.4c2.1-.7 4.1-1.5 6-2.6.9-.4 2.1-1.9 1.8-2.6 1.1-1 1.9-2 3.7-1-1.1-1.2-3-1.3-4.2-.2-.1 0-.1.1-.2.1-1.6-.8-6.2 3.6-7.7 4.2-1.7.8-3.7.4-4.9-1.1-1.4-1.8-25-9.3-26.5-11.9s-4.9-.9-3.4 1.6z"/><path class="st1" d="M400.4 960.2c1.6 2.5 26.8 12.2 26.8 13s-4.5 4.5-6.8 5.4c-2-.1-5.4.8-5 4 .5-1.5 2-2.5 3.6-2.3.8 1.9 3.3 1.8 4.6-.2 1.4-1.4 3-2.6 4.8-3.4 1.1-.3 3.5 1.3 4.5 1.8s2.1.3 4.4 1.4 3.1.6 5.4 1.4 4.9 1.1 5.4-1.1c1.5-.8 3.2-.7 4.7 0-1.2-2-3.8-1.9-5.3-1.3-1-.3-2.1-.6-3.2-.8-1.5-.2-3.5-.2-5.1-.6-1.4-.3-2.7-.8-3.9-1.6 2.5 1.1 5.3 1.1 7.8 0 1.9-.7 5.4-2.4 7-2.3s3.3 0 3.5-1.6c1.5-.6 3.3-.3 4.5.8-.8-3-4.2-2.6-5.2-2.1-2.1-1.3-6 .4-8.7 1.5s-4.3 2-8.4 1.4c2.1-.7 4.1-1.5 6-2.7.9-.4 2.2-1.9 1.8-2.6 1.1-1 1.9-2 3.6-1-1.1-1.2-3-1.3-4.2-.2l-.1.1c-1.6-.8-6.2 3.6-7.7 4.2-1.7.8-3.7.4-4.9-1.1-1.4-1.8-25-9.3-26.5-11.9s-5-.7-3.4 1.8z"/><path class="st6" d="M552.9 853.5s-4.3-19.3-20.2-22.5-32.3 3.2-43 11.2-21.6 11-34.6 11.2c5.2 5.8 9.5 17.9 7.5 26.2s-13 45.6-11.2 57.1-5.9 17.3-.2 15.3 29.6-17.6 41.1-25.4 17.6-17 23.1-27.4c5.5-10.4 10.7-17.9 17.6-25.1s17.5-14.1 19.9-20.6z"/><path class="st0" d="M460.8 854.5s-14.1-.8-17.9-5.2c1.1 5.7 11.2 10.5 6 24.2s-44.1 19.3-60.6 45.1 17 31.4 32.6 20.2c-6.1 19.1-3.8 27.9 26.4 12.6 6.7-3.4 37-16.5 28.6-18.4-12.8-2.8-17.6-17.5-16.3-25.5 2.1-12.8 9.8-24.1 7.8-35.1-1.2-7.1-3.4-13.4-6.6-17.9z"/><ellipse class="st3" cx="528.8" cy="846.5" rx="4.9" ry="5.1"/><ellipse class="st4" cx="528.8" cy="846.5" rx="4.2" ry="4.3"/><path class="st0" d="M529.4 845.9c-.1.7-.7 1.3-1.5 1.2-.7-.1-1.2-.6-1.2-1.2-.1-.7.5-1.4 1.2-1.5s1.4.5 1.5 1.2v.3z"/><path class="st1" d="M577.5 862.4s-17.5-2.8-28.4.1c-3.7.8-4.7 1.6-7.5 1-1.5-.3-4-2.2-3.4-4.4.8-3.2 9.6-4.2 21-2.7 11.4 1.6 14.5 2.1 18.3 6z"/><path class="st2" d="M552.5 846.1c4.6 1.4 9 3.2 13.3 5.4 4.1 2.1 13.9 6.5 13.5 13.1-.9-1-1.9-1.9-3-2.6-1.9-1.4-10.1-4.3-18.1-5.1-8.3-.8-13.2-.9-19.3 1.3 2.7-4.6 4.3-4.1 7.5-5.5 1.7-.7.4-8.1 6.1-6.6z"/><path class="st6" d="M429.4 1560.5s33.5 74.9 59.2 124.9 39.3 80.1 57.4 106.8c18.1 26.7-4.8 25.8-21.7 3.4-16.9-22.4-34.6-49.7-34.6-49.7s-8.2 8-21.3-18.4c-13.1-26.4-19.1-39.9-19.1-39.9s-9 3.1-22.8-28.1-36-90.7-40.5-95c-4.5-4.3-9.2-15.8-17.4-18.4s-12.4 13.4-17.6 8.5c-5.2-4.9-27.8-45.6 6.1-24.9s67.1 19.3 72.3 30.8z"/><path class="st1" d="M320.8 1586.8s7.4 1.1 9.5-1.5c2.1-2.6 6.2-8.2 2.3-10.4-4-2.2-12.5-5.8-7.4-7.7 8.3-3.5 16.3-7.6 24-12.3 5.3-3.5 3-9.5-4.3-6.1-7.3 3.4-24.3 11.6-29.3 13.5-5 1.9-6.5 9.9-9.7 12.7s-5.8 5.4 1.8 11.1c7.6 5.8 11.8 11.2 15.5 8.4 6 1 7.4-2.6 6.4-6.9-.5 4-5.3 3.6-5.3 3.6s.7-2-2.3-3.2c-3-1.2-3.5 1-3.5 1-.6-1.5-1.5-2.8-2.7-3.8-1.9-1.6-4.8-2.2-4.7-3.8.3-3.3.9-6.1 3.8-6.4 2.9-.3 7.7 5.7 9.2 4.1-.3 1.9 2 3.4 2 3.4s3.8 2.5-5.3 4.3z"/><path class="st8" d="M285.8 1444.2s-11.8 18.8 6.5 55.2c18.2 36.4 56.6 56 54.9 49.8-1.8-6.2-4.1-16.3 6.7-15.8s30.9 6.8-2.2-35c-33-41.8-63-62.4-65.9-54.2z"/><path class="st6" d="M299.7 1424.5s-21.2 9-15.1 40.2c6.1 31.2 18.1 37 25.2 36.1 8 10.2 22.3 16 24.9 15 10.3 8.2 66.5 37.1 79.2 44.9s28.4 23.1 31.9 20.3c5.2 6.7 15.7 18.5 12-1.7-2.2-12-6-23.6-11.3-34.6 0 0 1.9-5.9-11.8-27.2-13.7-21.4-11-29.4-16.1-37-5.1-7.6-13.3-31.4-30.2-20.4s-78.2-41.7-88.7-35.6z"/><path class="st6" d="M364.3 1417.6s32.8 9.1 34.5 48.7c-33.7-2-103.5-31.3-107-40.8-4.7-13-22.9-1.9-25.4-17.6-1-6.3 24-28.4 44.9-31.7 26.6-4.2 44.2 28.1 51.4 34.5 7.1 6.4-4.8 4.4 1.6 6.9z"/><path class="st8" d="M400.9 1474.5c-2.1 2.6-4.1-30-12.9-39.5 14.8 12.8 25 24.6 12.9 39.5z"/><path class="st1" d="M247.9 1416.7s15.8 2.3 24.1-.1 15.7-.8 15.1-4.1c-.7-3.3-4.3-5.4-11.4-3.7-7 1.6-16-2.2-27.8 7.9z"/><path class="st2" d="M244.6 1418.9s-2.5-3.9 6-9.3 11.5-5 14-6.5 3.6-2.2 5.1-3.2c1.5-1 .6 2.9.8 4.9.1 2 9 .9 11.7 3.5 2.7 2.6-10.9 2.9-13.8 3-3 .1-12.1 1-15.7 2.1-3.8 1.1-6.4 2.2-8.1 5.5z"/><path class="st0" d="M302.4 1427.4c-3.7 2.1-9 6.8-11.1 10.9s54.1 42.5 89 35.9c6.1-.1-27.6-12.1-39.8-21.9s-35-26.7-38.1-24.9z"/><path class="st3" d="M299.4 1397.5c.4 2.8-1.6 5.3-4.4 5.7-2.8.4-5.3-1.6-5.7-4.4-.3-2.7 1.5-5.2 4.3-5.7 2.8-.4 5.4 1.6 5.8 4.4z"/><path class="st4" d="M298.7 1397.6c.3 2.4-1.4 4.6-3.8 4.9s-4.6-1.4-4.9-3.8c-.3-2.4 1.3-4.5 3.7-4.9 2.4-.3 4.7 1.4 5 3.8z"/><path class="st0" d="M294.9 1397.5c.1.8-.4 1.5-1.2 1.6s-1.5-.4-1.6-1.2c-.1-.8.4-1.5 1.2-1.6.8-.1 1.5.4 1.6 1.2z"/><path d="M427.2 119.6c3.3 3.8 17.1 14.6 25.3 51.2S463.2 248 465.2 273s.3 72.2-4 76.2c-.3 9.8-4 8-3.7 12.6s11.6 74 8.6 75.5c3.5 20.3 5 38.7 10 67.5 5 28.8 14.2 57.9 6.9 60.2s-12.3-3.4-12.3-3.4 3.5 27.2 6.1 44.5-1.5 22.2-6.1 22.6-15 2.7-20.3-65.6c-4.2 1.2-11.1 10.3-14.2-25.7-1.5-32.2-9-79.8-9-79.8-7.9 3.8-12.5-35.3-15.5-63.6s-10-60.6-10-60.6-14.6 8.4-49.1-91.2c-8.4-.8-14.6-23.8-16.1-36-10.7 2.3-13-43.7-5.4-66.7 7.7-23 72.5-46.8 96.1-19.9z"/><path d="M377.2 139.6c15.5-2.9 47.9-20.2 51.8-11.6s4.5 14.8 7.1 17.8 9 10.4 10 27.4c-.4-2-1.4-3.9-2.7-5.6 1 5 .8 10.1-.6 14.9-2.3 8.2 2.5 20.1 3.3 25.7s5.9 15.7 5.6 31.2c-.3-2.5-1.2-4.9-2.7-6.9 0 0 .6 27.6-9 40.8.4-1.9 2.1-10.2 2.1-10.2s-3.2 12.6-9.6 11.3-3.8-8-3.8-8-3.8.4-4.4 3.5c-4.9-4.5-6.6-11.5-4.4-17.8-3.6 4-6.5 5.9-12.3 8.2 1.6-1.6 2.6-3.6 2.9-5.8-2.2 2.2-4.7 4-7.5 5.4-3.1-2.9-4.6-5.8-4.6-7.9-1.3 3.1-3.3 4.2-3.3 5.9s-5.2-1.5-6-5c-.4 5.9-.6 7.1 0 8.4-5.5.6-10.9-3.6-12-6.1-.4 1.3-.4 2.7 0 4 0 0-6-.2-8.5-5 1 5.2 7.1 6.5 7.1 6.5s-5.3 9.7-12.8-.6-18-31.6-23.4-49.6c-5.4-18-19.4-50.6-5-65.9 14.4-15.1 42.7-5 42.7-5z" fill="#fff" stroke="#000" stroke-width="1.25" stroke-miterlimit="10"/><path class="st6" d="M416.3 65.4c-.9-1.1-21-15.8-35.7-13.8S343 64.3 339.9 88.1c-5.8 13.2-8.6 33.4-7.7 49-4.6 20.2-2.6 44.1 10.9 49 6.3 10.9 25 22.7 35.4 6 18.7 11.8 35.1-6.6 35.4-14.7 5.5-1.7 29-24.4 13.5-53.2-7.8-13.5-19.6-16.8-21.9-20.7s-3.2-9.6-2.4-12.1 2.1-8.1 10-10.8 4.2-14.1 3.2-15.2z"/><path class="st1" d="M438.4 70.8s-13.3 7.5-22.8 7.3-24.9 4.8-26.4 0 23-10.4 30-11.2 19.2 3.9 19.2 3.9z"/><path class="st2" d="M440.4 71.2c-2.4-3.7-5.9-6.4-10.1-7.8-7.1-2.4-16.8-2.1-19.3-1.8s.1 1.6 0 3.2-23.3 6.2-22.6 9.8 13.2-2.9 20.3-4 26.4-3.2 31.7.6z"/><path class="st1" d="M434.3 273.4s-1.4 5.9-.6 6.5 1.7-.4 2.9-.5 2.3 4.5 1.3 4.5c.4 2-1.1 6-2 7.4.8-2.4 0-5.8-.7-6.5-.3 1.6-3 .5-3.6-.4s-5.4-1.6-6.6-.3-4.2 7.5-6.8 6c-2.4 1.7-3.5 5-3.2 6.6-3.2-2.6.4-7.8 1.4-8.6-.9-1.4.9-5.4 3.2-6s-1.7-1.4-2.7-.6-7-.2-5.8-2.5c-.9-1.2-4.5 1.2-4.2 4.1-1.6-4.3 3.4-7.4 6.8-6.9s4 2.3 6.6 2.5 8.4.8 8.6-1.3 0-5.6 1.9-5.2 3.7.3 3.5 1.2zm-61.2-9.8s-1.4 5.9-.6 6.5 1.7-.4 2.9-.5 2.3 4.5 1.3 4.5c.4 2-1.1 6-2 7.4.8-2.4 0-5.8-.7-6.5-.3 1.6-3 .5-3.6-.4s-5.4-1.6-6.6-.3-4.2 7.5-6.8 6c-2.4 1.7-3.5 5-3.2 6.6-3.2-2.6.4-7.8 1.4-8.6-.9-1.4.9-5.4 3.2-6s-1.7-1.4-2.7-.6-7-.2-5.8-2.5c-.9-1.2-4.5 1.2-4.2 4.1-1.6-4.3 3.4-7.4 6.8-6.9s4 2.3 6.6 2.5 8.4.8 8.6-1.3 0-5.6 1.9-5.2 3.6.4 3.5 1.2z"/><path class="st3" d="M385 66.8c-.1 3.5-3 6.2-6.5 6.1-3.5-.1-6.2-3-6.1-6.5.1-3.4 2.9-6.1 6.3-6.1 3.5 0 6.3 2.9 6.3 6.5z"/><path class="st4" d="M384.1 66.8c-.1 3-2.6 5.3-5.6 5.3s-5.3-2.6-5.3-5.6c.1-2.9 2.5-5.3 5.4-5.3 3.1.1 5.5 2.5 5.5 5.6z"/><path class="st0" d="M379.5 65.9c0 1-.8 1.7-1.7 1.7-1 0-1.7-.8-1.7-1.7 0-1 .8-1.7 1.7-1.7.9-.1 1.7.7 1.7 1.7z"/><path class="st1" d="M803.4 1495.7s-7.1 8.4-9.3 11.3c-7 .9-24 2.5-26.9 11.5 1.3-1.3 2.8-2.4 4.3-3.4 0 0 0 1.6 3.2.7s9.5-4.5 11.8-3.2c-6.1 5.4-13.8 12.4-12 23.3.2-3.2 2.7-6.6 2.7-6.6s1.8.7 3.6-2 6.1-8.4 10.4-11.5c-2 6.1-5.2 12.9-.9 22.9-1-2.4-.5-5.1 1.1-7 0 0 3.4.4 3.6-2.5s-.7-13.6 3.2-17c3.8-3.4 12.2-6.6 15.4-7.2 1.7-.2 3-1.7 3.1-3.4 0 0 .1-1.6 2.1-1.8-4.8-.9-16.3 3.9-18.3 6.1 5.2-5.7 7.5-8.8 8.6-10.2s-2.5-3.8-5.7 0zm-40.8-11.7s-6.4 7.6-8.5 10.3c-6.4.8-21.7 2.3-24.4 10.5 1.2-1.1 2.5-2.2 3.9-3.1 0 0 0 1.4 2.9.6 2.9-.8 8.6-4.1 10.7-2.9-5.5 4.9-12.5 11.3-10.9 21.1.2-2.9 2.5-5.9 2.5-5.9s1.6.6 3.3-1.9 5.5-7.6 9.4-10.5c-1.8 5.5-4.7 11.7-.8 20.7-.9-2.1-.5-4.6 1-6.4 0 0 3.1.4 3.3-2.3.2-2.7-.6-12.3 2.9-15.4 3.5-3.1 11.1-6 14-6.6 1.6-.2 2.8-1.5 2.8-3.1 0 0 .1-1.4 1.9-1.6-4.3-.8-14.8 3.5-16.6 5.5 4.7-5.1 6.8-8 7.8-9.2s-2.4-3.2-5.2.2z"/><path class="st6" d="M661.5 1446.7c-.1-6 7-36.1 15.2-45.6s22.8-13.3 35.5-10.8 21.5 13.3 29.2 15.2 24.1-8.2 34.9-9.5 31 0 39.3-3.2c8.3-3.2 30.4-10.1 51.3-8.2 22.2-14.6 179.3-129.3 187.6-121.7 8.2 7.6-17.7 30.4-17.7 30.4s10.1-1.9 2.5 7-27.2 31.1-27.2 31.1 8.2.6 1.9 6.3-52.6 48.2-121 69.1c-22.2 48.8-36.1 71.6-68.4 80.5-4.4 8.9-27.2 15.8-23.5 7.6-16.5 3.8-46.3 6.3-72.2-18.4-13.3-10.8-15.2-19-20.9-19s-46.4-3-46.5-10.8z"/><path class="st0" d="M776.2 1417.5c-18.3 5.3-39.9 29.2-17.1 38-.6 18.4-12.8 27-22.2 27.8 20.3 10.4 81.8 26.1 124.9-29 19.6-31.7 10.1-64.6-85.6-36.8z"/><path class="st6" d="M955.5 1407s-27.1 38-131.2 49.8c-19 8.2-74.2 7.6-74.5-9.2 9.2 7.9 70.7 14.6 78.9-40.4.6-6.2 30-8.1 27.3-3 10.1-7 22.8-4.8 20.9.3 5.2-3.3 18-5.4 16.3-.3 2.7-3.2 18.7-4 17.3.5 6.5-4.1 24.7-5.1 20.6 1.3 7-4 28.9-3.8 24.4 1z"/><path class="st0" d="M825.1 1395.1c-6.2-.2-3.4-3.3 12-6.5s26.3-3.1 22.8 0c-3.4 3.1-7.1.8-18.6 3.7s-16.2 2.8-16.2 2.8z"/><path class="st1" d="M675.5 1453.4c-10.1 4.2-25.2 6.1-34.4 11.5 15.4-15.3 44.4-26.7 47-23.9 2.6 2.8-.1 7.3-12.6 12.4z"/><path class="st2" d="M636.4 1469.8s6.9-16 17.2-26.5c3.6-3.7 10.2-12.7 11.8-10.1s1.9 6 6.8 8.3 15.1-3.6 16.8 0c1.6 3.6-12.2 1.7-21 6.1-8.8 4.5-28.7 16.8-31.6 22.2z"/><path class="st3" d="M699.8 1427.4c-.1 4.2-3.6 7.5-7.8 7.4-4.2-.1-7.5-3.6-7.4-7.8.1-4.1 3.5-7.4 7.6-7.4 4.2 0 7.6 3.5 7.6 7.8z"/><path class="st4" d="M698.7 1427.4c-.1 3.6-3.1 6.4-6.7 6.3s-6.4-3.1-6.3-6.7c.1-3.5 3-6.3 6.5-6.3 3.6 0 6.5 3 6.5 6.7z"/><path class="st0" d="M693.2 1426.3c0 1.2-.9 2.1-2.1 2.1s-2.1-.9-2.1-2.1c0-1.2.9-2.1 2.1-2.1 1.2 0 2.1 1 2.1 2.1z"/><path class="st10" d="M657.4 401.2s2.6-11-1.8-15.8-8.1-9.2-15.5-16.6-6.1-21.4-4.9-33.5-8.4-22.7-8-42.5 4.8-6.1 4.8-6.1 1.8-24.3 6.3-42.8 24.5-56 23.1-31.3-1.7 28.2-1.7 28.2 5.9-27.8 18.8-47.7 21-19.2 20.6-4.3-13.6 52-13.6 52 18.8-41.5 24.7-52 19.5-18.6 13.3 5.8-20.3 60.8-20.3 60.8 28-44.6 34.6-54.2 18.8-11.1 11.1 15.5-19.5 54.2-19.5 54.2 26.9-27.4 41.6-37.1 14.4 12-4.4 45.9c15.1-7 31.8-11.7 33.2-10.2-6 7.6-33.2 52.2-61.2 71.4-11.8 32-18.8 66.3-48.8 65.5s-32.4-5.2-32.4-5.2z"/><path class="st0" d="M717.5 378.4s-19.9-6.1-28.8 3.7c-2.2-2.6 3.7-9.6 3.7-9.6s-14.4 0-15.5 4.8c-5.2-1.9 0-8.5 0-8.5s-15.3 6.2-15.6 26.7 62.5 19.7 56.2-17.1z"/><path class="st1" d="M804.9 511s-21 23.4-23.6 25.6-5.5 12.9-2.8 15.4 6.2 6.4 9.8 6.7 6.5 1.2 7.3 2.9 9.8 5.6 13.9-1c-5.2 4.2-9.2.6-9.2.6.2-1.7-.8-3.4-2.5-4 6.4.8 6.9-.5 7.4-2.8-2.5 3.2-5.9.4-5.9.4s1.9-.6 3.1-3.9c-2.5 1.7-4 2.3-6.1 1-2.7-1.6-10.5 0-10.2-5 .3-4.5 8.7-1 11.4-.2s4.4-2.4 4.4-2.4 8.4.2 7.7 7c3-3.5-3.6-9.7-8.1-9.5s-17.7.7-13.5-3.7 22-24.2 22-24.2.3-7.2-5.1-2.9z"/><path class="st1" d="M792.7 508.5s-19.5 21.8-21.9 23.8-5.2 12-2.6 14.4 5.8 6 9.1 6.2.8-9.9 4.5-11.8-8.8-3.3-4.9-7.5 20.4-22.5 20.4-22.5.3-6.6-4.6-2.6z"/><path class="st10" d="M765.8 488s-4.5 3.8 11.2 12.2 37.7 20.8 42.2 8.2 10.8-19.8 22-17.5 14.9-3.6 14.9-3.6 9.9 6.2 12.5-1.5c7 2.4 9.3-2.3 10.2-4.7 69.9 18.3 124.5 33.6 127 25.1 15.3 4 20.9 2.8 21.2.2 17.1 4.5 32.5 5.1 33-.1 34.7 5.3 51.8 6.7 54.9-6.2.6-4-29.2-3.2-37.1-3.2-7.9 0-75.8-7.9-98.8-11.5S877.6 466 863.1 459.9s-45.1-22.2-62.6-18.4-37.3 31.8-34.7 46.5z"/><path d="M606 408.4c.4-3.7 22.6-20 53.9-13.2s36.4 4.6 44.5.8 20.2-13 47.5 2.7 39.8 33.7 68.1 44.1-15.8 62.6-50.5 52.7-42.3-16.7-61.3-23.9-21.8-11.3-33.3-14-35.4-18.3-44.6-25.8-25-17.2-24.3-23.4z"/><path class="st1" d="M584.4 409.1s27.1 9.4 30.2 10.5 9.8-4.6 7.4-5.8-20-8.3-24.1-7.5-12.6-.6-13.5 2.8z"/><path class="st2" d="M578.3 411s6.8-8.8 15-8.9c8.2-.1 12.7-.2 15.9-.9s6.7-2.9 7.6-1.4-2.4 3.2-2.4 5.8 9.6 5 9.1 8.6-2.6.2-10-2.4-17.4-7.2-35.2-.8z"/><path class="st0" d="M710.1 410.4s5.2 3.2 8.8 5.5c-1.5 2.6-3.7 3.1-6.6 4 11.8.1 16.6 9.4 18.4 11.9-3.3-1.1-7.4-2.2-7.4-2.2s10 4 11.4 19.2c-2.2 2.6-8.5 0-8.5 0s4 4.8 8.5 4.4c-2.2 2.6-9.6 2.2-9.6 2.2s1.5 3.7 6.6 5.2c-.4 4.8-7 4-7 4s4.5 4.4 3.7 10c-1.8-1.5-6.1-1.8-6.1-1.8s-6.4 2.9 31.1 15.1c-4.4-3.7 0-7 0-7s8.3-.2 15.8 9.6c4 .7 2.2-4.8 2.2-4.8s6.4-1.1 10.6 7.7c3.1.4 3.1-7.7 3.1-7.7s5.1-1.5 8.6 4.4c1.2-2.8 1.2-6 0-8.8 4.6.2 9.3.1 13.9-.4-4 1.9-3.3-6.3-3.3-6.3s5.9-6.2 11-3.3c2.6-2.2-2.2-9.2-2.2-9.2s7 .4 9.2 5.5c3-5.9-11.3-30-25.2-38.3s-29.3-11.3-37-13.4c-.4 2.3 4.9 4 4.9 4s-20 1.5-30.7-4-15-4.7-24.2-5.5z"/><path d="M708.4 396.4s12.3-11.5 12.8-38.7c-.2-10.1 12.3-18.4 24.3-27s28.5-27.5 36.8-39 24.8-29.2 33.2-46.7 17.9-39.3 22.1-52.3 8.1-19.6 6.4-3.2-9.8 39.8-14.5 49.1c13.5-20.6 27.5-42.5 30.2-68s8.3-16.9 7.6 1.7-12.8 54-25.3 67.5c24.1-28 37.6-45 42.7-75.4s8.8 2.9 3.7 21.1-17.4 40.3-31.2 56c26-24.8 34.2-35.4 42-51.8s17.4-24.1 4.2 11.1-35.1 53.5-35.1 53.5 36.6-23.1 49.6-36.1-1.7 10.8-15.5 26.5-20.1 25.5-20.1 25.5 23.8-10.3 36.6-14.7 8.4-.2-2.9 8.4-26.8 24.3-26.8 24.3 11.5-2.5 20.9-4.2 1.5 8.6-2 12.8c-2.2 2.6-4.6 5.1-7.1 7.4 0 0 5.7-.2 2 7.6s-8.1 10.2-8.1 10.2 3.4 2-.7 9.1c-2.6 4.4-5.8 8.4-9.6 11.8 0 0 5.2 0 2.5 5.4-2.1 3.8-4.7 7.2-7.9 10.1 0 0 6.2 2.5 2 8.9-2.5 3.9-5.9 7.1-9.8 9.6 0 0 5.9 1.5 2.5 7.4-2.4 3.9-5.4 7.5-8.8 10.6 0 0 3.2 6.8.2 11.6-1.8 2.9-4.4 5.1-7.6 6.2.4 3.4-.9 6.8-3.4 9.1-2.5 2.5-6.3 3-9.4 1.3 0 0 2.5 5.2-2 8.1s-11 1.2-11 1.2c-.2 2.7-2.2 5-4.9 5.4-3.7.4-7.4.4-11 0 0 0-3.8 7.3-6.6 3.1s-7-11.3-21.1-16.3-41.6-31.3-79.9-28.2z"/><path class="st0" d="M785.8 292.8c-1.7 1 27.7-38.1 31.8-46.7s8.8-18.9 13.4-30.9 8.8-27.8 10.3-26.3-1.2 15.7-4.2 24.3-7.4 21.8-10.8 27.6-36.6 49.5-40.5 52z"/><path class="st0" d="M799.8 281.5c-1.2.4 11.3-16.7 16-22.8s12-13.3 16.9-20.1 10.8-18.4 16-28.2 10.3-26 11.8-34.6 4.4-19.6 5.2-13-1.2 21.1-3.4 29-6.1 23.3-17 39.8c-7.9 12.1-17.2 23.2-27.7 33.2-5.8 5.2-15.6 15.9-17.8 16.7z"/><path class="st0" d="M806.7 281.5c-2.2 1.3.6-5.2 7-11.1s12.1-11 17.8-16.5 12-13 19.2-20.9 12.8-16.5 18.9-25.6c6-8.7 10.5-18.3 13.3-28.5 2.5-9.8 5.7-24.7 6.1-18.5.8 9.5-.4 19.1-3.4 28.2-3.9 11.1-7.6 19-16 32.2s-11.5 15.7-17.4 21.9c-6 6.3-37.7 34.4-45.5 38.8z"/><path class="st0" d="M809.8 286.6c-3.2.5 3.2-6.6 9.8-11.3s16.2-12.8 25.3-20.1c8.3-6.9 16.3-14.2 23.8-21.9 6.5-6.4 12.6-13.3 18.2-20.6 6.6-8.6 12-19.4 15.5-25.5s6.9-9.6 4.7-2.5-3 11.8-9.8 25.1-10.3 18.4-19.2 29.7-15.7 17-26.3 22.9-36.3 23.2-42 24.2zm3.9 6.2c-1.8-1 3.3-4.4 16-11.3s25.5-16.7 37.8-23.6 17.2-11.5 28-19.4 23.3-20.1 20.6-16c-5.4 8.2-11.4 16-17.9 23.3-8.6 9.6-11.8 16.5-16.9 20.6s-14.7 7.6-32.2 13.8-31.5 14.8-35.4 12.6zm3.8 8.8c-.3-4 6.1-6.9 22.8-13s24.3-9.8 34.9-13 18.9-8.8 27.8-11.3.7 4.2-4.4 9.6-11 9.6-12.8 12.8-13.5 7.8-34.4 10.4-33.8 6-33.9 4.5zm5.6 11.6c-.4-3.4 5.2-6.4 20.9-9.1s26.5-6.4 37.6-8.4 13-.2 8.6 6.3-6.4 10.9-16.5 11.2-50.1 4.1-50.6 0zm3.4 9.5c-1.1-4.1 10-3.4 21-3.2s34-5 29.6-.2-3.7 9-23.1 8.3-26.2-.2-27.5-4.9zm0 11.6c-1.3-3.7 5.5-4.2 18.2-3.7s33.2-3.9 27 1.8-9.6 12.7-24.2 12-18.1-2-21-10.1zm-190.8-16c-.2 2.1-6.4-12.6-6.4-21.3s1.7-10 3.2-2.1 3.7 18.3 3.2 23.4zm5.4-15.2c-3.5 5.3-5.9 10.3-6.4-7.1s3.9-48.6 10.8-64.1 13.8-30.2 12.8-13.8-.7 26-1.7 30.4-5.4 13.3-8.1 26.5-3.2 21.7-7.4 28.1zm11.1-6.1c-4.2-.3-5.6-.3-4.2-8.7s3.4-12 9.1-30.9 7.1-26.8 14-42.5 15.2-32.9 20.9-30.4 4.2 11.5 0 25.5-5.9 23.1-17.4 49.5c-5.7 13.9-11.8 15.6-15 25.4s-4.2 12.4-7.4 12.1zm12.7 1.7c-4.7-.3-4.4-4.2-2.2-10.3s7.6-16.7 12.5-26 16.7-31 19.5-37.4 18.8-44.4 25.2-42.5-4.7 30.5-9.1 44.2-9.1 23.1-13.3 32.8-7.9 12.9-11.8 16.3-11.3 15.4-13.3 19.1-3.8 4-7.5 3.8zm12.3 5.4c-5-1.4.7-9.9 5.4-16s17.2-22.1 21.4-28.6 28.2-47.5 32.2-52.9 14.2-9.8 10.3 4.3-7.6 23.7-14.2 41.9-8.8 20.4-13 22.3-15.2 9.4-21.4 14.6-10.8 9.7-12.5 12.3-4.5 3.1-8.2 2.1zm14.3 5.9c-4.2-2.5-4.5-2.8 8.3-12.9s42.7-36.4 53.1-44 27.5-22.9 22.1-8.4c-3.9 10.8-8.5 21.4-13.8 31.7-3.7 7.1-3.4 8.9-24.8 16.8s-30 12.8-34.9 14.9-7.5 3.3-10 1.9zm13.7 8.5c-4.3-2.9-2-5.6 13.5-12.5s44-20.4 54.8-24.6 14.7-3.9 9.3 5.2-12.5 16.2-15.5 19.9-10.8 5.8-29.5 8.5-29.4 5.7-32.6 3.5zm12 10.9c-3.8-3.2 4.9-7.2 15.2-8.4s28.3-7.7 22.8-2.5-11.9 12.3-18.8 12.6-16.7.4-19.2-1.7zm9.1 8.8c-1-2 10.8-3.3 7.9-1.3s-6.9 3.3-7.9 1.3z"/><path class="st3" d="M641.5 407.7c-.1 3.4-3 6.1-6.4 6-3.4-.1-6.1-3-6-6.4.1-3.4 2.9-6.1 6.2-6 3.4.1 6.2 2.9 6.2 6.4z"/><path class="st4" d="M640.6 407.7c-.1 2.9-2.5 5.3-5.5 5.2-2.9-.1-5.3-2.5-5.2-5.5.1-2.9 2.4-5.2 5.3-5.2 3 .1 5.4 2.5 5.4 5.5z"/><circle class="st0" cx="634.3" cy="406.8" r="1.7"/></svg>