<svg version="1.1" id="_ÎÓÈ_1" xmlns="http://www.w3.org/2000/svg" x="0" y="0" viewBox="0 0 609.6 1859" xml:space="preserve"><style>.st1,.st2{fill:none;stroke:#000;stroke-width:8.8;stroke-linecap:round;stroke-linejoin:round}.st2{fill:#fff}</style><path fill="#fff" d="M0 0h609.6v1859H0z"/><path class="st1" d="M322.6 1687.6l-179.4 134.6m432.2 0l-178.8-134.1m178.8-137.7L359.3 1389l-216.1 161.4v271.8h432.2z"/><path class="st2" d="M194.8 1589.9V36.8h328.9v1553.3"/><path class="st1" d="M575.4 1550.4L360 1716.2l-216.8-165.8"/><circle class="st2" cx="242.8" cy="82.7" r="20.6"/><path class="st2" d="M285.1 71.9h130.2v21.7H285.1zM219.9 132h277.2v43.4H219.9z"/><path class="st1" d="M222.2 202.4h113.3m-113.3 21.8h113.3M222.2 246h113.3m-113.3 21.9h113.3m-113.3 21.8h113.3m-113.3 21.8h274.9m-274.9 21.9h274.9m-274.9 21.8h274.9M222.2 377h274.9m-274.9 21.9h274.9"/><path class="st2" d="M358.5 202.4h138.6v87.3H358.5zM219.9 442.5h164.8v43.4H219.9zm2.3 70.4h138.6v196.5H222.2z"/><path class="st1" d="M383.8 512.9h113.3m-113.3 21.9h113.3m-113.3 21.8h113.3m-113.3 21.8h113.3m-113.3 21.9h113.3m-113.3 21.8h113.3m-113.3 21.8h113.3m-113.3 21.8H482m-98.2 21.9h82.6"/><path class="st2" d="M219.9 753.1h251v43.4h-251z"/><path class="st1" d="M222.2 823.5h235.4m-235.4 21.8h193.1m-193.1 21.9H486M222.2 889h218.2m-218.2 21.8h218.2"/><path class="st2" d="M219.9 1063.6h108.3v43.4H219.9zm0-126.4h266v100h-266z"/><path class="st1" d="M222.2 1134h274.9m-274.9 21.9h274.9m-274.9 21.8h274.9m-274.9 21.8h274.9m-274.9 21.9h274.9m-113.3 21.8h113.3M383.8 1265h113.3m-113.3 21.9h113.3m-113.3 21.8h113.3m-113.3 21.8h113.3"/><path class="st2" d="M222.2 1243.2h138.6v87.3H222.2zm-2.3 131h266v43.4h-266z"/><path class="st1" d="M222.2 1444.6h113.3m-113.3 21.8h113.3m-113.3 21.9h113.3m-113.3 21.8h113.3m-113.3 21.8h113.3m-113.3 21.8h274.9m-274.9 21.9h274.9m-274.9 21.8h274.9m-263.9 21.8H486m-224.2 21.9h195.8"/><path class="st2" d="M358.5 1444.6h138.6v87.3H358.5z"/></svg>