<svg id="_ÎÓÈ_1" data-name="—ÎÓÈ_1" xmlns="http://www.w3.org/2000/svg" viewBox="0 0 440.99 1794.27"><defs><style>.cls-1,.cls-2{fill:#fff;stroke:#000;stroke-linecap:round;stroke-linejoin:round;stroke-width:8.8px}.cls-2{fill:none}</style></defs><path class="cls-1" d="M183.78 1655.21L4.4 1789.87m432.18 0l-178.73-134.18"/><path class="cls-2" d="M436.58 1518l-216.09-161.34L4.4 1518v271.87h432.18V1518z"/><path class="cls-1" d="M56.05 1557.5V4.4h328.89v1553.38"/><path class="cls-2" d="M436.58 1518l-215.32 165.88L4.4 1518"/><circle class="cls-1" cx="103.98" cy="50.34" r="20.6"/><path class="cls-1" d="M146.29 39.49h130.24V61.2H146.29zM81.17 99.6h277.19v43.41H81.17zm2.21 70.42h113.37M83.38 191.85h113.37M83.38 213.68h113.37M83.38 235.51h113.37M83.38 257.34h113.37M83.38 279.17h274.98M83.38 301h274.98M83.38 322.83h274.98M83.38 344.66h274.98M83.38 366.49h274.98m-138.6-196.47h138.59v87.32H219.76zM81.17 410.15h164.81v43.41H81.17zm2.21 70.42h138.59v196.47H83.38zm161.61 0h113.37M244.99 502.4h113.37m-113.37 21.83h113.37m-113.37 21.83h113.37m-113.37 21.83h113.37m-113.37 21.83h113.37m-113.37 21.83h113.37m-113.37 21.83h98.28m-98.28 21.83h82.59M81.17 720.7h250.96v43.41H81.17zm2.21 70.43h235.46M83.38 812.96h193.16M83.38 834.79h263.84M83.38 856.62h218.29M83.38 878.45h218.29m-220.5 152.81h108.29v43.41H81.17zm0-126.42h266.05v100.02H81.17zm2.21 196.84h274.98m-274.98 21.83h274.98m-274.98 21.83h274.98m-274.98 21.83h274.98M83.38 1189h274.98m-113.37 21.83h113.37m-113.37 21.83h113.37m-113.37 21.83h113.37m-113.37 21.83h113.37m-113.37 21.83h113.37m-274.98-87.32h138.59v87.32H83.38zm-2.21 130.98h266.05v43.41H81.17zm2.21 70.42h113.37m-113.37 21.83h113.37m-113.37 21.83h113.37m-113.37 21.83h113.37m-113.37 21.83h113.37m-113.37 21.83h274.98m-274.98 21.83h274.98m-274.98 21.83h274.98m-263.91 21.83h252.77m-224.24 21.83h195.86m-99.08-196.47h138.59v87.32H219.76z"/></svg>