<svg id="ëÎÓÈ_1" data-name="ëÎÓÈ 1" xmlns="http://www.w3.org/2000/svg" viewBox="0 0 953.38 1760.85"><defs><style>.cls-1{fill:#1c191c}.cls-2{fill:#282629}.cls-3{fill:#9f9c96}.cls-4{fill:#181616}.cls-5,.cls-8,.cls-9{fill:#fff}.cls-11,.cls-8,.cls-9{stroke:#000;stroke-miterlimit:10}.cls-7{fill:#010103}.cls-8{stroke-width:1.27px}.cls-9{stroke-width:1.2px}.cls-11{stroke-width:.83px}</style></defs><path class="cls-1" d="M415.62 1294.56c-2.64 2.08-.54 9.11 4 16.61s12.33 25.72 9.38 28.4-16.61 1.68-17 3.52c-4 0-7.08 4.22-7.89 5 6.22-2.94 8.31-1.57 8.31-1.57s2.18 4.42 9.72 1.24c9.58-4 13.59.9 17.61 3s14.74 2.68 16.61 4.29 7.77 2.41 10.72 0c5.36 1.61 7.5 4.82 7.5 4.82s1.91-4.36-5.62-7.5c.1-1.57-24.26-6.44-24.06-6.72s11.12 2.34 12.95 2.87c3.87 1.1 8.48.73 11.61 1.54 4.93 1.28 8.57 1.26 8.6-.1 3.49.8 7.24 2.14 8.85 3.48-1.07-5.36-5.36-6.29-6.43-7-.27-1.75-19.16-2.55-28.81-3.22s-15.54-14.07-18.22-19.56-9.11-18.62-11.38-22.91-3.24-8.75-6.45-6.19z" transform="translate(-97.44 -68.44)"/><path class="cls-1" d="M427.14 1299.51c2.5 3.92 15.27 24.65 16.34 29.07s1.43 8.77.66 10.15-9.78.45-10.6 2.49c-.28.7-3.05-.81-5.86 3.26 2.81-2.06 4.62-1.07 6.16.37a6.17 6.17 0 0 0 7 .58c2.81-1.47 8-2.28 11.72-2s15.53.74 20.49.87 22 4 22.37-1.34c4.15.13 7.24 2 8.31 3.35s-.67-6.43-9.65-7.77c-.8-.81-6.7 0-9.11 0s-15.67.13-20.36-.94-7.64-.94-11.39-6.3-7.64-13.53-10.85-20.09-4.69-7.91-6.3-10.45-4.28-6.3-6.16-5.36-3.78 2.6-2.77 4.11z" transform="translate(-97.44 -68.44)"/><path d="M502.35 1231.47s11.06-16.75 14.08-24.12 5.69-22.45 5.69-35.51.67-35.52 6-42.89 8-10.72 15.08-14.4 4-15.75-6.7-21.78-19.43-11.72-35.85-8.71-22.11 11.39-28.48 18.43-11.72 14.4-23.11 40.2c-2.14-1.45-30.28 13.62-66.46 42.21-41.45 21.58-59.06 42.07-73.36 51.15-23.23 14.74 16.7 18.59 25 18.76 2.54 3.69 32.39 15.22 41.1 15.63 5.08.25 11.35 2.61 14.6 8.4 5 9 14.42 12.09 18.61 18.77 5.64 9 11.18 19.81 12.47 16.5.93-2.43 3.5-2.93 7.29-2.59 4.87.44-7.64-16.36-3.79-15.69 2.83.49 9.53 18.55 10.44 16 1.22-3.38 2.74-5 6.08-3.86 3.57 1.26.45-8.89 0-12.4-.5-4 3.35-8.87 6.37-11.89 2.44-2.37 27.81-19.04 54.94-52.21z" transform="translate(-97.44 -68.44)"/><path class="cls-1" d="M572.88 1107.57s-22.51 2.29-35 10c-4.36 2.4-5.27 3.78-9 3.94-1.9.09-5.59-1.64-5.59-4.8 0-4.61 10.57-9.13 25.14-11s18.42-2.16 24.45 1.86z" transform="translate(-97.44 -68.44)"/><path class="cls-2" d="M536.53 1093.33a104 104 0 0 1 18.16 2.6c5.71 1.38 19.24 3.91 20.83 13-1.36-1.06-1.75-1.23-4.51-2.45s-13.82-2.3-24-.51c-10.51 1.85-16.54 3.41-23.42 8.57 1.85-7.2 4-7.09 7.56-10.08 1.85-1.58-2.15-11.13 5.38-11.13z" transform="translate(-97.44 -68.44)"/><ellipse class="cls-3" cx="415.21" cy="1037.7" rx="5.78" ry="5.95"/><ellipse class="cls-4" cx="415.21" cy="1037.7" rx="4.97" ry="5.11"/><path class="cls-5" d="M511.9 1105.33a1.6 1.6 0 1 0 1.59-1.59 1.59 1.59 0 0 0-1.59 1.59z" transform="translate(-97.44 -68.44)"/><path d="M231.56 1181.84c-50.25-3-78.37 14.69-172.4 12.57-14.61-.33-26-3.24-22.21-6.69-10.51 1.67-20.56 1-18.78-3-10.39.08-17.86-1.36-17.86-5.05 0-2.68 9-1.95 29.11-2.81 62.68-2.66 144.64-10.24 172.72-15.49.19-3.8 11.87-3.75 38.71-8.49-1.29-4.2 35.71 31.68-9.29 28.96z" stroke-width=".63" stroke="#000" stroke-miterlimit="10"/><path d="M389.45 1188.14s-56.95 21.73-58 25.6c-10.38 3.55-21.1 7.9-20.77 11.59-26.13 6.7-42.88 12.5-42.21 15.46s28.81-5.25 39.87-9.52c4 3.29 22.34 1.43 30.6-1.92 7.96 3.01 52.67-42.04 50.51-41.21z" transform="translate(-97.44 -68.44)"/><path class="cls-5" d="M376.83 1222.3c-1.48 5.19 6.58 50.06 47.73 55.26s87.53-59.11 85.11-72.52-13.36-14.44-22.78-24.17-12-17.17-25-17.46c-16.49-.38-31 18.14-48.77 28.56-15.86 9.32-33.61 20.93-36.29 30.33z" transform="translate(-97.44 -68.44)"/><path class="cls-7" d="M484.67 1178.45s-4.33 17-25.43 23.72c7.4-8.86 7-15.41 7-15.41s-9.78 26.1-60 20.3c7.3-2 14.49-7.69 17.38-12.49-7.82 8.27-28.08 10.57-35.4 10.83-9.5.34-21.52-1.66-25.13-3.12-6.73 6.36-66.85 34.88-66.85 34.88s109.93 26.2 143.88-15.86c.69 4.65-11.36 13.56-10 17.39 1.87 5.36 61.17-3.49 65.33-56.78 2.6-34.6-10.78-3.46-10.78-3.46z" transform="translate(-97.44 -68.44)"/><path d="M1050.81 987.94c.18-1.16-.87-3.65-.87-3.65-3.54-10.91-47.57-12.48-65.17-13 39.19-11-14.88-15.47-31-14.16 33-9.52-14.25-13.68-27.27-13.68 18.06-6.82-8-9.91-24.17-9.29 6.33-8.93-11.77-7.38-27.89-6.77 2.13-7.23-12.79-4.14-16.73-2.45-14.39 6.21-31.46 16.64-53.78 25.88s-47.76 23.41-47.76 23.41v27.4s21.19 12.22 42.15 22.33c12.45 6 30.37 14 41.93 21.64 19.3 12.67 40.54 12.8 34.19 6.89 16.12.62 46.89-1 27.89-8 16.12.62 49.83-3.1 24.17-8 13 0 48-1.83 27.27-12.4 16.11 1.3 67.64-6.32 31-15.43 17.6-.52 61.63-6.1 65.17-17 0-.06 1.06-2.56.87-3.72z" transform="translate(-97.44 -68.44)"/><path d="M823.3 982.52s-25.44-25.36-43.18-22.52c18.37-8.24 20.91-18.69 16.79-24.39 6.33-6 2.22-14.88-1.58-19 4.43-3.8.95-10.14-3.8-13.94 5.38-4.43 0-10.13-4.75-13.93 4.11-3.8 2-17.7-8.56-11.72 10.75-8.31-.87-26-7.36-15.45-.79-3.16-50.91-53-101.9-21-2.54 11.08-25.34 33.57 26.6 125.42 7 12 10.14 22.48 4.44 32.62s-44.35 72.84-20.27 130.49c7.6 19 83.29 3.16 98.81-25.66 13.57 8.6 14.73-14 8.24-18 8.55-2.22 11.08-10.14 8.86-15.84 7.92-2.53 9.51-13.3 2.85-19.63 7.61-5.39 2.22-19.32-5.06-25 8.23-2.88 28.71-26.27 29.87-42.45z" transform="translate(-97.44 -68.44)"/><path d="M673.55 1069.59s-9.87 38.35-5.65 48.52c-3.8 9.34-10.58 22-14.26 34s-13 27-15.72 30.62 15.47 1.42 23.89-22c-1.51 15.86-10.17 33.57-11.86 37.79s16.15.42 23.6-23.43a251.67 251.67 0 0 1-6.49 38c-1.69 7.18 19.63-2.32 20.69-29.56 2.53 16.26 1.48 41.39 8.87 37.58s12.69-25.2 10.34-36.31c4.23 16.47 11 41.38 18.19 34.63s2.36-24.71 0-33.79c5.88 9.5 19.11 30.5 21.16 20.74s2-18.53 0-24.54c5 4.22 10.52 16 12.4 7s2.82-15.43 0-21.49c4 2.28 10.54 7.13 12-1.74s.42-11.82-1.27-15.2c4.22 2.53 11 4.27 11-6.84s-5.64-14-7.39-16c4.22 1 11.71-3.15 11.08-10.49s-5.59-13.69-5.59-13.69zm2.75-143.46s-20.18-43.61-18.49-56.74c-6-10.52-15.75-24.49-22.3-38.3S616.17 801 612.6 797.22s14.88-4.78 28.85 21.8c-5.33-18.86-18.16-38.54-20.84-43.31s15.79-3.7 28.91 23.65a375.71 375.71 0 0 0-15.61-44.63c-3.41-8.34 19.89-1.08 27.54 31.61-1.45-20.14-8.59-50.28-.39-47.15s18.61 27.94 19 41.82c.16-20.73.83-52.17 9.51-45.42s8.31 29.37 8.2 40.81c3.48-12.65 11.41-40.63 15.78-29.24s6.52 22 6 29.64c3.9-6.09 6.46-21.46 10.52-10.87s6.52 18.09 5.22 26c3.38-3.55 8.64-10.71 12.25-.29s3.29 14.2 2.44 18.61c3.55-3.89 9.78-7.32 12.47 6.1s-2.14 18.08-3.4 20.74c3.9-2.11 10.93.56 12.09 9.57a64.59 64.59 0 0 1-.82 18.55z" transform="translate(-97.44 -68.44)"/><path class="cls-5" d="M783 980.91s-8.56 18.05-25 25.34c5.07 1 12.51-4.43 12.51-4.43s-6.48 80.22-93.9 63.55c-4.75-1.48 23.58-72.61 47.65-75.14-23.44-6.65-58-87.56-56.16-93.1s68.05-17.25 96.87 54c-4.75-5.07-14.57 0-14.57 0s16.11-4.42 32.6 29.78z" transform="translate(-97.44 -68.44)"/><path class="cls-8" d="M649 849c2.26-1.3-5.24-22.83-11.76-32.67s-12.57-15.78-17.64-16.75 10.28 14.25 15.14 24.62S645.75 850.8 649 849zm6.41-3.39c3.13-.84-.77-28-7-43.1S629.9 778 624.57 776.64s10.14 17.86 14.34 29.76 11.58 40.53 16.5 39.21z" transform="translate(-97.44 -68.44)"/><path class="cls-8" d="M662.58 844.16c3.66-1.1 3.06-30 .37-45s-12.6-36.87-21.55-40.25 5.93 25.48 9.4 39.51 4.44 47.95 11.78 45.74z" transform="translate(-97.44 -68.44)"/><path class="cls-8" d="M671.64 842.35c5-.72 9.36-34.06 8.16-49.74s-7.93-36.22-14.7-40.83-.1 26.7-.35 43.45-1.17 48.27 6.89 47.12z" transform="translate(-97.44 -68.44)"/><path class="cls-8" d="M679.54 844.4c3.69.91 15.07-28.1 17.45-42.11s-1.37-40.72-7.51-48.64-5.79 23-9.49 44-7.58 45-.45 46.75z" transform="translate(-97.44 -68.44)"/><path class="cls-8" d="M689.55 846c4.35.83 15.61-30.45 23.13-49.55s4.65-25.29-2.57-33.79-10.93 19.85-16.11 37.53-11.54 44.42-4.45 45.81z" transform="translate(-97.44 -68.44)"/><path class="cls-8" d="M701 846.46c4.47.37 18.36-20 27.53-39s5.19-21 .38-27.15-10.08 1.14-20.09 26S695.39 846 701 846.46z" transform="translate(-97.44 -68.44)"/><path class="cls-8" d="M714.08 848.61c5.87 3 11.36-1.59 23-19.41s11.74-20.7 8.14-27.3-9.72-10.9-21.51 14.91-14.71 29.19-9.63 31.8zm18.18 3.11c6.37 1.69 10 3.17 18.12-6.42s11-13.35 8-24.29-9.61-4.42-19.67 7.88-12.06 21.35-6.45 22.83zm17.62 6.28c6.27 2.69 6.84 1.89 10.6-.49s5.09-7 1.84-15.14-6.47.11-10 5.19-6.07 8.9-2.44 10.44zm-86.62 277.79c2.46.67-.64 19-5.07 27.87s-9.19 14.57-13.94 16.15 7.24-13 10-22 5.52-22.97 9.01-22.02zm6.96 1.63c3.22.17 4.75 22.44 1.59 35.42s-13.22 22.49-18.17 24.39 6.4-15.84 8.17-26 3.35-34.07 8.41-33.81z" transform="translate(-97.44 -68.44)"/><path class="cls-8" d="M677.51 1137.42c3.79.29 8.87 23.39 9.18 35.74s-5.07 31.35-13.14 35.47.79-21.22 1.42-32.94-5.06-38.85 2.54-38.27z" transform="translate(-97.44 -68.44)"/><path class="cls-8" d="M686.71 1137.42c5-.22 15.82 25.6 17.72 38.27s-.63 30.09-6.34 34.84-5.34-21.22-8.86-34.52-10.61-38.22-2.52-38.59z" transform="translate(-97.44 -68.44)"/><path class="cls-8" d="M694 1134.52c3.42-1.31 20.23 20 25.29 30.72s6.66 32.62 2.22 39.91-10.16-17.34-17.91-33.53-16.19-34.57-9.6-37.1z" transform="translate(-97.44 -68.44)"/><path class="cls-8" d="M703.48 1131.67c4.09-1.36 21.22 21.73 32.3 35.73s9.51 19.38 4.12 27.3-14.57-14.07-23.12-27.3-19.95-33.51-13.3-35.73z" transform="translate(-97.44 -68.44)"/><path class="cls-8" d="M714.56 1129.45c4.3-1 21.86 13 34.53 26.61s9.18 15.83 5.7 21.53-10.07.71-24.72-17.48-20.89-29.39-15.51-30.66z" transform="translate(-97.44 -68.44)"/><path class="cls-8" d="M726.92 1125.65c5.14-3.31 11.4-.55 26.28 11.76s15.52 14.6 13.31 20.42-7.37 10.28-24-8.42-20.03-20.91-15.59-23.76zm17.14-5.38c5.88-2.36 9.12-4.12 19 2.21s13.32 8.87 12.53 18.06-8.52 5-20.75-3.13-15.97-15.06-10.78-17.14zm15.94-7.83c5.6-3.13 6.32-2.59 10.45-1.29s6.35 4.78 4.76 11.75-6.33.95-10.76-2.54-7.67-6.1-4.45-7.92z" transform="translate(-97.44 -68.44)"/><path d="M625.27 953.35c8.68-2.83 20.48-4.12 32.82-3.2 12.85 1 20.86-.53 24.66-1.58s15-2 19-1.08c-5.07 1.08-6.55 4.66-6.55 4.66s15-8 28.3 0c-5.7-1-6.13 4.86-6.13 4.86s35.39-12.49 54.09 14c-4.43-4-17.14 2.65-17.14 2.65s12.41-1 23.27 4.66c-5.66 5.33-19.25 7-22.84 7.85 5.49.16 14.86-1.46 14.86-1.46s-5.36 5.21-19.09 12.81-23 8.87-31.67 9.08a13.76 13.76 0 0 0 8.45 2.74s-6.13 4.44-12.88 3.81-21.12-3.81-24.49 5.06-33.15-14.78-39.28-19-7.66-3.42-13.09-4.65c-5.77-1.3-30.19-4.43-32.94-19.42-2.32-9.05-4.34-13.66 20.65-21.79z" transform="translate(-97.44 -68.44)"/><path class="cls-1" d="M578.86 979.49s18.37-11.19 25.76-7.81 13.09 8.65 10.77 12.45-7.18 1.06-11.4 0-19.64-2.13-25.13-4.64z" transform="translate(-97.44 -68.44)"/><path class="cls-2" d="M574.85 977.38s6.34-8.45 10.77-9.93 19.42-3 19.42-3 2.31 7.89 7.39 12.07-12.45 2-19.63.81c-5.04-.79-14.8-1.85-17.95.05z" transform="translate(-97.44 -68.44)"/><ellipse class="cls-3" cx="525.32" cy="900.8" rx="5.38" ry="5.54"/><path class="cls-4" d="M627.39 969.25a4.63 4.63 0 1 1-4.62-4.76 4.69 4.69 0 0 1 4.62 4.76z" transform="translate(-97.44 -68.44)"/><circle class="cls-5" cx="524.54" cy="900.05" r="1.48"/><path class="cls-7" d="M319.65 791.76s-45-123.45-50.48-138.16-7.54-12.4-9.39 0-5 27.69 1.6 43.56 27.13 58.26 27.13 58.26-58.27-96.3-64.77-107.59-10.82-8.36-10.53 7.21 1.73 37.21 6.63 45 43 51.92 43 51.92-77.84-76.73-85.23-87.69-10.26-5.19-9.4 12.12 7.27 26.25 9.4 31.15 70.5 56.22 70.5 56.22-85.67-59.1-96.05-71.8-7.81 26 4.6 43c12.42 8.08 76 40.39 76 40.39s-90.09-42.57-99.32-47.68 3.61 24 9 29.5 12 8.08 77.51 30c-73.26-23.65-84.37-27.4-89.78-30.28s.08 19.61 9 25.81 18.75 7.19 73 17.37c-56.83-9.43-78.74-18.09-74.27-5.11s3.13 10.34 60 15.7c-53.27-2.72-59-3.45-58.18 4.71s44.55 11.85 61.4 12.93 118.63-36.54 118.63-36.54zM433 904.84s7.79 2.6 14.14 2 14.56-5.19 22.71-6.06 30.07-2.3 35.55-4.32a82.11 82.11 0 0 0 17.32-9.46c3.75-2.89-5.19 21.63-63.46 45-22.79 10.09-34.11 23.57-64.31 18.9S433 904.84 433 904.84z" transform="translate(-97.44 -68.44)"/><path class="cls-5" d="M471.92 904.81c-3-1.17-3.46-2.82 4.54-3.36s22-1 27.58-2.59 13.48-5 16.45-8.33c-5.63 6.27-12.44 10.38-17.64 11.68s-24.85 4.98-30.93 2.6z" transform="translate(-97.44 -68.44)"/><path class="cls-5" d="M472.78 908.37c2-1.44 3.68-1.62 10.6-1.72s14.17-1 18.07-2.06a29.68 29.68 0 0 0 9.19-4.11c-9 5.63-11.9 8.55-17.63 9.52s-24.09 1.18-20.23-1.63z" transform="translate(-97.44 -68.44)"/><path class="cls-5" d="M467.05 912.05c3.3-1.91 4.43-.64 8.65 0s14 .79 19.51-1.12c-15.4 8.37-22 7.83-26.86 5.88s-4.65-2.81-1.3-4.76z" transform="translate(-97.44 -68.44)"/><path class="cls-5" d="M459.05 918c3.92-1.55 4.11-1.38 9.41 1.25s11.89.72 14.17 0c-14.93 6.85-19.69 8.14-22.61 5.66s-6.49-4.71-.97-6.91zm-6.28 3.56c.82 1 3.32 7.8 2.58 9.64S444 938.34 445 933.8s1.63-8.33 1.84-9.52 5.47-3.28 5.93-2.72zm-10.38 5.1c.43 1 .75 7.79 0 10.49s-9.09 5.62-8.76 2.38.86-7.46 1-9 7.37-4.69 7.76-3.87zm-10.5 5.95c0 1.3-.64 8.76-1.29 10.71s-9.74 6-8.44 2.38a63 63 0 0 0 2.6-9.52c.32-2.06 7.16-4.96 7.13-3.57zm-11.25 5.51c.18 2-3.46 9.09-4.65 10.5s-10.6 2.27-8.54 0 12.87-14.17 13.19-10.5z" transform="translate(-97.44 -68.44)"/><path class="cls-7" d="M375.76 962.64C367.11 971.53 343 972 343 993.28c0 12.92-27.9 4.59-14.94-15.81-7 4.7-21 2.32-18.49-7.9-10.13 9.23-67.55 8.33-70.67-9.93s50.37-30.07 58.95-33.64 88.38 25.89 77.91 36.64z" transform="translate(-97.44 -68.44)"/><path class="cls-7" d="M292.54 957.05s-47 42.34-56.54 45.4-18 3.71-21.64 1.33c-11.89 2.38-16 2.6-18.38.22-14.72 4.54-21.86 6-25.1 1.68-18.82 5-25.1 6.17-27.91 2.57-24 5-49.32 5.27-30.29-3.6s146.72-65.3 169.63-73.76 12.96 23.72 10.23 26.16z" transform="translate(-97.44 -68.44)"/><path class="cls-7" d="M350.23 859.27a38.71 38.71 0 0 1-10.77-21.65c-1.25-10-3.08-18.59-9.14-27.25s-6.05-25.09-33.32-36.77-81.81 38.51-95.52 51c-1.45 1.34-2.16 2.51-2.26 3.53-22.15-1.23-42.59-1.87-49.15-2.66-16.22-1.95-9.52 14.28 6.49 17.09s67.26 7.14 67.26 7.14-45.62.21-64.45-1.08-14.27 11.46.87 13.41 65.12 3.19 65.12 3.19-44.14.92-59.93.06-10.17 9.51 3.46 11.89 64.6 0 64.6 0-37.55 4.55-55.94 3.9-11.47 6.92 1.51 8.44S240.6 888 240.6 888s-33.59 4.54-48.74 4.76-15.14 5.41 0 7.79 59.07-4.33 59.07-4.33-30.72 7.79-44.57 8.22-7.36 6.49 4.11 6.71 49.33-6.71 49.33-6.71-30.29 8.44-40 11.25-6.49 5.84 16.23 8c15.91 1.51 41.26.27 55-.61-1.7 3.14-3.55 6.47-5.48 9.91 15.58 2.6 70.74-26.39 78.75-39.59s-10.18-30.24-14.07-34.13z" transform="translate(-97.44 -68.44)"/><path class="cls-5" d="M268 672.35c5 4.86 47.49 108.81 49.06 114.76s-14-4.46-18.14-12.67-36.12-75.7-36.12-78.73 2.2-26.33 5.2-23.36zm-38.92-5.63c2.87 3.35 65.4 100.39 68 106.88s-8.69 5.19-12.58 0-60.18-66.6-61.91-74.86 1.74-37.53 6.49-32.02zm-45.29 12.6c3.89 2.65 92.32 85.51 96.68 91.44s-7.88 7.58-13.32 3.31-83.49-56.59-87.4-64.51-2.38-34.56 4.04-30.24zm-22.04 26.61c4 2 97.44 68.23 102.17 73.2s-7.25 7.9-12.93 4.59-86.62-42.57-91.06-49.42-4.84-31.66 1.82-28.37zm-14.36 30.73c3.93 1.2 97.92 47 102.92 50.73s-5.35 5.6-11 3.46S155 765.4 150 759.89s-9.1-25.2-2.61-23.23zm-7.07 27.15c3.63.6 92.3 30.38 97.17 33.15s-4.1 5.59-9.33 4.34-77.79-12.86-82.87-17.18-10.96-21.31-4.97-20.31zm3.78 26.75c3.05.08 79.24 14.3 83.56 16s-2.72 3.33-7.15 2.91-65.32-1.6-70-4.55-11.44-14.49-6.41-14.36zm2.52 20.09c2.72-.23 71.81 5 75.82 6.12s-2.1 3.22-6.08 3.28-58.2-.28-62.64-2.45-11.58-6.6-7.1-6.95z" transform="translate(-97.44 -68.44)"/><path class="cls-1" d="M337.05 997.83c1.59 2.51 26.75 12.2 26.83 13s-4.49 4.51-6.82 5.39c-2-.07-5.4.76-5.05 4a3.48 3.48 0 0 1 3.57-2.35c.77 1.94 3.34 1.85 4.63-.25a18.31 18.31 0 0 1 4.81-3.43c1.07-.35 3.54 1.29 4.51 1.83s2.14.26 4.35 1.42 3.15.61 5.44 1.38 4.91 1.08 5.37-1.14a4.93 4.93 0 0 1 4.68.06c-1.22-2-3.8-1.93-5.3-1.33a25.71 25.71 0 0 0-3.19-.83c-1.54-.23-3.45-.22-5.06-.62a10.86 10.86 0 0 1-3.92-1.62 9.49 9.49 0 0 0 7.79 0c1.88-.69 5.38-2.43 7-2.32s3.27 0 3.48-1.62a4.22 4.22 0 0 1 4.47.84c-.77-3-4.17-2.59-5.16-2.14-2.07-1.27-6 .37-8.72 1.5s-4.27 2-8.41 1.37a30.91 30.91 0 0 0 6-2.64c.93-.43 2.15-1.91 1.8-2.64 1.1-1 1.91-2 3.66-1a3 3 0 0 0-4.39-.06c-1.56-.83-6.19 3.63-7.69 4.23a3.91 3.91 0 0 1-4.86-1.1c-1.43-1.82-25-9.34-26.54-11.86s-4.86-.59-3.28 1.93z" transform="translate(-97.44 -68.44)"/><path class="cls-1" d="M313.71 977.21c1.59 2.51 26.75 12.2 26.83 13s-4.49 4.51-6.82 5.39c-2-.07-5.4.76-5.05 4a3.48 3.48 0 0 1 3.57-2.35c.77 1.94 3.34 1.85 4.63-.25a18.14 18.14 0 0 1 4.81-3.43c1.06-.35 3.54 1.29 4.51 1.83s2.14.26 4.35 1.42 3.15.6 5.44 1.38 4.91 1.08 5.36-1.14a5 5 0 0 1 4.68.05c-1.21-2-3.79-1.92-5.3-1.32a23.8 23.8 0 0 0-3.18-.83c-1.54-.23-3.46-.22-5.06-.62a10.79 10.79 0 0 1-3.92-1.62 9.49 9.49 0 0 0 7.79 0c1.88-.69 5.38-2.43 7-2.32s3.27 0 3.48-1.62a4.22 4.22 0 0 1 4.47.84c-.77-3-4.17-2.59-5.16-2.14-2.07-1.27-6 .36-8.72 1.49s-4.27 2-8.42 1.38a29.59 29.59 0 0 0 6.05-2.65c.94-.43 2.16-1.9 1.81-2.63 1.1-1 1.91-2 3.65-1a3 3 0 0 0-4.38-.06c-1.56-.84-6.19 3.63-7.7 4.23a3.9 3.9 0 0 1-4.85-1.1c-1.43-1.82-25-9.34-26.54-11.86s-4.91-.59-3.33 1.93z" transform="translate(-97.44 -68.44)"/><path class="cls-7" d="M466.18 870.52S461.86 851.19 446 848s-32.3 3.17-43 11.25-21.63 11-34.61 11.25c5.19 5.77 9.52 17.88 7.5 26.25s-13 45.57-11.25 57.11-5.85 17.31-.19 15.29 29.61-17.6 41.15-25.39 17.59-17 23.08-27.4 10.67-17.88 17.59-25.09 17.53-14.27 19.91-20.75z" transform="translate(-97.44 -68.44)"/><path class="cls-5" d="M374.13 871.49s-14.06-.76-17.85-5.19c1.09 5.73 11.22 10.49 6.05 24.23s-44.12 19.27-60.56 45.06 17 31.43 32.56 20.23c-6.06 19.09-3.82 27.89 26.43 12.59 6.68-3.38 37-16.53 28.56-18.4-12.76-2.84-17.6-17.52-16.3-25.45 2.11-12.84 9.76-24.09 7.77-35.09-1.3-7.17-3.5-13.4-6.66-17.98z" transform="translate(-97.44 -68.44)"/><ellipse class="cls-3" cx="344.66" cy="795.13" rx="4.92" ry="5.07"/><ellipse class="cls-4" cx="344.66" cy="795.13" rx="4.23" ry="4.35"/><path class="cls-5" d="M442.74 862.89a1.36 1.36 0 0 1-2.71 0 1.36 1.36 0 1 1 2.71 0z" transform="translate(-97.44 -68.44)"/><path class="cls-1" d="M490.81 879.46s-17.49-2.83-28.36.06c-3.73.81-4.67 1.58-7.53 1-1.46-.32-3.95-2.24-3.38-4.43.82-3.19 9.65-4.25 21-2.67s14.46 2.07 18.27 6.04z" transform="translate(-97.44 -68.44)"/><path class="cls-2" d="M465.78 863.08a89.31 89.31 0 0 1 13.31 5.36c4.09 2.08 13.9 6.49 13.49 13.07a12.93 12.93 0 0 0-3-2.59c-1.88-1.38-10.08-4.3-18.11-5.06-8.31-.78-13.16-.88-19.3 1.35 2.69-4.63 4.29-4.13 7.53-5.5 1.69-.71.4-8.1 6.08-6.63z" transform="translate(-97.44 -68.44)"/><path class="cls-7" d="M342.71 1577.55s33.49 74.9 59.16 124.86 39.33 80.11 57.44 106.77-4.85 25.81-21.73 3.42-34.58-49.69-34.58-49.69-8.21 8-21.26-18.37-19.08-39.86-19.08-39.86-9 3.08-22.8-28.15-36-90.66-40.54-95-9.17-15.82-17.37-18.42-12.38 13.35-17.6 8.47-27.78-45.62 6.1-24.91 67.04 19.33 72.26 30.88z" transform="translate(-97.44 -68.44)"/><path class="cls-1" d="M234.1 1603.82s7.4 1.06 9.51-1.5 6.22-8.22 2.26-10.38-12.45-5.83-7.4-7.74a190.23 190.23 0 0 0 24-12.27c5.3-3.48 3-9.51-4.31-6.14s-24.34 11.62-29.33 13.52-6.51 9.93-9.7 12.66-5.83 5.37 1.75 11.14 11.79 11.23 15.52 8.41c6 1 7.4-2.55 6.44-6.86-.49 4-5.28 3.62-5.28 3.62s.72-2-2.26-3.17-3.52 1-3.52 1a9.58 9.58 0 0 0-2.68-3.79c-1.93-1.63-4.84-2.16-4.68-3.81.32-3.3.9-6.08 3.83-6.36s7.66 5.66 9.18 4.13c-.26 1.89 2 3.39 2 3.39s3.76 2.33-5.33 4.15z" transform="translate(-97.44 -68.44)"/><path class="cls-9" d="M199.14 1461.22s-11.79 18.84 6.46 55.22 56.61 56 54.85 49.84-4.1-16.35 6.73-15.83 30.86 6.84-2.16-35-63.02-62.45-65.88-54.23z" transform="translate(-97.44 -68.44)"/><path class="cls-7" d="M213 1441.5s-21.23 9-15.15 40.24 18.11 37 25.21 36.12c8 10.16 22.28 16 24.91 15 10.27 8.24 66.53 37.14 79.16 44.9s28.41 23.09 31.87 20.31c5.23 6.7 15.72 18.51 12-1.69a134.48 134.48 0 0 0-11.29-34.6s1.86-5.88-11.8-27.25-11-29.4-16.12-37-13.29-31.4-30.21-20.39-78.1-41.74-88.58-35.64z" transform="translate(-97.44 -68.44)"/><path class="cls-7" d="M277.63 1434.62s32.81 9.05 34.46 48.7c-33.72-2-103.54-31.27-107-40.8-4.71-13-22.88-1.93-25.35-17.64-1-6.34 24-28.39 44.87-31.69 26.62-4.2 44.23 28.12 51.36 34.51s-4.73 4.4 1.66 6.92z" transform="translate(-97.44 -68.44)"/><path class="cls-9" d="M314.16 1491.57c-2.11 2.6-4.12-30-12.89-39.46 14.8 12.71 25 24.47 12.89 39.46z" transform="translate(-97.44 -68.44)"/><path class="cls-1" d="M161.22 1433.69s15.77 2.34 24.12-.08 15.71-.82 15.06-4.14-4.3-5.35-11.37-3.68-16.03-2.12-27.81 7.9z" transform="translate(-97.44 -68.44)"/><path class="cls-2" d="M157.86 1435.89s-2.47-3.88 6-9.29 11.47-5 14-6.47 3.55-2.23 5.07-3.21.63 2.87.76 4.89 9 .91 11.68 3.5-10.86 2.87-13.81 3-12.11 1-15.73 2.1-6.26 2.24-7.97 5.48z" transform="translate(-97.44 -68.44)"/><path class="cls-5" d="M215.71 1444.42c-3.66 2.07-9 6.82-11.09 10.93s54.12 42.48 89 35.88c6.11-.12-27.63-12.13-39.75-21.91s-35.02-26.68-38.16-24.9z" transform="translate(-97.44 -68.44)"/><path class="cls-3" d="M212.74 1414.55a5.1 5.1 0 1 1-5.86-4.4 5.17 5.17 0 0 1 5.86 4.4z" transform="translate(-97.44 -68.44)"/><path class="cls-4" d="M212 1414.66a4.38 4.38 0 1 1-5-3.78 4.45 4.45 0 0 1 5 3.78z" transform="translate(-97.44 -68.44)"/><path class="cls-5" d="M208.25 1414.53a1.41 1.41 0 1 1-1.61-1.17 1.41 1.41 0 0 1 1.61 1.17z" transform="translate(-97.44 -68.44)"/><path d="M340.48 136.59c3.31 3.77 17.06 14.57 25.3 51.19s10.74 77.22 12.75 102.27.29 72.17-4 76.2c-.29 9.77-4 8.05-3.74 12.65s11.64 74 8.6 75.53c3.47 20.32 5 38.72 10 67.48s14.19 57.89 6.9 60.19-12.29-3.45-12.29-3.45 3.45 27.22 6.14 44.48-1.53 22.23-6.14 22.62-14.95 2.68-20.32-65.56c-4.21 1.15-11.11 10.35-14.18-25.69-1.54-32.21-9-79.75-9-79.75-7.86 3.83-12.46-35.27-15.53-63.64s-10-60.58-10-60.58-14.57 8.43-49.07-91.25c-8.44-.77-14.57-23.77-16.11-36-10.73 2.3-13-43.71-5.36-66.71s72.47-46.82 96.05-19.98z" transform="translate(-97.44 -68.44)"/><path d="M193.1 88.18c15.53-2.87 47.94-20.18 51.81-11.58s4.45 14.75 7.14 17.81 9 10.36 10 27.42a13.18 13.18 0 0 0-2.69-5.56 31.58 31.58 0 0 1-.57 14.95c-2.3 8.24 2.49 20.13 3.26 25.69s5.94 15.72 5.56 31.25a15.54 15.54 0 0 0-2.69-6.91s.58 27.61-9 40.84c.39-1.92 2.11-10.16 2.11-10.16s-3.18 12.65-9.64 11.31-3.78-8.05-3.78-8.05-3.83.38-4.41 3.45a16.82 16.82 0 0 1-4.41-17.83c-3.64 4-6.51 5.94-12.27 8.24a10.24 10.24 0 0 0 2.88-5.75 30.25 30.25 0 0 1-7.48 5.37c-3.06-2.88-4.6-5.75-4.6-7.86-1.34 3.06-3.26 4.22-3.26 5.94s-5.22-1.53-6-5c-.36 5.94-.61 7.09 0 8.43-5.54.58-10.91-3.64-12-6.13a7.18 7.18 0 0 0 0 4s-6-.19-8.53-5c1 5.17 7.09 6.52 7.09 6.52s-5.27 9.72-12.84-.58-18-31.63-23.39-49.65-19.36-50.61-5-65.94 42.71-5.22 42.71-5.22z" stroke-width="1.25" stroke="#000" stroke-miterlimit="10" fill="#fff"/><path class="cls-7" d="M329.65 82.44c-.94-1.1-21-15.82-35.66-13.81s-37.67 12.66-40.83 36.52c-5.75 13.23-8.58 33.37-7.74 49-4.63 20.23-2.61 44.14 10.9 49 6.33 10.92 25 22.71 35.37 6 18.69 11.79 35.08-6.62 35.37-14.67 5.46-1.72 29-24.44 13.51-53.2-7.76-13.51-19.65-16.77-21.85-20.7s-3.16-9.58-2.4-12.08 2.11-8.14 10-10.83 4.27-14.14 3.33-15.23z" transform="translate(-97.44 -68.44)"/><path class="cls-1" d="M351.69 87.8s-13.32 7.48-22.81 7.29-24.88 4.8-26.38 0 23-10.45 30-11.22 19.19 3.93 19.19 3.93z" transform="translate(-97.44 -68.44)"/><path class="cls-2" d="M353.71 88.19a19 19 0 0 0-10.07-7.77c-7.09-2.39-16.75-2.08-19.3-1.8s.06 1.61 0 3.15S301 88 301.75 91.54s13.23-2.87 20.33-4 26.35-3.09 31.63.65z" transform="translate(-97.44 -68.44)"/><path class="cls-1" d="M347.62 290.41s-1.37 5.89-.65 6.54 1.66-.43 2.88-.5 2.3 4.52 1.29 4.45c.36 2-1.1 6-2 7.41.77-2.38 0-5.75-.74-6.55-.29 1.59-3 .51-3.59-.43s-5.4-1.58-6.62-.28-4.24 7.54-6.76 6c-2.37 1.66-3.52 5-3.16 6.62-3.23-2.59.43-7.77 1.44-8.56-.86-1.43.93-5.39 3.16-6s-1.72-1.44-2.73-.58-7-.25-5.76-2.48c-.86-1.22-4.45 1.17-4.23 4.12-1.59-4.34 3.37-7.35 6.82-6.85s4 2.26 6.62 2.55 8.41.79 8.63-1.29 0-5.61 1.87-5.25 3.71.24 3.53 1.08zm-61.25-9.76s-1.36 5.89-.65 6.54 1.66-.43 2.88-.5 2.3 4.52 1.29 4.45c.36 2-1.1 6-2 7.41.77-2.38 0-5.75-.74-6.55-.29 1.59-3 .51-3.59-.43s-5.39-1.58-6.62-.28-4.24 7.54-6.75 6c-2.38 1.66-3.53 5-3.17 6.62-3.23-2.59.43-7.77 1.44-8.56-.86-1.43.94-5.39 3.16-6s-1.72-1.44-2.73-.58-7-.25-5.76-2.48c-.86-1.22-4.45 1.17-4.23 4.12-1.59-4.34 3.37-7.35 6.82-6.85s4 2.26 6.62 2.55 8.41.79 8.63-1.29 0-5.61 1.87-5.25 3.71.24 3.53 1.08z" transform="translate(-97.44 -68.44)"/><path class="cls-3" d="M298.29 83.79A6.31 6.31 0 1 1 292 77.3a6.4 6.4 0 0 1 6.29 6.49z" transform="translate(-97.44 -68.44)"/><path class="cls-4" d="M297.4 83.79a5.42 5.42 0 1 1-5.4-5.58 5.51 5.51 0 0 1 5.4 5.58z" transform="translate(-97.44 -68.44)"/><path class="cls-5" d="M292.8 82.9a1.74 1.74 0 1 1-1.74-1.73 1.74 1.74 0 0 1 1.74 1.73z" transform="translate(-97.44 -68.44)"/><path class="cls-1" d="M716.75 1512.7s-7.06 8.37-9.33 11.31c-7 .91-24 2.49-26.92 11.54a29.27 29.27 0 0 1 4.3-3.39s0 1.58 3.17.67 9.5-4.52 11.76-3.16c-6.11 5.43-13.8 12.44-12 23.3.23-3.17 2.72-6.56 2.72-6.56s1.81.68 3.62-2 6.1-8.37 10.4-11.54c-2 6.11-5.2 12.9-.9 22.85a6.72 6.72 0 0 1 1.13-7s3.39.45 3.62-2.49-.68-13.57 3.17-17 12.21-6.56 15.38-7.23a3.54 3.54 0 0 0 3.09-3.4s.07-1.58 2.11-1.81c-4.75-.9-16.29 3.85-18.32 6.11 5.2-5.65 7.46-8.82 8.59-10.18s-2.4-3.82-5.59-.02zm-40.89-11.7s-6.41 7.59-8.46 10.26c-6.36.82-21.74 2.26-24.41 10.46a26.81 26.81 0 0 1 3.9-3.08s0 1.44 2.87.62 8.61-4.1 10.67-2.87c-5.54 4.92-12.52 11.28-10.88 21.12.21-2.87 2.47-5.94 2.47-5.94s1.64.61 3.28-1.85 5.54-7.59 9.43-10.46c-1.84 5.54-4.72 11.69-.82 20.72a6.12 6.12 0 0 1 1-6.36s3.07.41 3.28-2.26-.62-12.31 2.87-15.38 11.08-6 13.95-6.57a3.21 3.21 0 0 0 2.81-3.07s.06-1.44 1.91-1.64c-4.31-.82-14.77 3.48-16.62 5.53 4.72-5.12 6.77-8 7.8-9.23s-2.17-3.42-5.05 0z" transform="translate(-97.44 -68.44)"/><path class="cls-7" d="M574.76 1463.72c-.1-6 7-36.12 15.21-45.63s22.81-13.31 35.49-10.77 21.55 13.31 29.15 15.21 24.08-8.24 34.86-9.51 31 0 39.29-3.17 30.42-10.14 51.33-8.23c22.18-14.58 179.34-129.28 187.58-121.68s-17.74 30.42-17.74 30.42 10.14-1.9 2.53 7-27.25 31.05-27.25 31.05 8.24.64 1.9 6.34-52.6 48.16-121 69.08c-22.18 48.79-36.12 71.61-68.44 80.48-4.44 8.87-27.25 15.84-23.45 7.6-16.48 3.81-46.26 6.34-72.24-18.37-13.31-10.78-15.21-19-20.92-19s-46.16-2.99-46.3-10.82z" transform="translate(-97.44 -68.44)"/><path class="cls-5" d="M689.47 1434.57c-18.31 5.33-39.93 29.15-17.11 38-.64 18.38-12.75 27-22.22 27.76 20.3 10.38 81.79 26.11 124.88-29 19.64-31.69 10.14-64.64-85.55-36.76z" transform="translate(-97.44 -68.44)"/><path class="cls-7" d="M868.81 1424.06s-27.07 38-131.18 49.8c-19 8.24-74.2 7.56-74.49-9.21 9.22 7.94 70.67 14.56 78.92-40.39.64-6.17 30-8.07 27.26-3 10.14-7 22.81-4.75 20.91.32 5.23-3.33 18-5.43 16.32-.32 2.69-3.17 18.69-4 17.27.48 6.49-4.12 24.71-5.07 20.59 1.26 6.97-4 28.9-3.81 24.4 1.06z" transform="translate(-97.44 -68.44)"/><path class="cls-5" d="M738.38 1412.11c-6.18-.24-3.44-3.32 12-6.53s26.26-3.09 22.82 0-7.06.83-18.62 3.68-16.2 2.85-16.2 2.85z" transform="translate(-97.44 -68.44)"/><path class="cls-1" d="M588.84 1470.42c-10.06 4.15-25.24 6.1-34.43 11.49 15.42-15.29 44.43-26.74 47-23.89s-.08 7.26-12.57 12.4z" transform="translate(-97.44 -68.44)"/><path class="cls-2" d="M549.73 1486.85s6.93-16 17.18-26.48c3.63-3.72 10.2-12.68 11.78-10.15s1.94 6 6.84 8.31 15.14-3.61 16.76 0-12.17 1.71-21 6.14-28.71 16.8-31.56 22.18z" transform="translate(-97.44 -68.44)"/><path class="cls-3" d="M613.07 1444.39a7.58 7.58 0 1 1-7.57-7.79 7.69 7.69 0 0 1 7.57 7.79z" transform="translate(-97.44 -68.44)"/><path class="cls-4" d="M612 1444.39a6.51 6.51 0 1 1-6.51-6.69 6.61 6.61 0 0 1 6.51 6.69z" transform="translate(-97.44 -68.44)"/><path class="cls-5" d="M606.49 1443.33a2.09 2.09 0 1 1-2.09-2.09 2.09 2.09 0 0 1 2.09 2.09z" transform="translate(-97.44 -68.44)"/><path class="cls-11" d="M570.75 418.23s2.57-11.05-1.85-15.84-8.1-9.21-15.47-16.58-6.08-21.37-4.88-33.53-8.38-22.67-8-42.47 4.79-6.13 4.79-6.13 1.85-24.34 6.27-42.76 24.46-56 23.1-31.32-1.71 28.21-1.71 28.21 5.89-27.84 18.79-47.74 21-19.23 20.63-4.27-13.63 52-13.63 52 18.79-41.54 24.68-52 19.53-18.57 13.26 5.75-20.26 60.79-20.26 60.79 28-44.58 34.63-54.16 18.79-11.05 11.06 15.47-19.53 54.16-19.53 54.16 26.89-27.41 41.63-37.1 14.39 12-4.41 45.94c15.09-7 31.83-11.68 33.19-10.23-6 7.62-33.2 52.23-61.2 71.39C640 389.86 633 424.07 603 423.36s-32.25-5.13-32.25-5.13z" transform="translate(-97.44 -68.44)"/><path class="cls-5" d="M630.82 395.39s-19.92-6.15-28.76 3.74c-2.21-2.63 3.69-9.63 3.69-9.63s-14.37.05-15.48 4.81c-5.16-1.87 0-8.5 0-8.5S575 392 574.69 412.48s62.4 19.75 56.13-17.09z" transform="translate(-97.44 -68.44)"/><path class="cls-1" d="M718.24 528s-21 23.4-23.56 25.61-5.55 12.88-2.76 15.44 6.23 6.42 9.76 6.7 6.54 1.19 7.27 2.88 9.84 5.58 13.88-1c-5.18 4.25-9.24.62-9.24.62a3.88 3.88 0 0 0-2.45-4c6.44.78 6.88-.5 7.43-2.83-2.47 3.2-5.89.36-5.89.36s1.92-.62 3.09-3.94c-2.49 1.68-4 2.34-6.13 1-2.69-1.64-10.55 0-10.2-5.05.3-4.52 8.69-.95 11.4-.17s4.36-2.36 4.36-2.36 8.4.24 7.66 7c3-3.45-3.61-9.7-8.07-9.51s-17.72.68-13.5-3.74 22-24.17 22-24.17.27-7.12-5.05-2.84z" transform="translate(-97.44 -68.44)"/><path class="cls-1" d="M706 525.5s-19.48 21.75-21.91 23.81-5.16 12-2.56 14.36 5.79 6 9.07 6.23.8-9.91 4.55-11.83-8.84-3.35-4.92-7.46 20.42-22.47 20.42-22.47.27-6.62-4.65-2.64z" transform="translate(-97.44 -68.44)"/><path class="cls-11" d="M679.06 505s-4.45 3.8 11.23 12.17 37.7 20.78 42.22 8.22 10.8-19.76 22-17.46 14.88-3.63 14.88-3.63 9.89 6.16 12.5-1.55c7 2.44 9.27-2.32 10.23-4.74 69.88 18.26 124.54 33.64 127 25.12 15.32 4 20.93 2.75 21.18.16 17.11 4.48 32.48 5.13 33-.06 34.72 5.3 51.81 6.74 54.9-6.16.58-4-29.17-3.2-37.12-3.21s-75.76-7.94-98.76-11.55-101.44-19.39-115.89-25.51-45.07-22.17-62.64-18.42-37.29 31.96-34.73 46.62z" transform="translate(-97.44 -68.44)"/><path d="M519.31 425.38c.44-3.73 22.59-20 53.94-13.21s36.41 4.56 44.51.82 20.15-13 47.47 2.67 39.83 33.72 68.1 44.12-15.85 62.63-50.49 52.68-42.34-16.73-61.33-23.93-21.81-11.29-33.27-14-35.39-18.33-44.57-25.84-25.1-17.04-24.36-23.31z" transform="translate(-97.44 -68.44)"/><path class="cls-1" d="M497.75 426.17s27.11 9.41 30.23 10.55 9.79-4.58 7.42-5.75-20-8.3-24.14-7.55-12.69-.66-13.51 2.75z" transform="translate(-97.44 -68.44)"/><path class="cls-2" d="M491.59 428s6.84-8.78 15-8.9 12.73-.17 15.94-.92 6.73-2.89 7.61-1.37-2.37 3.2-2.43 5.84 9.6 5 9.1 8.65-2.56.19-10-2.41-17.41-7.22-35.22-.89z" transform="translate(-97.44 -68.44)"/><path class="cls-5" d="M623.43 427.44s5.16 3.17 8.84 5.46c-1.47 2.65-3.68 3.09-6.63 4 11.79.15 16.58 9.36 18.42 11.94-3.31-1.1-7.37-2.21-7.37-2.21s9.95 4 11.42 19.16c-2.21 2.58-8.47 0-8.47 0s4.05 4.79 8.47 4.42c-2.21 2.58-9.57 2.21-9.57 2.21s1.47 3.69 6.63 5.16c-.37 4.79-7 4.05-7 4.05s4.47 4.42 3.68 9.95c-1.84-1.47-6.08-1.84-6.08-1.84s-6.44 2.94 31.13 15.1c-4.42-3.68 0-7 0-7s8.3-.16 15.85 9.58c4 .74 2.21-4.79 2.21-4.79s6.41-1.1 10.57 7.74c3.06.37 3.06-7.74 3.06-7.74s5.06-1.47 8.61 4.42a11.32 11.32 0 0 0 0-8.84 99.29 99.29 0 0 0 13.86-.37c-4 1.85-3.31-6.26-3.31-6.26s5.91-6.17 11-3.32c2.58-2.21-2.21-9.21-2.21-9.21s7 .37 9.21 5.53c3-5.9-11.26-30.05-25.17-38.32S681.27 435 673.54 432.9c-.37 2.28 4.93 4 4.93 4s-20 1.48-30.72-4-15.11-4.72-24.32-5.46z" transform="translate(-97.44 -68.44)"/><path d="M621.71 413.38s12.29-11.48 12.77-38.74c-.24-10.07 12.28-18.43 24.32-27s28.49-27.51 36.84-39.05 24.81-29.23 33.16-46.67 17.93-39.3 22.11-52.32 8.1-19.65 6.38-3.19-9.82 39.79-14.49 49.12c13.51-20.63 27.51-42.49 30.21-68s8.35-16.95 7.62 1.72-12.78 54-25.3 67.54c24.07-28 37.58-45 42.73-75.4s8.85 2.94 3.69 21.12-17.44 40.28-31.2 56c26-24.81 34.15-35.37 42-51.83s17.43-24.07 4.17 11.06-35.12 53.54-35.12 53.54 36.59-23.09 49.61-36.1-1.72 10.8-15.47 26.52-20.14 25.55-20.14 25.55 23.82-10.32 36.59-14.74 8.36-.25-2.94 8.35-26.77 24.32-26.77 24.32 11.52-2.51 20.88-4.18 1.48 8.6-2 12.77a68.29 68.29 0 0 1-7.13 7.37s5.65-.24 2 7.62-8.1 10.24-8.1 10.24 3.44 2-.73 9.09a52 52 0 0 1-9.58 11.79s5.16 0 2.45 5.4a40.12 40.12 0 0 1-7.86 10.07s6.15 2.46 2 8.85a32.08 32.08 0 0 1-9.82 9.57s5.89 1.48 2.45 7.37a47.89 47.89 0 0 1-8.84 10.56s3.19 6.82.24 11.64a15 15 0 0 1-7.61 6.24 10.52 10.52 0 0 1-3.44 9.14A7.89 7.89 0 0 1 758 440s2.45 5.16-2 8.11-11 1.22-11 1.22a5.87 5.87 0 0 1-4.91 5.41 50.32 50.32 0 0 1-11.05 0s-3.84 7.28-6.64 3.08-7-11.29-21.1-16.29-41.3-31.16-79.59-28.15z" transform="translate(-97.44 -68.44)"/><path class="cls-5" d="M699.08 309.79c-1.67 1 27.66-38.07 31.76-46.66s8.77-18.92 13.43-30.95 8.85-27.76 10.32-26.28-1.23 15.72-4.18 24.31-7.36 21.77-10.8 27.59-36.61 49.54-40.53 51.99z" transform="translate(-97.44 -68.44)"/><path class="cls-5" d="M713.08 298.49c-1.19.4 11.3-16.7 16-22.84s12-13.26 16.94-20.14 10.81-18.42 16-28.24 10.31-26 11.79-34.64 4.42-19.65 5.16-13-1.23 21.12-3.44 29-6.14 23.33-17 39.79a188.47 188.47 0 0 1-27.68 33.16c-5.73 5.42-15.56 16.18-17.77 16.91z" transform="translate(-97.44 -68.44)"/><path class="cls-5" d="M720 298.5c-2.24 1.26.59-5.16 7-11.06s12.11-11.05 17.76-16.45 12-13 19.15-20.88 12.78-16.46 18.92-25.55a90.76 90.76 0 0 0 13.26-28.49c2.46-9.82 5.65-24.68 6.14-18.48a70.33 70.33 0 0 1-3.44 28.21c-3.93 11.15-7.61 19-16 32.25s-11.55 15.74-17.44 21.88-37.53 34.16-45.35 38.57z" transform="translate(-97.44 -68.44)"/><path class="cls-5" d="M723.15 303.65c-3.15.55 3.19-6.63 9.83-11.3s16.21-12.77 25.29-20.14a313 313 0 0 0 23.83-21.86 196.61 196.61 0 0 0 18.17-20.63c6.64-8.59 12-19.4 15.48-25.54s6.88-9.58 4.67-2.46-2.95 11.79-9.83 25.05-10.32 18.43-19.16 29.72-15.72 16.95-26.28 22.85-36.35 23.33-42 24.31zm3.85 6.16c-1.81-1 3.26-4.42 16-11.31s25.54-16.71 37.82-23.58 17.19-11.55 28-19.41 23.33-20.14 20.63-16a200.76 200.76 0 0 1-17.93 23.33c-8.59 9.58-11.79 16.46-16.94 20.63s-14.74 7.62-32.18 13.76S730.87 312 727 309.81zm3.84 8.83c-.28-4 6.07-6.88 22.77-13s24.31-9.83 34.87-13 18.92-8.84 27.76-11.3.74 4.18-4.42 9.58-11.05 9.64-12.77 12.8-13.51 7.76-34.39 10.38-33.72 6.05-33.82 4.54zm5.57 11.54c-.39-3.39 5.16-6.39 20.88-9.09s26.53-6.38 37.58-8.35 13-.24 8.6 6.27-6.39 10.92-16.46 11.17-50.1 4.17-50.6 0zm3.44 9.58c-1.07-4.06 10-3.44 21-3.19s34-5 29.62-.17-3.68 9-23.09 8.27-26.3-.24-27.53-4.91zm-.07 11.54c-1.31-3.7 5.48-4.17 18.25-3.68s33.16-3.87 27 1.75-9.63 12.74-24.22 12-18.15-1.96-21.03-10.07zM549 335.34c-.2 2.07-6.39-12.6-6.39-21.28s1.72-10 3.2-2.09 3.69 18.21 3.19 23.37zm5.41-15.23c-3.48 5.33-5.89 10.32-6.38-7.12s3.93-48.64 10.8-64.11 13.76-30.21 12.78-13.75-.74 26-1.72 30.45-5.41 13.27-8.11 26.53-3.19 21.61-7.37 28zm11.05-6.05c-4.18-.29-5.64-.34-4.17-8.69s3.44-12 9.09-30.93 7.12-26.79 14-42.51 15.23-32.91 20.87-30.45 4.18 11.54 0 25.54-5.89 23.08-17.43 49.49c-5.65 13.88-11.79 15.6-15 25.42s-4.11 12.35-7.36 12.13zm12.78 1.63c-4.74-.32-4.42-4.18-2.21-10.32s7.61-16.7 12.52-26 16.74-30.98 19.55-37.37 18.77-44.45 25.16-42.49-4.67 30.46-9.09 44.21-9.09 23.08-13.27 32.79-7.86 12.9-11.79 16.34-11.29 15.41-13.26 19.15-3.93 3.93-7.61 3.69zm12.28 5.45c-4.95-1.38.73-9.87 5.4-16s17.19-22.12 21.37-28.62 28.25-47.52 32.18-52.93 14.24-9.77 10.31 4.33-7.61 23.73-14.24 41.87-8.85 20.36-13 22.33-15.23 9.36-21.37 14.63-10.81 9.69-12.53 12.27-4.44 3.14-8.12 2.12zm14.32 5.86c-4.19-2.55-4.5-2.77 8.27-12.93s42.74-36.4 53.06-44 27.51-22.86 22.1-8.37a286.88 286.88 0 0 1-13.75 31.69c-3.69 7.12-3.44 8.86-24.81 16.83s-30 12.81-34.88 14.94-7.55 3.31-9.99 1.84zm13.68 8.54c-4.3-2.92-2-5.61 13.51-12.48s44-20.38 54.77-24.56 14.74-3.88 9.33 5.18-12.52 16.18-15.47 19.87-10.81 5.79-29.47 8.54-29.48 5.61-32.67 3.45zm12.03 10.93c-3.82-3.18 4.9-7.2 15.22-8.43s28.26-7.71 22.85-2.5-11.91 12.32-18.85 12.57-16.77.4-19.22-1.64zm9.09 8.76c-1-2 10.81-3.31 7.86-1.28s-6.88 3.25-7.86 1.28z" transform="translate(-97.44 -68.44)"/><path class="cls-3" d="M554.76 424.72a6.22 6.22 0 1 1-6.21-6.39 6.3 6.3 0 0 1 6.21 6.39z" transform="translate(-97.44 -68.44)"/><path class="cls-4" d="M553.89 424.72a5.34 5.34 0 1 1-5.34-5.49 5.42 5.42 0 0 1 5.34 5.49z" transform="translate(-97.44 -68.44)"/><circle class="cls-5" cx="450.2" cy="355.4" r="1.71"/></svg>