<svg data-name="Layer 1" xmlns="http://www.w3.org/2000/svg" xmlns:xlink="http://www.w3.org/1999/xlink" viewBox="0 0 904.76 1920"><defs><linearGradient id="f" x1="-126.06" y1="864.87" x2="-91.1" y2="935.63" gradientTransform="rotate(90 540 1100.43)" gradientUnits="userSpaceOnUse"><stop offset="0" stop-color="#535353"/><stop offset=".07" stop-color="#606060"/><stop offset=".2" stop-color="#717171"/><stop offset=".29" stop-color="#777"/><stop offset=".39" stop-color="#707070"/><stop offset=".55" stop-color="#5c5c5c"/><stop offset=".73" stop-color="#3b3b3b"/><stop offset=".94" stop-color="#0d0d0d"/><stop offset="1"/></linearGradient><radialGradient id="d" cx="60.38" cy="781.7" r="95.48" gradientTransform="rotate(90 540 1100.43)" gradientUnits="userSpaceOnUse"><stop offset="0" stop-color="#a8a8a8"/><stop offset="1"/></radialGradient><radialGradient id="h" cx="63.39" cy="780.43" r="94.15" gradientTransform="rotate(90 540 1100.43)" gradientUnits="userSpaceOnUse"><stop offset="0" stop-color="#a8a8a8"/><stop offset=".02" stop-color="#a5a5a5"/><stop offset=".37" stop-color="#5f5f5f"/><stop offset=".66" stop-color="#2b2b2b"/><stop offset=".88" stop-color="#0c0c0c"/><stop offset="1"/></radialGradient><linearGradient id="i" x1="19.97" y1="760.98" x2="67.86" y2="889.83" gradientTransform="rotate(90 540 1100.43)" gradientUnits="userSpaceOnUse"><stop offset="0" stop-color="#777"/><stop offset=".29" stop-color="#a8a8a8"/><stop offset=".56" stop-color="#535353"/><stop offset="1"/></linearGradient><linearGradient id="a" x1="-399.79" y1="996.69" x2="-58.86" y2="996.69" gradientTransform="rotate(90 540 1100.43)" gradientUnits="userSpaceOnUse"><stop offset="0"/><stop offset=".09" stop-color="#1f1f1f"/><stop offset=".31" stop-color="#686868"/><stop offset=".47" stop-color="#969696"/><stop offset=".55" stop-color="#a8a8a8"/><stop offset="1" stop-color="#eee"/></linearGradient><linearGradient id="j" x1="-559.4" y1="1072.38" x2="-378.66" y2="1018.95" xlink:href="#a"/><linearGradient id="k" x1="1.98" y1="1122.18" x2="239.71" y2="888.24" gradientTransform="rotate(90 540 1100.43)" gradientUnits="userSpaceOnUse"><stop offset="0"/><stop offset=".21" stop-color="#383838"/><stop offset=".45" stop-color="#747474"/><stop offset=".63" stop-color="#9a9a9a"/><stop offset=".73" stop-color="#a8a8a8"/><stop offset=".79" stop-color="#aeaeae"/><stop offset=".86" stop-color="silver"/><stop offset=".95" stop-color="#dcdcdc"/><stop offset="1" stop-color="#eee"/></linearGradient><linearGradient id="l" x1="-35.2" y1="1065.66" x2="165.58" y2="869.72" gradientTransform="rotate(90 540 1100.43)" gradientUnits="userSpaceOnUse"><stop offset="0"/><stop offset=".06" stop-color="#0d0d0d"/><stop offset=".27" stop-color="#3b3b3b"/><stop offset=".45" stop-color="#5c5c5c"/><stop offset=".61" stop-color="#707070"/><stop offset=".71" stop-color="#777"/><stop offset=".75" stop-color="#7d7d7d"/><stop offset=".81" stop-color="#8f8f8f"/><stop offset=".88" stop-color="#ababab"/><stop offset=".96" stop-color="#d3d3d3"/><stop offset="1" stop-color="#eee"/></linearGradient><linearGradient id="b" x1="126.31" y1="895.31" x2="62.61" y2="959.55" gradientTransform="rotate(90 540 1100.43)" gradientUnits="userSpaceOnUse"><stop offset="0" stop-color="#777"/><stop offset=".15" stop-color="#5c5c5c"/><stop offset=".41" stop-color="#343434"/><stop offset=".65" stop-color="#181818"/><stop offset=".85" stop-color="#060606"/><stop offset="1"/></linearGradient><linearGradient id="m" x1="126.22" y1="895.21" x2="62.52" y2="959.45" xlink:href="#b"/><linearGradient id="n" x1="125.92" y1="894.92" x2="62.22" y2="959.16" xlink:href="#b"/><linearGradient id="c" x1="62.79" y1="960.23" x2="128.38" y2="892.49" gradientTransform="rotate(90 540 1100.43)" gradientUnits="userSpaceOnUse"><stop offset="0"/><stop offset=".06" stop-color="#0d0d0d"/><stop offset=".27" stop-color="#3b3b3b"/><stop offset=".45" stop-color="#5c5c5c"/><stop offset=".61" stop-color="#707070"/><stop offset=".71" stop-color="#777"/><stop offset="1" stop-color="#777"/></linearGradient><linearGradient id="o" x1="62.44" y1="959.88" x2="128.02" y2="892.15" xlink:href="#c"/><linearGradient id="p" x1="61.86" y1="959.32" x2="127.44" y2="891.59" xlink:href="#c"/><linearGradient id="q" x1="48.15" y1="1123.46" x2="165.76" y2="1007.73" xlink:href="#a"/><linearGradient id="r" x1="97.52" y1="1167.41" x2="148.48" y2="1117.26" xlink:href="#a"/><linearGradient id="s" x1="107.62" y1="1124.97" x2="167.42" y2="1066.11" xlink:href="#a"/><linearGradient id="t" x1="-577.78" y1="1569.65" x2="-5.96" y2="1006.94" xlink:href="#a"/><linearGradient id="u" x1="-4.54" y1="1095.56" x2="127.68" y2="965.45" xlink:href="#a"/><linearGradient id="e" x1="233.49" y1="1243.69" x2="463.81" y2="1243.69" gradientTransform="rotate(90 540 1100.43)" gradientUnits="userSpaceOnUse"><stop offset="0" stop-color="#777"/><stop offset="1"/></linearGradient><linearGradient id="v" x1="250.8" y1="1138.62" x2="499.16" y2="1209.58" gradientTransform="rotate(90 540 1100.43)" gradientUnits="userSpaceOnUse"><stop offset="0" stop-color="#eee"/><stop offset=".05" stop-color="#dcdcdc"/><stop offset=".14" stop-color="silver"/><stop offset=".21" stop-color="#aeaeae"/><stop offset=".27" stop-color="#a8a8a8"/><stop offset=".51" stop-color="#878787"/><stop offset=".83" stop-color="#626262"/><stop offset="1" stop-color="#535353"/></linearGradient><radialGradient id="w" cx="395.19" cy="885.24" r="202.76" gradientTransform="rotate(91.1 540.337 1102.046)" xlink:href="#d"/><linearGradient id="x" x1="314.13" y1="1071.73" x2="466.97" y2="1071.73" xlink:href="#e"/><linearGradient id="y" x1="292.32" y1="1177.91" x2="436.67" y2="1205.16" xlink:href="#f"/><linearGradient id="g" x1="261.54" y1="1258.87" x2="175.53" y2="1665.27" gradientTransform="rotate(90 540 1100.43)" gradientUnits="userSpaceOnUse"><stop offset="0" stop-color="#eee"/><stop offset=".45" stop-color="#a8a8a8"/><stop offset=".53" stop-color="#969696"/><stop offset=".69" stop-color="#686868"/><stop offset=".91" stop-color="#1f1f1f"/><stop offset="1"/></linearGradient><linearGradient id="z" x1="587.59" y1="982.38" x2="690.85" y2="1206.11" gradientTransform="rotate(90 540 1100.43)" gradientUnits="userSpaceOnUse"><stop offset="0" stop-color="#eee"/><stop offset=".05" stop-color="#dcdcdc"/><stop offset=".14" stop-color="silver"/><stop offset=".21" stop-color="#aeaeae"/><stop offset=".27" stop-color="#a8a8a8"/><stop offset=".44" stop-color="#9a9a9a"/><stop offset=".75" stop-color="#757575"/><stop offset="1" stop-color="#535353"/></linearGradient><linearGradient id="A" x1="670.63" y1="1215.19" x2="727.88" y2="1254.7" gradientTransform="rotate(90 540 1100.43)" gradientUnits="userSpaceOnUse"><stop offset="0" stop-color="#535353"/><stop offset=".2" stop-color="#3c3c3c"/><stop offset=".53" stop-color="#1b1b1b"/><stop offset=".81" stop-color="#070707"/><stop offset="1"/></linearGradient><linearGradient id="B" x1="655.98" y1="930.25" x2="757.79" y2="1172.19" gradientTransform="rotate(90 540 1100.43)" gradientUnits="userSpaceOnUse"><stop offset="0" stop-color="#eee"/><stop offset=".04" stop-color="#d3d3d3"/><stop offset=".12" stop-color="#ababab"/><stop offset=".19" stop-color="#8f8f8f"/><stop offset=".25" stop-color="#7d7d7d"/><stop offset=".29" stop-color="#777"/><stop offset=".53" stop-color="#707070"/><stop offset=".88" stop-color="#5c5c5c"/><stop offset="1" stop-color="#535353"/></linearGradient><linearGradient id="C" x1="866.49" y1="1080.92" x2="802.79" y2="1145.16" gradientTransform="scale(1 -1) rotate(65.7 2555.17 -313.155)" xlink:href="#b"/><linearGradient id="D" x1="866.4" y1="1080.83" x2="802.7" y2="1145.07" gradientTransform="scale(1 -1) rotate(65.7 2555.17 -313.155)" xlink:href="#b"/><linearGradient id="E" x1="866.1" y1="1080.54" x2="802.4" y2="1144.77" gradientTransform="scale(1 -1) rotate(65.7 2555.17 -313.155)" xlink:href="#b"/><linearGradient id="F" x1="802.97" y1="1145.85" x2="868.56" y2="1078.11" gradientTransform="scale(1 -1) rotate(65.7 2555.17 -313.155)" xlink:href="#c"/><linearGradient id="G" x1="802.62" y1="1145.49" x2="868.19" y2="1077.77" gradientTransform="scale(1 -1) rotate(65.7 2555.17 -313.155)" xlink:href="#c"/><linearGradient id="H" x1="802.04" y1="1144.94" x2="867.62" y2="1077.21" gradientTransform="scale(1 -1) rotate(65.7 2555.17 -313.155)" xlink:href="#c"/><linearGradient id="I" x1="597.8" y1="1036.07" x2="656.66" y2="1190.08" gradientTransform="rotate(90 540 1100.43)" gradientUnits="userSpaceOnUse"><stop offset="0" stop-color="#a8a8a8"/><stop offset=".27" stop-color="#878787"/><stop offset=".56" stop-color="#6b6b6b"/><stop offset=".81" stop-color="#595959"/><stop offset="1" stop-color="#535353"/></linearGradient><linearGradient id="J" x1="590.28" y1="1029.59" x2="666.5" y2="1203.25" gradientTransform="rotate(90 540 1100.43)" gradientUnits="userSpaceOnUse"><stop offset="0" stop-color="#eee"/><stop offset=".09" stop-color="#dcdcdc"/><stop offset=".27" stop-color="silver"/><stop offset=".43" stop-color="#aeaeae"/><stop offset=".54" stop-color="#a8a8a8"/><stop offset=".83" stop-color="#868686"/><stop offset="1" stop-color="#777"/></linearGradient><linearGradient id="K" x1="586.61" y1="1188.79" x2="668.06" y2="1648.09" xlink:href="#g"/><linearGradient id="L" x1="761.55" y1="1091.29" x2="876.59" y2="1209.02" xlink:href="#g"/><linearGradient id="M" x1="737.52" y1="1114.77" x2="852.56" y2="1232.5" xlink:href="#g"/><linearGradient id="N" x1="909.66" y1="1032.94" x2="872.48" y2="1055.36" xlink:href="#a"/><linearGradient id="O" x1="844.16" y1="957.51" x2="885.24" y2="1040.67" gradientTransform="scale(1 -1) rotate(57.3 3018.975 -467.01)" gradientUnits="userSpaceOnUse"><stop offset="0"/><stop offset=".06" stop-color="#0d0d0d"/><stop offset=".27" stop-color="#3b3b3b"/><stop offset=".45" stop-color="#5c5c5c"/><stop offset=".61" stop-color="#707070"/><stop offset=".71" stop-color="#777"/><stop offset=".8" stop-color="#717171"/><stop offset=".93" stop-color="#606060"/><stop offset="1" stop-color="#535353"/></linearGradient><radialGradient id="P" cx="1167.5" cy="897.3" r="136.74" gradientTransform="scale(1 -1) rotate(57.3 3018.975 -467.01)" xlink:href="#d"/><radialGradient id="Q" cx="1162.75" cy="895.3" r="168.12" gradientTransform="scale(1 -1) rotate(57.3 3018.975 -467.01)" xlink:href="#h"/><linearGradient id="R" x1="1034.82" y1="826.13" x2="1091.09" y2="977.55" gradientTransform="scale(1 -1) rotate(57.3 3018.975 -467.01)" gradientUnits="userSpaceOnUse"><stop offset="0"/><stop offset=".44" stop-color="#535353"/><stop offset=".71" stop-color="#a8a8a8"/><stop offset="1" stop-color="#535353"/></linearGradient><linearGradient id="S" x1="917.01" y1="1086.04" x2="1013.26" y2="1086.04" xlink:href="#g"/><linearGradient id="T" x1="872.07" y1="1105.72" x2="1349.43" y2="1522.87" xlink:href="#g"/><linearGradient id="U" x1="966.21" y1="1229.66" x2="1342.24" y2="1478.13" xlink:href="#f"/></defs><path d="M799.63 564.08c18-11.7 20-24.65 20-24.65L712.22 332s-1.7-3.41-21.6 2.84-27.94 25.58-27.94 25.58l92.8 207.36s21.02 11.35 44.15-3.7z" fill="url(#f)"/><path d="M885.75 604c-23-57-66.12-64.59-66.12-64.59s-2 13-20 24.65c-23.13 15-44.15 3.74-44.15 3.74s-19.67 42.06 12.73 90.48c48.53 72.55 144.08 11.53 117.54-54.28z" fill="url(#d)"/><path d="M826.71 666.21q6.39-1.92 12-4.24c.68.83 1.35 1.65 2.06 2.48a.85.85 0 0 0 1.2.09.84.84 0 0 0 .09-1.2c-.58-.69-1.14-1.38-1.72-2.06a113.41 113.41 0 0 0 12.82-6.45c.84 1.08 1.68 2.13 2.51 3.15a.85.85 0 1 0 1.33-1.08c-.78-.95-1.57-1.94-2.36-2.95a101.5 101.5 0 0 0 10.66-7.41c.44 1.25.89 2.51 1.31 3.78a.85.85 0 1 0 1.62-.54c-.49-1.47-1-2.93-1.52-4.38a93.57 93.57 0 0 0 7.4-6.79c.37 1.54.7 3.08 1 4.64a.85.85 0 0 0 1 .67.84.84 0 0 0 .67-1c-.36-1.94-.81-3.86-1.3-5.77a80.61 80.61 0 0 0 6.6-8c.41 2.31.76 4.66 1 7.06a.84.84 0 0 0 .92.77.86.86 0 0 0 .77-.92 85.1 85.1 0 0 0-1.29-8.9 47.08 47.08 0 0 0 3.5-6 .85.85 0 1 0-1.56-.68 40 40 0 0 1-2.44 4.35 90.47 90.47 0 0 0-3.3-11.26c2.46-2.86 3.75-4.69 3.81-4.77a.86.86 0 0 0-.22-1.19.84.84 0 0 0-1.18.22c0 .07-1.1 1.55-3.08 3.9a102.1 102.1 0 0 0-5.9-12.58c3.39-3.26 5.29-5.41 5.36-5.5a.85.85 0 0 0-.08-1.2.86.86 0 0 0-1.21.08c-.07.08-1.82 2.07-4.94 5.1a133.59 133.59 0 0 0-25.55-31.37c2.31-2.5 3.52-4.12 3.57-4.18a.86.86 0 0 0-.18-1.2.87.87 0 0 0-1.2.19c0 .06-1.21 1.62-3.45 4-3.13-2.82-6.11-5.27-8.81-7.36 1.54-1.44 2.4-2.34 2.44-2.38a.85.85 0 1 0-1.24-1.17s-.95 1-2.56 2.5a116.76 116.76 0 0 0-11-7.54.86.86 0 0 0-1.16.32.91.91 0 0 0-.11.42.85.85 0 0 0 .43.74 118.92 118.92 0 0 1 10.59 7.22c-1.33 1.2-3 2.63-4.92 4.17-5.63-5.75-9.45-9-9.59-9.16a.85.85 0 0 0-1.2.09.89.89 0 0 0-.2.56.81.81 0 0 0 .3.64c.13.12 3.85 3.33 9.34 8.93a110.98 110.98 0 0 1-7 5c-4.1-4.66-6.71-7.21-6.8-7.3a.85.85 0 0 0-1.45.61.87.87 0 0 0 .26.62c.1.09 2.6 2.53 6.54 7a89.87 89.87 0 0 1-11.39 6.13c-2.22-4.45-3.52-7.17-3.58-7.3a.85.85 0 0 0-1.62.37.83.83 0 0 0 .08.37c.06.12 1.35 2.82 3.55 7.23a68.94 68.94 0 0 1-10.14 3.39c-1.46-5.25-2-8.32-2-8.43a.86.86 0 0 0-1.7.14.77.77 0 0 0 0 .15c0 .11.57 3.21 2 8.52q-1.24.27-2.49.48a.85.85 0 0 0-.71.84.76.76 0 0 0 0 .15.85.85 0 0 0 1 .69c.9-.15 1.79-.32 2.68-.52.88 3 2 6.71 3.52 10.86-.23 0-.45.1-.68.15a.85.85 0 0 0-.68.83 1 1 0 0 0 0 .17.85.85 0 0 0 1 .67c.31-.06.62-.14.92-.21a227.5 227.5 0 0 0 17.33 36.5c-1.71.38-3.43.72-5.18 1a.86.86 0 0 0-.73.84v.13a.85.85 0 0 0 1 .71c2-.29 3.93-.68 5.86-1.12 2.89 4.85 6.09 9.83 9.65 14.89a92.26 92.26 0 0 1-11.38 2.6.85.85 0 0 0-.71.84.71.71 0 0 0 0 .14.85.85 0 0 0 1 .7 94.39 94.39 0 0 0 12.11-2.82c3 4.13 6.14 8.32 9.59 12.53-3.54 1.43-7.3 2.77-11.32 4a.85.85 0 0 0-.61.82 1 1 0 0 0 0 .24.85.85 0 0 0 1.05.55zm26.87-13.62c-2.76-3.61-5.55-7.51-8.32-11.62a113.15 113.15 0 0 0 14.27-8.9q2.72 6.18 5.14 12.79a102.9 102.9 0 0 1-11.09 7.73zm-1.15-38.85a256.46 256.46 0 0 0-21.95-33.68c2.81-1.92 5.35-3.86 7.57-5.72a202.73 202.73 0 0 1 23.28 32.81c-2.69 2.15-5.67 4.38-8.9 6.59zm9.73-5.09a141.36 141.36 0 0 1 6.56 13.7c-2.5 2.29-5.33 4.69-8.49 7.09q-3.36-7.43-7-14.19c3.24-2.25 6.23-4.45 8.93-6.6zM851 614.7a122.82 122.82 0 0 1-16.53 9.3c-7.51-12.46-14.43-25.14-19.74-35.3a92.82 92.82 0 0 0 14.34-7.7A254.31 254.31 0 0 1 851 614.7zm.8 1.5c2.42 4.54 4.77 9.3 7 14.28a110.06 110.06 0 0 1-14.52 9.07c-3-4.55-6-9.29-8.94-14.09a123.36 123.36 0 0 0 16.48-9.26zm14.24 27.51c-1.6-4.36-3.32-8.6-5.12-12.68 3.13-2.36 5.95-4.74 8.45-7a112.45 112.45 0 0 1 4.18 12.67 95.49 95.49 0 0 1-7.49 7.01zm15.57-16.92a77.22 77.22 0 0 1-6.69 8.42 114.82 114.82 0 0 0-4.21-12.42c3.09-2.89 5.64-5.56 7.62-7.79a88.91 88.91 0 0 1 3.3 11.79zm-3.93-13.62c-1.93 2.21-4.48 4.94-7.65 7.93a141.84 141.84 0 0 0-6.55-13.53c3.25-2.64 6-5.13 8.3-7.26a99.81 99.81 0 0 1 5.92 12.86zm-6.77-14.38c-2.23 2.11-5 4.61-8.27 7.27a204.57 204.57 0 0 0-23.31-32.82c2.44-2.12 4.49-4.1 6.13-5.79a131.58 131.58 0 0 1 25.47 31.34zm-35.62-39.91c2.71 2.09 5.73 4.56 8.91 7.42-1.6 1.65-3.59 3.59-6 5.66-2.88-3.3-5.59-6.22-8-8.75a114 114 0 0 0 5.11-4.33zm-6.45 5.39c2.44 2.53 5.18 5.47 8.08 8.79a95.6 95.6 0 0 1-7.5 5.66c-2.84-3.64-5.45-6.78-7.68-9.36 2.64-1.73 5.02-3.46 7.12-5.09zm-8.54 6c2.23 2.57 4.85 5.72 7.7 9.38a90.74 90.74 0 0 1-14 7.54c-2.1-4-3.91-7.59-5.4-10.54a91.78 91.78 0 0 0 11.72-6.36zm-23.76 10.54a70.3 70.3 0 0 0 10.44-3.5c1.47 2.94 3.29 6.5 5.38 10.51a84 84 0 0 1-12.28 3.86c-1.47-4.14-2.64-7.81-3.52-10.85zm4.12 12.49a86.15 86.15 0 0 0 12.49-4c5.31 10.15 12.23 22.85 19.75 35.34a90.43 90.43 0 0 1-14.84 5.09 226.77 226.77 0 0 1-17.38-36.41zm18.32 38a92.51 92.51 0 0 0 14.81-5.15c2.93 4.83 5.94 9.59 9 14.16a97.85 97.85 0 0 1-14.18 5.75c-3.55-5.01-6.73-9.94-9.61-14.75zm10.66 16.21a99.7 99.7 0 0 0 14.07-5.77c2.79 4.14 5.6 8.08 8.38 11.72a112.7 112.7 0 0 1-12.92 6.44q-5.11-6.23-9.51-12.38z" fill="url(#h)"/><path d="M864 567.82s-34.09 49-113.53 44.87c0 0-2.69 10.55 4 17.42 0 0 87.32 4.07 119.9-48.49-.09 0-2.01-9.72-10.37-13.8z" fill="url(#i)"/><path d="M718.08 474.07c5-18.87 17.27-77.05 17.84-86.72s.15-49.44.15-49.44 1-54.66-.11-69.92-39.55-63-58.29-76.34c-11.94-8.51-20.89-22.19-25.82-31-13.56 10.31-65.69 47.64-115.73 53 3.73 15.34 9.35 39.64 12.23 58 4.55 29 2.28 52.86 9.67 71.26s26.4 28.83 26.4 28.83c5.44 22.09 26 22.71 26 22.71 10.3 22.76 30.85 22.2 30.85 22.2 7 42.69 33.18 33.79 33.18 33.79s-1 13.95-.9 19.44 5 22.3 18.06 29.66 21.48-6.6 26.47-25.47z"/><path d="M691.57 499.58c-7.79-4.39-12.67-12.14-15.36-18.85 8.61 8.27 18.91 16.64 23 14 7.69-4.8 17.9-42.63 23.87-78.44s.66-129.58 0-139.82c-1.7-26.43-41-58-51.15-70.77-6.47-8.15-20.63-25.68-30.27-37.75 4.37-3 7.83-5.6 10.14-7.36 4.93 8.82 13.88 22.5 25.82 31C696.41 205 734.89 252.74 736 268s.11 69.92.11 69.92.42 39.78-.15 49.44-12.86 67.85-17.84 86.72-13.5 32.86-26.55 25.5zm-81.19-105.09c10.3 22.76 30.85 22.2 30.85 22.2 7 42.69 33.18 33.79 33.18 33.79s-16.93-9-22-19.64a63.74 63.74 0 0 1-6-19.19s-19.18 1.71-31.12-21.74c0 0-17.87.38-24.3-24.3 0 0-21.74-12.79-26.43-29.84-2.94-10.69-9.23-28.1-13.52-39.58 1.37 18.2 1.8 33.83 7 46.76 7.39 18.41 26.4 28.83 26.4 28.83 5.42 22.09 25.94 22.71 25.94 22.71z" fill="url(#a)"/><path d="M625.1 0s22.73 78.44 22.44 90.94a52.33 52.33 0 0 1-6.31 22.74l14 44.33s-71.56 58-133.56 56.27l-18-40.92s-16.67-12.79-25.2-24.73S400.61 0 400.61 0z"/><path d="M655.24 158l-14-44.33a52.33 52.33 0 0 0 6.31-22.74C647.83 78.44 625.1 0 625.1 0h-29.83l30.38 101.74c-9.09 13.07-70.48 49.73-70.48 49.73 31.83-7.67 62.52-24.72 62.52-24.72l17.25 45.86c12.58-8.34 20.3-14.61 20.3-14.61z" fill="url(#j)"/><path d="M627.67 551.11s113.19 113.27 130.1 131.32c15.87 16.94 12.39 27.05 4.36 35.16S675.23 788 666.25 795s-17.86 10.26-30.18-1.1C624.92 783.63 489.42 657 483.49 650.7c-8.6-9.12-8.19-16.78-2.18-26 4.58-7.06 93.17-93 98.54-98.41s13.44-7.52 20.43-2.15 27.39 26.97 27.39 26.97z" fill="url(#k)"/><path d="M762.13 717.59c8-8.11 11.51-18.22-4.36-35.16-16.91-18-130.1-131.32-130.1-131.32s-20.4-21.61-27.39-27-15-3.22-20.43 2.15c-1.06 1.07-5.39 5.3-11.68 11.44 26.41 25.55 174 168.51 175.91 174.37 1.54 4.59 4 9.89 2 19.16 8.14-6.64 14.13-11.69 16.05-13.64z" fill="url(#l)"/><path d="M724.68 670a3.5 3.5 0 0 1 .94-2.58c1.24-1.25 3.46-1.29 6.25-.1a26.85 26.85 0 0 1 7.85 5.57c4 4 6.59 8.44 6.59 11.45a3.54 3.54 0 0 1-.94 2.58c-2.75 2.78-9.32-.74-14.11-5.46-4-3.93-6.58-8.46-6.58-11.46z" fill="url(#b)"/><path d="M702.81 648.15a3.56 3.56 0 0 1 .94-2.58c1.24-1.25 3.46-1.29 6.25-.1a27 27 0 0 1 7.86 5.57c4 4 6.58 8.44 6.58 11.46a3.53 3.53 0 0 1-.94 2.57c-2.75 2.78-9.32-.74-14.11-5.46-4-3.95-6.58-8.45-6.58-11.46z" fill="url(#m)"/><path d="M680.46 625.4a3.54 3.54 0 0 1 .94-2.58c1.24-1.25 3.46-1.29 6.25-.1a27 27 0 0 1 7.86 5.57c4 4 6.58 8.44 6.58 11.45a3.54 3.54 0 0 1-.94 2.58c-2.75 2.78-9.32-.74-14.11-5.46-3.99-3.95-6.58-8.45-6.58-11.46z" fill="url(#n)"/><path d="M745.16 686.3c-2 2-7.71-.44-12.81-5.47s-7.61-10.74-5.63-12.74 7.71.44 12.81 5.47 7.62 10.73 5.63 12.74z" fill="url(#c)"/><path d="M723.3 664.43c-2 2-7.72-.44-12.82-5.47s-7.61-10.74-5.63-12.74 7.72.44 12.81 5.47 7.62 10.73 5.64 12.74z" fill="url(#o)"/><path d="M701 641.68c-2 2-7.72-.44-12.82-5.47s-7.61-10.74-5.63-12.74 7.72.44 12.81 5.47 7.57 10.73 5.64 12.74z" fill="url(#p)"/><path d="M298.93 243.73c20.25 32.31 59.42 79.34 91.69 116.44s126.53 84.39 149.82 96.22 58.76 18.28 68.44 30.1 20.57 37.63 22.12 47.31a27.11 27.11 0 0 1-3.32 17.31s-18.43-20.54-27-20-18.08 3.81-17.67 8.33 17 54.55 27.36 77.41 40.43 80.38 39.36 89-7.39 14.94-18.75 11.77-35.92-39.19-35.92-39.19l-21.42-35.18s23.53 45.95 31 59.12 12 30.5 10.44 36.56c-2.15 8.19-12.93 16.11-25.9 4.66a122.72 122.72 0 0 1-15.54-16.13s-5.88 7.37-13 6.86-26.53-11.95-36.93-27.32c0 0-4.14 8.1-13.64 3.85s-35.85-30.78-39.61-35.65-32.39-48.19-41-61.05-58.19-51.86-67.86-70.15-24.45-62-32.55-71.64-172.8-146.06-199.68-166.49S0 172.61 0 172.61V0h154.45s32.44 41.15 53.94 86.31 52.17 96.21 90.54 157.42z"/><path d="M615.09 738.9c1.6-6.06-3-23.4-10.44-36.56s-31-59.12-31-59.12L551 589.17s25.06 75.32 25.06 76 30.64 55.61 34.27 66.11c2.24 6.46-2.26 12.85-8.11 18 6.68-.12 11.51-5.19 12.87-10.38z" fill="url(#q)"/><path d="M482.55 654.68s11.45 21.78 15.52 27.82 22.58 23 22.38 24.52c-.11.8-3.19 3.27-7.05 4.91a9.78 9.78 0 0 0 10.31-4.93s-21.6-24.11-25.23-28.35-15.93-23.97-15.93-23.97z" fill="url(#r)"/><path d="M529.72 661.19s9.48 23.53 21.31 43.69c4 6.88 17.14 19.47 17.14 22.17 0 2.86-4.17 5.28-8.7 7.06a11.58 11.58 0 0 0 1.17.18c7.13.51 13-6.86 13-6.86s-16.1-18.68-20.95-26.58-22.97-39.66-22.97-39.66z" fill="url(#s)"/><path d="M625.81 538.64a26.89 26.89 0 0 1-1.08 9.34c1.82 1.88 2.94 3.13 2.94 3.13A27.11 27.11 0 0 0 631 533.8c-1.54-9.68-12.43-35.48-22.11-47.31s-45.16-18.27-68.44-30.1-117.56-59.13-149.82-96.22-71.45-84.17-91.7-116.44c-38.37-61.21-69-112.27-90.54-157.42S154.45 0 154.45 0h-31.62c26.46 34.42 66.63 88.66 87.17 126.32 32.25 59.14 121.76 189.5 172.82 241.1 34.22 34.59 70.45 52.21 98.65 70.15 46.45 29.57 109.93 47.31 118.26 53.76s25.55 39.51 26.08 47.31z" fill="url(#t)"/><path d="M607.54 626.13c8.87 19.08 36.13 71.49 36.21 82.38 0 5-3.7 8-8 9.87 8.39.43 13.12-5.24 14-12.56 1.07-8.6-29-66.12-39.36-89S583.43 544 583 539.43c-.25-2.81 3.35-5.15 8.17-6.64-4-.86-9.3-.32-11.88 7.19-4.41 12.9 19.38 67.02 28.25 86.15z" fill="url(#u)"/><path d="M372.65 1024.14c-12.83-2.69-12.44-56.38.87-119.92S408 791.34 420.85 794s12.43 56.41-.85 120-34.53 112.83-47.35 110.14z" fill="url(#e)" fill-rule="evenodd"/><path d="M491.34 1058.54s80.5-65.11 60.05-232.57L420.85 794c12.83 2.69 12.43 56.38-.87 119.92s-34.51 112.88-47.33 110.19z" fill="url(#v)" fill-rule="evenodd"/><path d="M550.8 1027.31s116.47 65.2 177.18 34.13 65.29-137.63 7.64-164.66c-53.17-24.93-149-22.12-149-22.12L566 970.43z" fill="url(#w)" fill-rule="evenodd"/><path d="M550.8 1027.31c-8.51-2-7.39-37.78 2.49-79.94s24.8-74.71 33.31-72.71 7.39 37.78-2.49 79.94-24.8 74.71-33.31 72.71z" fill="url(#x)" fill-rule="evenodd"/><path d="M387.81 964.32L324.88 952c-22.95-67.58 20.59-101.67 20.59-101.67l64.21 13.5s8.16 8.94.29 49.73c-9.14 47.36-22.16 50.76-22.16 50.76zm146.34 29.06l19.67 3.89s14.35-2.47 23.75-42.75c8.89-38.1 0-55.07 0-55.07l-23.2-4.91c-1.73 41.35-10.1 73.96-20.22 98.84z" fill="url(#y)" fill-rule="evenodd"/><path d="M367.33 854.59a62.21 62.21 0 0 0-4.05-36.42c-8.33-19.31-20.23-58.86-47.64-58.86S275.32 775 275.32 775s-35.95-.38-54 15.46-48.88 6-76-.5S0 719 0 719v193.82s86.83 11.12 112.13 30 26.88 20.2 32.42 29.4 10.84 20.75 19.4 24 17.5-3.09 24.8 9.23 18.05 22.75 36.58 22.71 31.72 4.49 43.48 10.9 27.66-10.19 37.45-20.24 36.48-7.41 49.08-8.7 23.4-11.58 20.78-33.59-20.97-80.95-8.79-121.94z"/><path d="M0 719v25c33.79 16.43 186.74 88.37 219.69 60.5 28.45-24.07 60.2-20.23 60.2-20.23s23.12-16.12 38.31-15 45 58.06 45.08 78.49a196.48 196.48 0 0 0 1.24 20 93.16 93.16 0 0 1 2.81-13.11 62.21 62.21 0 0 0-4.05-36.42c-8.33-19.31-20.23-58.86-47.64-58.86S275.32 775 275.32 775s-35.95-.38-54 15.46-48.88 6-76-.5S0 719 0 719z" fill="url(#g)" fill-rule="evenodd"/><path d="M527.31 1318.16L693 1250.3s18.16-22.34 2.56-52c0 0-109.89-90.56-118-96.76-8.84-6.73-9.74-11.67-26.49-6s-208.89 79.8-208.89 79.8-9 3.62-14.91 19.36c-4.82 12.9-6 19.35-4.44 25.8S471 1345.72 471 1345.72z" fill="url(#z)" fill-rule="evenodd"/><path d="M471 1345.72c7.06-15.29 15.28-40.32 5.18-59.52 0 0-93.48-84-127.26-113.34l-6.78 2.52s-9 3.62-14.91 19.36c-4.82 12.9-6 19.35-4.44 25.8S471 1345.72 471 1345.72z" fill="url(#A)" fill-rule="evenodd"/><path d="M693 1250.3s17.16-21.12 3.78-49.55l-220.6 85.45c10.1 19.2 1.88 44.23-5.18 59.52l56.27-27.56z" fill="url(#B)" fill-rule="evenodd"/><path d="M561.59 1282.74a3.54 3.54 0 0 0-.2 2.74c.62 1.65 2.63 2.59 5.66 2.65a27 27 0 0 0 9.45-1.85c5.26-2 9.46-5 10.7-7.76a3.52 3.52 0 0 0 .2-2.73c-1.37-3.66-8.8-3.15-15.11-.8-5.29 2.01-9.47 5.01-10.7 7.75z" fill="url(#C)"/><path d="M532.68 1293.72a3.54 3.54 0 0 0-.2 2.74c.62 1.65 2.63 2.59 5.66 2.65a26.69 26.69 0 0 0 9.44-1.85c5.27-2 9.47-5 10.71-7.75a3.5 3.5 0 0 0 .19-2.74c-1.36-3.66-8.8-3.15-15.1-.8-5.27 1.97-9.47 5.03-10.7 7.75z" fill="url(#D)"/><path d="M503 1305.31a3.53 3.53 0 0 0-.19 2.74c.61 1.65 2.62 2.59 5.65 2.65a27 27 0 0 0 9.45-1.85c5.27-2 9.47-5 10.7-7.76a3.47 3.47 0 0 0 .2-2.73c-1.36-3.67-8.8-3.15-15.1-.8-5.31 1.96-9.51 5-10.71 7.75z" fill="url(#E)"/><path d="M587 1276.29c-1-2.64-7.22-2.76-13.93-.26s-11.35 6.67-10.36 9.31 7.22 2.76 13.93.26 11.29-6.66 10.36-9.31z" fill="url(#F)"/><path d="M558 1287.27c-1-2.64-7.22-2.76-13.93-.26s-11.35 6.67-10.36 9.31 7.22 2.76 13.92.26 11.37-6.66 10.37-9.31z" fill="url(#G)"/><path d="M528.33 1298.86c-1-2.64-7.23-2.76-13.93-.26s-11.35 6.66-10.37 9.31 7.22 2.76 13.93.26 11.35-6.67 10.37-9.31z" fill="url(#H)"/><path fill="url(#I)" d="M552.92 1126.61l83.17 69.77-136.18 53.06-76.46-73.22 129.47-49.61z"/><path fill="url(#J)" d="M552.75 1127.66l81.57 68.43-134.19 52.28-75-71.82 127.62-48.89z"/><path d="M459.45 1205.86c5.43-4.77 9.28-31.28-7.28-42-13.28-8.61-43.4-.82-58.27 9.66s-37.36 10.59-45 9.65-39.71-5.41-60.55 11.29-44.49 19.38-83.73 14S0 1185.19 0 1185.19v213.5s163.6-34.51 199.77-38.57 57.78-7.66 81.09 4.6 20.75 13.27 30.43 16a30.13 30.13 0 0 0 18.29-1s19.2 16.07 33.7 19.35 30.62-12.67 30.62-12.67 48.76 23.32 58.83 20.9 19.4-23.58 19.4-23.58 23.32 7 33.81 2.81 15.79-9.13 19.38-17.36 2-50.92 2-50.92-29 14.41-37 11.24-52.12-41.91-57.83-54.26-13.64-33.81 26.96-69.37z" fill-rule="evenodd"/><path d="M0 1185.19v19.3c39 3.71 188.2 17.87 209.2 19.28 24.19 1.61 47.57 4.83 64.51-8.07s48.38-23.38 74.18-21.77 41.13-4 60.48-17.74c13.4-9.49 34.77-10.48 46.64-10.18a23.1 23.1 0 0 0-2.84-2.17c-13.28-8.61-43.4-.82-58.27 9.66s-37.36 10.59-45 9.65-39.71-5.41-60.55 11.29-44.49 19.38-83.73 14S0 1185.19 0 1185.19z" fill="url(#K)" fill-rule="evenodd"/><path d="M505.94 1386.44c10.48-4.23 15.79-9.13 19.38-17.36s2-50.92 2-50.92-1.47.73-3.84 1.83c-1.17 12.23-4.37 42.77-7.7 49.19-4.19 8.06-16.55 13.44-20.85 13.44s-22.79 1-22.79 1 23.31 7.05 33.8 2.82z" fill="url(#L)" fill-rule="evenodd"/><path d="M452.73 1407.21c10.07-2.42 19.4-23.58 19.4-23.58l-8.45-4.78s-6.2 21-13.82 22.58-56-15.12-56-15.12 48.8 23.32 58.87 20.9z" fill="url(#M)" fill-rule="evenodd"/><path d="M608.75 1462.85s4.43-29-15.34-30.78c-15.35-1.35-29 25.58-24.58 49.68 0 0 35.43-8.57 39.92-18.9z"/><path d="M605.68 1466.68a11.31 11.31 0 0 0 3.07-3.83s4.43-29-15.34-30.78c-6.79-.6-13.24 4.34-17.94 12.12 6.89-4 15.09-7.23 20.78-4.73 9.12 4.02 9.63 20.38 9.43 27.22z" fill="url(#N)"/><path d="M764.18 1399.35c10.38 23 4.17 37.05 4.17 37.05l-271.63 159.33s-3.85 2.3-19.58-16.49-11.45-43-11.45-43l257.16-168.54s27.97 2.1 41.33 31.65z" fill="url(#O)"/><path d="M874.72 1414.37c-58.94 41.89-106.37 22-106.37 22s6.21-14.09-4.17-37.05c-13.36-29.55-41.33-31.67-41.33-31.67s7.18-54.09 69.91-81.49c93.99-41.01 149.9 79.92 81.96 128.21z" fill="url(#P)"/><path d="M854.27 1315.32a1 1 0 0 0-.19.21 1 1 0 0 0 .09 1.2c3.21 3.74 6.08 7.45 8.67 11.11q-9.11 3-17.43 6.33a106.07 106.07 0 0 0-10.23-10.49 1 1 0 0 0-1.41.07 1.13 1.13 0 0 0-.1.13 1 1 0 0 0 .18 1.29 107.76 107.76 0 0 1 9.61 9.78c-6.73 2.75-13.05 5.65-19 8.61-1.64-1.65-3.32-3.27-5.09-4.81a1 1 0 0 0-1.41.09.47.47 0 0 0-.09.12 1 1 0 0 0 .18 1.29c1.57 1.37 3.06 2.8 4.52 4.26a266.67 266.67 0 0 0-40.28 25.14c-.26-.26-.51-.53-.78-.79a1 1 0 0 0-1.42 0 .79.79 0 0 0-.12.15 1 1 0 0 0 .15 1.26l.57.58c-4.09 3.17-7.56 6-10.36 8.51-.76-.76-1.53-1.49-2.32-2.21a1 1 0 0 0-1.42.07 1.13 1.13 0 0 0-.1.13 1 1 0 0 0 .17 1.29c.74.66 1.46 1.35 2.17 2-4.83 4.32-7.35 7-7.44 7.14a1.13 1.13 0 0 0-.1.13 1 1 0 0 0 1.58 1.22c.09-.1 2.58-2.79 7.35-7.06a79 79 0 0 1 7.9 9.78c-5 3-8 4.82-8.1 4.91a1 1 0 0 0-.32.31 1 1 0 0 0 0 1.07 1 1 0 0 0 1.38.32c.13-.09 3.14-2 8.17-5a105.29 105.29 0 0 1 7.38 13.28c-6.73 1.93-10.75 2.76-10.9 2.79a1 1 0 0 0-.65.44 1 1 0 0 0-.14.74 1 1 0 0 0 1.18.78c.15 0 4.35-.9 11.35-2.91 1.49 3.32 2.74 6.51 3.78 9.42-9 2.06-14.69 2.89-14.89 2.92a1 1 0 0 0-.71.45.94.94 0 0 0-.15.68 1 1 0 0 0 1.13.85c.2 0 6.07-.87 15.29-3 .93 2.75 1.67 5.2 2.23 7.23a135 135 0 0 1-15 .44 1 1 0 0 0-.9.46 1.05 1.05 0 0 0-.16.49 1 1 0 0 0 1 1 136.73 136.73 0 0 0 15.68-.47c.64 2.5.94 4 .95 4.09a1 1 0 0 0 2-.37c0-.07-.29-1.51-.9-3.9 4-.36 8.49-.91 13.38-1.71a61.72 61.72 0 0 1 .85 6.19 1 1 0 0 0 1.07.94 1 1 0 0 0 .93-1.07c0-.09-.18-2.46-.88-6.4a157.12 157.12 0 0 0 45.15-14.86c1.17 5 1.65 8.06 1.67 8.18a1 1 0 0 0 2-.3c0-.13-.54-3.45-1.82-8.83a119.78 119.78 0 0 0 13.81-8.72c.46 3.58.56 5.72.57 5.82a1 1 0 0 0 1 1 1 1 0 0 0 1-1c0-.11-.13-2.75-.74-7.13a108.41 108.41 0 0 0 10.4-9.06 46.75 46.75 0 0 1-.35 5.85 1 1 0 1 0 2 .32 52.22 52.22 0 0 0 .36-8.19 103.15 103.15 0 0 0 6.92-8 1 1 0 0 0-.18-1.41 1 1 0 0 0-1.4.18c-1.74 2.24-3.57 4.34-5.44 6.37a95.36 95.36 0 0 0-1.45-12.12c1.69-1.58 3.35-3.2 4.94-4.88a1 1 0 0 0-1.46-1.38q-1.9 2-3.93 4a108.34 108.34 0 0 0-3-11.4c1.44-1.1 2.86-2.22 4.29-3.37a1 1 0 0 0-1.27-1.56c-1.22 1-2.45 1.95-3.69 2.91a119.42 119.42 0 0 0-5.85-14.09c1.42-.5 2.82-1 4.2-1.42a1 1 0 0 0-.62-1.91q-2.21.72-4.47 1.53a137.85 137.85 0 0 0-8.61-14.5c1-.32 2-.64 3-1a1 1 0 0 0-.58-1.92c-1.22.37-2.41.76-3.61 1.14-2.72-3.88-5.76-7.81-9.17-11.78a1 1 0 0 0-1.57.03zm25.45 45.28q-6.57 5-13.19 9.41a132 132 0 0 0-8.48-17.85c5.34-2.32 10.58-4.42 15.59-6.24a118.43 118.43 0 0 1 6.08 14.68zm-27.2 35.21a238.26 238.26 0 0 1-43.82 17.73c-1-3.26-2.3-6.78-3.87-10.46a301 301 0 0 0 43.07-19.43c1.79 4.23 3.32 8.35 4.62 12.16zm-2.87-13.14c5.24-2.94 10.56-6.14 15.91-9.63 1.61 4.38 2.89 8.56 3.91 12.41a166.39 166.39 0 0 1-15.17 9.4c-1.3-3.85-2.85-7.94-4.65-12.18zM804 1401.25a107.72 107.72 0 0 0-9.31-16.69c11.7-6.69 26.58-14.86 41.9-22.43a142.39 142.39 0 0 1 10.47 19.67 299.88 299.88 0 0 1-43.06 19.45zm34.39-40c5.93-2.9 11.91-5.7 17.78-8.28a128.84 128.84 0 0 1 8.62 18.17q-8.05 5.28-16 9.69a145 145 0 0 0-10.36-19.59zm44.92 13.09a130.65 130.65 0 0 1-12.15 9.88c-1-3.83-2.33-8-3.93-12.28 4.37-2.91 8.75-6 13.1-9.3a108.34 108.34 0 0 1 3.02 11.69zm-9 24.49c-.55-3.46-1.37-7.72-2.6-12.54a137.11 137.11 0 0 0 12-9.62 89.87 89.87 0 0 1 1.28 12.58 104.28 104.28 0 0 1-10.65 9.57zm-15.78 10.38c-.89-3.53-2.08-7.76-3.61-12.43a166.54 166.54 0 0 0 15-9.25c1.24 5 2 9.29 2.54 12.7a115.2 115.2 0 0 1-13.9 8.97zm-46.88 15.86c-.54-2.71-1.31-6-2.39-9.62a241.44 241.44 0 0 0 43.87-17.71c1.53 4.7 2.7 8.93 3.57 12.43a154.64 154.64 0 0 1-45.02 14.89zm-17.79-5.49c4-1 8.55-2.13 13.49-3.56 1 3.56 1.8 6.74 2.33 9.38-5 .82-9.5 1.35-13.52 1.71-.54-2.11-1.3-4.66-2.27-7.54zm-4.47-11.42c3.85-1.15 8.41-2.6 13.53-4.41 1.56 3.65 2.83 7.14 3.85 10.36-5 1.44-9.56 2.62-13.57 3.58a113.76 113.76 0 0 0-3.78-9.54zm-8.39-15.59c3.34-2 7.4-4.36 12-7a105.81 105.81 0 0 1 9.15 16.36c-5.14 1.81-9.73 3.27-13.56 4.4a108.67 108.67 0 0 0-7.59-13.76zm1.16-20.26a96.52 96.52 0 0 1 9.7 11.6c-4.6 2.64-8.66 5-12 7a82.58 82.58 0 0 0-8.12-10.08c2.81-2.46 6.26-5.35 10.4-8.52zm41.91-26.31a105.47 105.47 0 0 1 11.45 14.44c-15.35 7.6-30.24 15.78-41.93 22.47a99.75 99.75 0 0 0-9.85-11.83 264.37 264.37 0 0 1 40.33-25.08zm20.73-9.44a115.59 115.59 0 0 1 10.39 14.67c-5.9 2.59-11.9 5.4-17.86 8.32a109.61 109.61 0 0 0-11.39-14.48c5.9-2.92 12.17-5.79 18.86-8.51zm19.24-7a133.19 133.19 0 0 1 8.7 14.56c-5 1.84-10.32 4-15.71 6.3a116.8 116.8 0 0 0-10.27-14.63c5.5-2.19 11.24-4.28 17.24-6.23z" fill="url(#Q)"/><path d="M830.21 1436.4s-2.66-70.15-83.93-116.33c0 0 4-12.15 15-14.74 0 0 87.95 42.61 87.94 124-.05-.04-8.11 8.36-19.01 7.07z" fill="url(#R)"/><path d="M634.32 1501.65c4.1-11.07-7.89-31.23-25.44-21.74s-41.78 31.75-41.78 31.75-2.45-34.87-14.07-48.89-25-9.35-32.84-6-9.82 19.33-9.82 19.33-6.11-16.15-25.83-17.7-24.19 6.25-27.87 24.12c0 0-15.51-14-26.26-12.06s-23.12 18.65-26.34 28.32-17.74 46.49-17.74 46.49-26.7 24-30.24 65.69 3.16 52.56-21.41 83-111 142.63-210.95 226H408.4s51.57-116.47 72.54-145.5 35.08-54.52 52.5-66.94 63.14-39.6 73.46-60.11 9.46-64.8 8.67-81.43 14.09-51.73 18.75-64.33z"/><path d="M480.94 1573.7s45.91-29.7 82.63-22.7c0 0 4.44-34.31 25-49.33 15-10.92 28.19-18.91 39.27-20.41-4.67-4-11.29-5.48-19-1.33-17.56 9.49-41.78 31.75-41.78 31.75s-9.11 15.54-8.93 33.56c.04-.02-49.78-8.93-77.19 28.46z" fill="url(#S)"/><path d="M359.45 1673.44c2.69-12.9.54-35.48 5.44-65.93s29-55.13 29-55.13 4.79-15 9.93-35 27.92-44.5 34.42-41.15 38.25 34.55 39.21 40.3 1.87 48.27-2.37 60-11.89 17.3-11.89 17.3 10.48-3.23 15.11-9.34 9.68-62.93 6.23-71.3-18.9-30.77-18.9-30.77-.42-8.74 5.4-12.06 17.56-2.32 26 0c3.27.9 6.32 3.8 8.84 7 0 .06 6.22 25.86 7.65 36.39s0 31.38 0 31.38 5.29-22.84 5-30.36-5-32.39-5-32.39c1.1-5.86 3.22-14.42 6.64-18.41 5.48-6.41 16-3.63 22.44-2.83 4.09.52 12.7 10.64 18.46 18-2-6.34-4.63-12.29-8.06-16.43-11.61-14-25-9.35-32.84-6s-9.82 19.33-9.82 19.33-6.11-16.15-25.83-17.7-24.19 6.25-27.87 24.12c0 0-15.51-14-26.26-12.06s-23.12 18.65-26.34 28.32-17.74 46.49-17.74 46.49-26.7 24-30.24 65.69 3.16 52.56-21.41 83-111 142.63-210.95 226h23.48c131.52-121.49 209.67-234.02 212.27-246.46z" fill="url(#T)"/><path d="M206.78 1920c0-1.42-1.63-144.6 43.65-223.08 45-78 176.86-113.78 178.06-114.08l-1.57-6.25c-5 1.26-135.68 36.69-182.08 117.11-42.88 74.32-44.52 204.71-44.52 224v2.35z" fill="url(#U)"/></svg>