<svg data-name="Layer 1" xmlns="http://www.w3.org/2000/svg" viewBox="0 0 788 1761.79"><path d="M558.18 438.03q3.57 15.43 6.6 31.06 4.53-5.76 9.05-11.53c-1-13.61-1.78-27.19-2.58-40.52-.53-8.85-1.19-19.84 4.1-29.06 3.8-6.64 11.58-11.28 18.92-11.28a15.52 15.52 0 0 1 10 3.51c5.69 4.7 7 12.29 7.71 19 .32 2.85.61 5.71.91 8.57l13.74-17.5c5.45-6.93 11.2-14.88 10.17-23.64a11.12 11.12 0 0 0-3.06-6.83c-3-2.86-7.62-3.06-11.73-2.58-18.4 2.17-34.07 14.27-47 27.54-9.66 9.91-18.46 20.8-28.58 30.16 5.29 4.39 9.21 12.09 11.75 23.1zM170.43 587.3c-12.65-38.28-24-77.14-35.11-115-4.93-16.88-10-34.33-12.82-52.13-.93-5.88-.48-14.58 3.82-19.73a11.14 11.14 0 0 1 8.49-4.13h.27a15.21 15.21 0 0 1 8.54 3c11.51 7.75 15.77 21.76 19.53 34.12l.21.68a331.09 331.09 0 0 0 11.38 31.88c.34-34.2.22-62.51 0-66.24l-1.56-28.34c-1.12-7.09-1.92-14.83.35-22.36 2.49-8.29 10.14-16.67 19.94-16.67.52 0 1 0 1.58.07a18.31 18.31 0 0 1 12 6.21c3.23-3.41 6.22-7.13 9.08-10.77l94.12-119.81c5.44-6.94 11.2-14.89 10.17-23.65a11.23 11.23 0 0 0-3.06-6.83c-3-2.86-7.62-3.06-11.74-2.57-18.39 2.16-34.06 14.26-47 27.53s-24.27 28.33-39.33 39.07c-1.67 1.2-3.56 2.39-5.6 2.24-2.48-.18-4.37-2.24-5.79-4.27-12.15-17.48-8.46-41-4.89-62a1059.07 1059.07 0 0 0 12.63-107c.95-14.26 1.57-28.9-2.77-42.52-2.08-6.54-5.72-13.16-12-16-4.48-2-10.47-1.26-14 2.31-4.15 4.23-3.35 11.74-3.94 17.2q-2.37 22-5.62 43.85-6.53 43.74-16.57 86.85c-1.31 5.61-3.74 12.28-9.42 13.25q-1.9-78.39-10.57-156.43c-.67-6-1.69-12.65-6.36-16.51-7.08-5.85-18.66-1.24-23.23 6.73s-4.15 17.74-3.6 26.91c1.44 24 2.87 48 5.09 71.91 2.16 23.25 4.77 48.09-6.19 68.7A936.54 936.54 0 0 0 87 58.37c-2.44-10.59-7.42-23.29-18.24-24.32-8-.76-15.19 6.16-17.52 13.9s-1 16 .32 24L72 194.14c.76 4.58-.25 11.31-4.89 11-15.39-21.68-25.55-46.67-33.3-72.1-3.71-12.21-7.64-25.63-18.22-32.76A11.66 11.66 0 0 0 9 97.89c-8.09.2-9.89 11.48-8.64 19.47C3.11 134.89 8.1 151.97 13.08 169c14.07 48.12 28.15 96.27 44.82 143.54 4.44 12.6 9.09 25.23 11.22 38.42 3.46 21.42.13 215.32 2.35 236.91.38 3.63 1.08 1091.13 3 1173.89h94.12c.66-81.66 1.28-1169.58 1.84-1174.46z"/><path d="M300.66 701.99q-.89-16-1.76-31.91c-.24-4.24-.29-9 2.61-12.08s7.52-3.32 11.59-4.31c12.35-3 21.12-13.58 29-23.57l94.11-119.81c5.45-6.93 11.2-14.89 10.17-23.64a11.12 11.12 0 0 0-3.06-6.83c-3-2.86-7.62-3.06-11.73-2.58-18.4 2.17-34.07 14.27-47 27.54s-24.33 28.28-39.4 39.09c-1.67 1.2-3.55 2.38-5.6 2.24-2.48-.18-4.37-2.24-5.78-4.28-12.16-17.48-8.47-41-4.9-62a1058.53 1058.53 0 0 0 12.63-107c.95-14.26 1.57-28.9-2.77-42.52-2.08-6.54-5.72-13.16-12-16-4.47-2-10.47-1.26-14 2.32-4.15 4.22-3.35 11.74-3.94 17.2q-2.36 22-5.62 43.85-6.51 43.74-16.57 86.84c-1.31 5.62-3.74 12.29-9.42 13.26q-1.9-78.4-10.57-156.43c-.67-6-1.69-12.66-6.36-16.51-7.08-5.85-18.66-1.24-23.23 6.73s-4.15 17.73-3.6 26.9c1.44 24 2.87 48 5.1 71.92 2.15 23.24 4.76 48.08-6.2 68.7A934.72 934.72 0 0 0 213 360.59c-2.45-10.59-7.43-23.29-18.25-24.32-8-.77-15.19 6.16-17.52 13.89s-1 16 .32 24l20.4 122.19c.76 4.58-.25 11.3-4.88 11-15.4-21.68-25.56-46.67-33.3-72.11-3.72-12.2-7.65-25.62-18.23-32.75a11.58 11.58 0 0 0-6.59-2.36c-8.09.2-9.89 11.48-8.64 19.46C129 437.12 134 454.21 139 471.24c14.07 48.12 28.15 96.26 44.82 143.54 4.44 12.6 9.09 25.23 11.22 38.41 2.2 13.63 1.66 1044.14 1.54 1108.59h103.34c1.15-51.34 1.08-1054.44.74-1059.79z"/><path d="M491.34 599.73c-4.94-16.48-9.75-32.9-14.49-49.12-4.93-16.87-10-34.31-12.82-52.13-.93-5.88-.48-14.58 3.82-19.73a11.13 11.13 0 0 1 8.48-4.13h.27a15.21 15.21 0 0 1 8.55 3c11.5 7.75 15.77 21.76 19.53 34.12l.21.68c2 6.46 4 12.57 6.11 18.38 5.73-3.06 10.64-7.72 15.1-12.82l-10.83-64.89c-1.33-8-2.84-17-.21-25.73a25.92 25.92 0 0 1 6.32-10.55c-8.52-16.81-5.22-37.92-2-57A1059.07 1059.07 0 0 0 532 252.89c1-14.26 1.57-28.9-2.77-42.52-2.08-6.54-5.72-13.16-12-16-4.48-2-10.47-1.27-14 2.31-4.15 4.22-3.35 11.74-3.94 17.2q-2.36 22-5.62 43.85-6.51 43.74-16.57 86.84c-1.31 5.62-3.74 12.29-9.42 13.26q-1.9-78.39-10.57-156.43c-.67-6-1.69-12.66-6.36-16.51-7.08-5.85-18.66-1.24-23.23 6.73s-4.15 17.74-3.6 26.9c1.44 24 2.87 48 5.1 71.92 2.15 23.25 4.76 48.08-6.2 68.7a934.72 934.72 0 0 0-19.47-118.51c-2.35-10.64-7.35-23.34-18.16-24.37-8-.77-15.19 6.16-17.52 13.9s-1 16 .32 24l20.4 122.19c.76 4.58-.25 11.3-4.88 11-15.4-21.68-25.56-46.67-33.3-72.1-3.72-12.21-7.65-25.63-18.23-32.76a11.66 11.66 0 0 0-6.59-2.36c-8.09.2-9.89 11.48-8.64 19.47.53 3.38 1.16 6.73 1.84 10.08a18 18 0 0 1 2.94-.26 16.75 16.75 0 0 1 6.85 1.44c6.37 2.92 11.08 9.08 14 18.33 4.47 14.08 3.94 28.81 2.93 43.93q-.84 12.58-2 25.2c9.66 32.37 19.71 64.61 30.94 96.46 1.31 3.73 2.64 7.46 3.92 11.21 1.2-1.29 2.4-2.58 3.63-3.84 16.92-17.38 33-26.75 49.27-28.66a32.45 32.45 0 0 1 3.69-.23c4.72 0 8.46 1.29 11.12 3.84a14.72 14.72 0 0 1 4.22 9.13c1.17 10-4.77 18.56-11 26.45l-52.13 66.36c.46 53.47-.4 1129.76.2 1182.75h100.67c2.99-59.16 3.59-1125.73 3.5-1162.06z"/><path d="M642.18 1727.44c-.58-10.63-1.17-968.43-1.76-979.06-.23-4.24-.28-9 2.62-12.08s7.52-3.32 11.59-4.31c12.34-3 21.12-13.58 29-23.57q47.07-59.89 94.12-119.81c5.44-6.93 11.2-14.89 10.17-23.64a11.18 11.18 0 0 0-3.06-6.83c-3-2.86-7.62-3.06-11.74-2.58-18.39 2.17-34.06 14.27-47 27.53s-24.31 28.29-39.37 39.06c-1.67 1.2-3.56 2.38-5.6 2.24-2.48-.18-4.37-2.24-5.79-4.28-12.15-17.48-8.46-41-4.89-62a1058.53 1058.53 0 0 0 12.63-107c.95-14.26 1.57-28.9-2.77-42.52-2.08-6.54-5.72-13.16-12-16-4.48-2-10.47-1.26-14 2.32-4.15 4.22-3.35 11.74-3.94 17.2q-2.37 22-5.62 43.85-6.52 43.74-16.57 86.84c-1.31 5.62-3.74 12.29-9.42 13.26q-1.9-78.41-10.57-156.44c-.67-6-1.69-12.65-6.36-16.5-7.08-5.85-18.66-1.24-23.23 6.73s-4.15 17.73-3.6 26.9c1.44 24 2.87 48 5.09 71.92 2.16 23.24 4.77 48.08-6.19 68.7a937 937 0 0 0-19.45-118.48c-2.44-10.58-7.42-23.29-18.24-24.31-8-.77-15.19 6.16-17.52 13.89s-1 16 .32 24l20.4 122.19c.76 4.58-.25 11.3-4.89 11-15.39-21.68-25.55-46.67-33.3-72.11-3.71-12.2-7.64-25.62-18.22-32.76a11.65 11.65 0 0 0-6.59-2.35c-8.09.19-9.89 11.48-8.64 19.46 2.75 17.53 7.74 34.62 12.72 51.65 14.07 48.12 28.15 96.26 44.82 143.54 4.44 12.6 9.09 25.23 11.22 38.41 1.35 8.35 1.66 990 1.68 1030.29h104.14c.05-18.62-.05-31.9-.19-34.35z"/></svg>