<svg xmlns="http://www.w3.org/2000/svg" viewBox="0 0 970.1 1859"><path fill="#fff" d="M0 0h970.1v1859H0z"/><path d="M720.3 535.3c2.4 10.3 4.6 20.6 6.6 31.1 3-3.8 6-7.7 9-11.5-1-13.6-1.8-27.2-2.6-40.5-.5-8.8-1.2-19.8 4.1-29.1 3.8-6.6 11.6-11.3 18.9-11.3 3.6 0 7.2 1.2 10 3.5 5.7 4.7 7 12.3 7.7 19 .3 2.9.6 5.7.9 8.6l13.7-17.5c5.5-6.9 11.2-14.9 10.2-23.6-.2-2.6-1.3-5-3.1-6.8-3-2.9-7.6-3.1-11.7-2.6-18.4 2.2-34.1 14.3-47 27.5-9.7 9.9-18.5 20.8-28.6 30.2 5.5 4.3 9.4 12 11.9 23zM332.6 684.5c-12.6-38.3-24-77.1-35.1-115-4.9-16.9-10-34.3-12.8-52.1-.9-5.9-.5-14.6 3.8-19.7 2.1-2.6 5.2-4.1 8.5-4.1h.3c3.1.1 6.1 1.2 8.5 3 11.5 7.8 15.8 21.8 19.5 34.1l.2.7c3.2 10.8 7 21.5 11.4 31.9.3-34.2.2-62.5 0-66.2l-1.6-28.3c-1.1-7.1-1.9-14.8.4-22.4 2.5-8.3 10.1-16.7 19.9-16.7.5 0 1 0 1.6.1 4.6.5 8.9 2.7 12 6.2 3.2-3.4 6.2-7.1 9.1-10.8l94.1-119.8c5.4-6.9 11.2-14.9 10.2-23.6-.2-2.6-1.3-5-3.1-6.8-3-2.9-7.6-3.1-11.7-2.6-18.4 2.2-34.1 14.3-47 27.5s-24.3 28.3-39.3 39.1c-1.7 1.2-3.6 2.4-5.6 2.2-2.5-.2-4.4-2.2-5.8-4.3-12.1-17.5-8.5-41-4.9-62 6-35.4 10.2-71.1 12.6-107 1-14.3 1.6-28.9-2.8-42.5-2.1-6.5-5.7-13.2-12-16-4.5-2-10.5-1.3-14 2.3-4.1 4.2-3.4 11.7-3.9 17.2-1.6 14.7-3.5 29.3-5.6 43.9-4.4 29.2-9.9 58.1-16.6 86.9-1.3 5.6-3.7 12.3-9.4 13.2-1.3-52.3-4.8-104.4-10.6-156.4-.7-6-1.7-12.7-6.4-16.5-7.1-5.8-18.7-1.2-23.2 6.7s-4.1 17.7-3.6 26.9c1.4 24 2.9 48 5.1 71.9 2.2 23.2 4.8 48.1-6.2 68.7-3.9-39.9-10.4-79.4-19.5-118.5-2.4-10.6-7.4-23.3-18.2-24.3-8-.8-15.2 6.2-17.5 13.9s-1 16 .3 24l20.4 122.2c.8 4.6-.2 11.3-4.9 11-15.4-21.7-25.6-46.7-33.3-72.1-3.7-12.2-7.6-25.6-18.2-32.8-1.9-1.5-4.2-2.3-6.6-2.4-8.1.2-9.9 11.5-8.6 19.5 2.8 17.5 7.7 34.6 12.7 51.6 14.1 48.1 28.1 96.3 44.8 143.5 4.4 12.6 9.1 25.2 11.2 38.4 3.5 21.4.1 215.3 2.4 236.9.4 3.6 1.1 1091.1 3 1173.9h94.1c.7-81.7 1.3-1169.6 1.9-1174.5z"/><path d="M462.8 799.2c-.6-10.7-1.2-21.3-1.8-31.9-.2-4.2-.3-9 2.6-12.1s7.5-3.3 11.6-4.3c12.4-3 21.1-13.6 29-23.6l94.1-119.8c5.5-6.9 11.2-14.9 10.2-23.6-.2-2.6-1.3-5-3.1-6.8-3-2.9-7.6-3.1-11.7-2.6-18.4 2.2-34.1 14.3-47 27.5s-24.3 28.3-39.4 39.1c-1.7 1.2-3.5 2.4-5.6 2.2-2.5-.2-4.4-2.2-5.8-4.3-12.2-17.5-8.5-41-4.9-62 6-35.4 10.2-71.1 12.6-107 1-14.3 1.6-28.9-2.8-42.5-2.1-6.5-5.7-13.2-12-16-4.5-2-10.5-1.3-14 2.3-4.1 4.2-3.4 11.7-3.9 17.2-1.6 14.7-3.4 29.3-5.6 43.9-4.3 29.2-9.9 58.1-16.6 86.8-1.3 5.6-3.7 12.3-9.4 13.3-1.3-52.3-4.8-104.4-10.6-156.4-.7-6-1.7-12.7-6.4-16.5-7.1-5.9-18.7-1.2-23.2 6.7s-4.1 17.7-3.6 26.9c1.4 24 2.9 48 5.1 71.9 2.1 23.2 4.8 48.1-6.2 68.7-3.9-39.9-10.4-79.5-19.4-118.5-2.5-10.6-7.4-23.3-18.2-24.3-8-.8-15.2 6.2-17.5 13.9s-1 16 .3 24L360 593.6c.8 4.6-.2 11.3-4.9 11-15.4-21.7-25.6-46.7-33.3-72.1-3.7-12.2-7.6-25.6-18.2-32.8-1.9-1.4-4.2-2.3-6.6-2.4-8.1.2-9.9 11.5-8.6 19.5 2.7 17.5 7.7 34.6 12.7 51.6 14.1 48.1 28.1 96.3 44.8 143.5 4.4 12.6 9.1 25.2 11.2 38.4 2.2 13.6 1.7 1044.1 1.5 1108.6h103.3c1.3-51.2 1.3-1054.3.9-1059.7z"/><path d="M653.5 697c-4.9-16.5-9.8-32.9-14.5-49.1-4.9-16.9-10-34.3-12.8-52.1-.9-5.9-.5-14.6 3.8-19.7 2.1-2.6 5.2-4.1 8.5-4.1h.3c3.1.1 6.1 1.2 8.5 3 11.5 7.8 15.8 21.8 19.5 34.1l.2.7c2 6.5 4 12.6 6.1 18.4 5.7-3.1 10.6-7.7 15.1-12.8l-10.8-64.9c-1.3-8-2.8-17-.2-25.7 1.2-4 3.4-7.6 6.3-10.5-8.5-16.8-5.2-37.9-2-57 6-35.4 10.2-71.1 12.6-106.9 1-14.3 1.6-28.9-2.8-42.5-2.1-6.5-5.7-13.2-12-16-4.5-2-10.5-1.3-14 2.3-4.2 4.2-3.3 11.7-3.9 17.2-1.6 14.7-3.4 29.3-5.6 43.9-4.3 29.2-9.9 58.1-16.6 86.8-1.3 5.6-3.7 12.3-9.4 13.3-1.3-52.3-4.8-104.4-10.6-156.4-.7-6-1.7-12.7-6.4-16.5-7.1-5.9-18.7-1.2-23.2 6.7s-4.2 17.7-3.6 26.9c1.4 24 2.9 48 5.1 71.9 2.2 23.2 4.8 48.1-6.2 68.7-3.9-39.9-10.4-79.5-19.5-118.5-2.4-10.6-7.4-23.3-18.2-24.4-8-.8-15.2 6.2-17.5 13.9s-1 16 .3 24l20.4 122.2c.8 4.6-.2 11.3-4.9 11-15.4-21.7-25.6-46.7-33.3-72.1-3.7-12.2-7.6-25.6-18.2-32.8-1.9-1.4-4.2-2.3-6.6-2.4-8.1.2-9.9 11.5-8.6 19.5.5 3.4 1.2 6.7 1.8 10.1 1-.2 2-.3 2.9-.3 2.4 0 4.7.5 6.9 1.4 6.4 2.9 11.1 9.1 14 18.3 4.5 14.1 3.9 28.8 2.9 43.9-.6 8.4-1.2 16.8-2 25.2 9.7 32.4 19.7 64.6 30.9 96.5 1.3 3.7 2.6 7.5 3.9 11.2 1.2-1.3 2.4-2.6 3.6-3.8 16.9-17.4 33-26.8 49.3-28.7 1.2-.1 2.5-.2 3.7-.2 4.7 0 8.5 1.3 11.1 3.8 2.4 2.5 3.9 5.7 4.2 9.1 1.2 10-4.8 18.6-11 26.5l-52.1 66.4c.5 53.5-.4 1129.8.2 1182.8H650c3-59.4 3.6-1126 3.5-1162.3z"/><path d="M804.3 1824.7c-.6-10.6-1.2-968.4-1.8-979.1-.2-4.2-.3-9 2.6-12.1s7.5-3.3 11.6-4.3c12.3-3 21.1-13.6 29-23.6 31.4-39.9 62.8-79.9 94.1-119.8 5.4-6.9 11.2-14.9 10.2-23.6-.2-2.6-1.3-5-3.1-6.8-3-2.9-7.6-3.1-11.7-2.6-18.4 2.2-34.1 14.3-47 27.5s-24.3 28.3-39.4 39.1c-1.7 1.2-3.6 2.4-5.6 2.2-2.5-.2-4.4-2.2-5.8-4.3-12.2-17.5-8.5-41-4.9-62 6-35.4 10.2-71.1 12.6-107 1-14.3 1.6-28.9-2.8-42.5-2.1-6.5-5.7-13.2-12-16-4.5-2-10.5-1.3-14 2.3-4.2 4.2-3.3 11.7-3.9 17.2-1.6 14.7-3.5 29.3-5.6 43.9-4.3 29.2-9.9 58.1-16.6 86.8-1.3 5.6-3.7 12.3-9.4 13.3-1.3-52.3-4.8-104.4-10.6-156.4-.7-6-1.7-12.6-6.4-16.5-7.1-5.9-18.7-1.2-23.2 6.7s-4.2 17.7-3.6 26.9c1.4 24 2.9 48 5.1 71.9 2.2 23.2 4.8 48.1-6.2 68.7-3.9-39.9-10.4-79.4-19.5-118.5-2.4-10.6-7.4-23.3-18.2-24.3-8-.8-15.2 6.2-17.5 13.9s-1 16 .3 24l20.4 122.2c.8 4.6-.2 11.3-4.9 11-15.4-21.7-25.5-46.7-33.3-72.1-3.7-12.2-7.6-25.6-18.2-32.8-1.9-1.4-4.2-2.3-6.6-2.3-8.1.2-9.9 11.5-8.6 19.5 2.8 17.5 7.7 34.6 12.7 51.7 14.1 48.1 28.2 96.3 44.8 143.5 4.4 12.6 9.1 25.2 11.2 38.4 1.3 8.3 1.7 990 1.7 1030.3h104.1c.3-18.7.2-32 0-34.4z"/></svg>