<?xml version="1.0" encoding="utf-8"?>
<!-- Generator: Adobe Illustrator 23.0.2, SVG Export Plug-In . SVG Version: 6.00 Build 0)  -->
<svg version="1.1" id="Layer_1" xmlns="http://www.w3.org/2000/svg" xmlns:xlink="http://www.w3.org/1999/xlink" x="0px" y="0px"
	 viewBox="0 0 989.4 1859" style="enable-background:new 0 0 989.4 1859;" xml:space="preserve">
<style type="text/css">
	.st0{fill:#FFFFFF;}
	.st1{fill:none;stroke:#000000;stroke-width:10;stroke-linecap:round;stroke-linejoin:round;}
	.st2{fill:#FFFFFF;stroke:#000000;stroke-width:10;stroke-linecap:round;stroke-linejoin:round;}
</style>
<rect class="st0" width="989.4" height="1859"/>
<title>1-1</title>
<polyline class="st1" points="737.6,802.7 448.1,990.5 238.4,854.5 611.8,612.2 736.1,692.8 "/>
<path class="st1" d="M294.7,891c31.1-20.2,31.1-52.8,0-73"/>
<path class="st1" d="M555.5,648.7c31.1,20.2,81.5,20.2,112.5,0"/>
<path class="st1" d="M504.4,954c-31.1-20.2-81.4-20.2-112.5,0"/>
<polyline class="st1" points="736.6,846.7 448.1,1033.9 238.4,897.9 "/>
<polyline class="st1" points="736.1,890.5 448.1,1077.3 238.4,941.3 "/>
<polyline class="st1" points="734.4,935 448.1,1120.7 238.4,984.7 "/>
<polyline class="st1" points="737,976.7 448.1,1164.1 238.4,1028.1 "/>
<path class="st2" d="M978.4,934.9v40.4c0,37.2-54.2,67.3-121.2,67.3s-121.2-30.1-121.2-67.3v-40.4"/>
<path class="st2" d="M978.4,897.2v40.4c0,37.2-54.2,67.3-121.2,67.3s-121.2-30.1-121.2-67.3v-40.4"/>
<path class="st2" d="M978.4,859.5v40.4c0,37.2-54.2,67.3-121.2,67.3s-121.2-30.1-121.2-67.3v-40.4"/>
<path class="st2" d="M978.4,821.8v40.4c0,37.2-54.2,67.3-121.2,67.3s-121.2-30.1-121.2-67.3v-40.4"/>
<path class="st2" d="M978.4,784.1v40.4c0,37.2-54.2,67.3-121.2,67.3s-121.2-30.2-121.2-67.3v-40.4"/>
<path class="st2" d="M978.4,746.4v40.4c0,37.2-54.2,67.3-121.2,67.3S736.1,824,736.1,786.8v-40.4"/>
<path class="st2" d="M978.4,708.7v40.4c0,37.2-54.2,67.3-121.2,67.3s-121.2-30.1-121.2-67.3v-40.4"/>
<path class="st2" d="M978.4,671v40.4c0,37.2-54.2,67.3-121.2,67.3s-121.2-30.1-121.2-67.3V671"/>
<ellipse class="st2" cx="857.2" cy="673.7" rx="121.2" ry="67.3"/>
<path class="st1" d="M428.4,1151.3"/>
<path class="st2" d="M467.9,1151.2v334.6c0,9.8-8,18.1-17.8,18c-9.5-0.2-17.2-8-17.2-17.5v-332.1l11.6,7.5c2.2,1.5,5.1,1.5,7.4,0
	L467.9,1151.2z"/>
<path class="st2" d="M450.4,868.8c-9.7,0-17.5-7.8-17.5-17.5V362.9l-13.5,25.9c-4.5,8.5-15.1,11.8-23.7,7.3
	c-8.4-4.5-11.7-14.9-7.4-23.4l46.5-89.5c4.5-8.6,15.1-11.9,23.6-7.4c5.7,3,9.4,9,9.4,15.4v560C467.9,860.9,460,868.8,450.4,868.8z"
	/>
<path class="st2" d="M526.4,1113.3l-0.5,270.2c0,15.2,12.3,27.5,27.5,27.5c5.9,0,11.6-1.9,16.3-5.3c7-5.2,11.2-13.4,11.2-22.2V1078
	l35-22.7v328.2c0,34.5-28,62.5-62.5,62.5c-34.5,0-62.5-28-62.5-62.5v-247.2L526.4,1113.3z"/>
<path class="st2" d="M508.4,837.9c-9.7,0-17.5-7.8-17.5-17.5V299.1c0-34.5,28-62.5,62.5-62.5c34.5,0,62.5,28,62.5,62.5l0,0v472.3
	c0,9.7-7.8,17.5-17.5,17.5s-17.5-7.8-17.5-17.5V299.1c0-15.2-12.3-27.5-27.5-27.5c-5.8,0-11.5,1.9-16.3,5.3
	c-7.1,5.2-11.2,13.4-11.2,22.2v521.4C525.9,830.1,518.1,837.9,508.4,837.9C508.4,837.9,508.4,837.9,508.4,837.9z"/>
<path class="st2" d="M927.7,202.8l28.5,28.6c26.3,26.2,9.2,86-38.1,133.2s-107,64.4-133.3,38.1l-28.6-28.6"/>
<ellipse transform="matrix(0.7071 -0.7071 0.7071 0.7071 41.8223 681.7966)" class="st2" cx="843.9" cy="290.4" rx="121.2" ry="67.3"/>
<path class="st2" d="M278.9,170.9l-22.1,16.2c-20.4,14.9-58.6-2.8-85.4-39.4s-32-78.5-11.7-93.4l22.1-16.2"/>
<ellipse transform="matrix(0.8083 -0.5888 0.5888 0.8083 -18.4103 155.2576)" class="st2" cx="229.2" cy="105.9" rx="45.8" ry="82.4"/>
<path class="st2" d="M332.6,1362.1l-23.6,22.6c-21.7,20.8-69.7,6-107.2-33.1s-50.3-87.7-28.6-108.5l23.6-22.6"/>
<ellipse transform="matrix(0.7219 -0.692 0.692 0.7219 -821.5165 541.653)" class="st2" cx="263.1" cy="1292.9" rx="54.5" ry="98.1"/>
<path class="st2" d="M869.7,1656.3l19.9,20.5c18.3,18.8,5.7,60.9-28.3,93.8s-76.3,44.4-94.6,25.6l-20-20.5"/>
<ellipse transform="matrix(0.7172 -0.6969 0.6969 0.7172 -967.8441 1049.939)" class="st2" cx="809.6" cy="1717.3" rx="85.7" ry="47.6"/>
</svg>
