<svg id="Layer_1" data-name="Layer 1" xmlns="http://www.w3.org/2000/svg" viewBox="0 0 841.2 1781.43"><defs><style>.cls-1{fill:none;}.cls-1,.cls-2{stroke:#000;stroke-linecap:round;stroke-linejoin:round;stroke-width:10px;}.cls-2{fill:#fff;}</style></defs><title>1-1</title><polyline class="cls-1" points="595.45 773.77 305.9 961.64 96.2 825.57 469.57 583.3 593.87 663.95"/><path class="cls-1" d="M214,887.34c31.07-20.17,31.07-52.85,0-73" transform="translate(-61.49 -25.26)"/><path class="cls-1" d="M474.81,645.07c31.07,20.16,81.45,20.16,112.52,0" transform="translate(-61.49 -25.26)"/><path class="cls-1" d="M423.66,950.39c-31.07-20.16-81.45-20.16-112.53,0" transform="translate(-61.49 -25.26)"/><polyline class="cls-1" points="594.41 817.84 305.9 1005.04 96.2 868.97"/><polyline class="cls-1" points="593.88 861.58 305.9 1048.44 96.2 912.37"/><polyline class="cls-1" points="592.19 906.08 305.9 1091.84 96.2 955.77"/><polyline class="cls-1" points="594.8 947.78 305.9 1135.24 96.2 999.17"/><path class="cls-2" d="M897.69,931.25v40.38c0,37.18-54.24,67.31-121.15,67.31s-121.16-30.13-121.16-67.31V931.25" transform="translate(-61.49 -25.26)"/><path class="cls-2" d="M897.69,893.55v40.39c0,37.17-54.24,67.31-121.15,67.31s-121.16-30.14-121.16-67.31V893.55" transform="translate(-61.49 -25.26)"/><path class="cls-2" d="M897.69,855.86v40.38c0,37.18-54.24,67.31-121.15,67.31s-121.16-30.13-121.16-67.31V855.86" transform="translate(-61.49 -25.26)"/><path class="cls-2" d="M897.69,818.17v40.38c0,37.18-54.24,67.31-121.15,67.31s-121.16-30.13-121.16-67.31V818.17" transform="translate(-61.49 -25.26)"/><path class="cls-2" d="M897.69,780.47v40.39c0,37.17-54.24,67.31-121.15,67.31S655.38,858,655.38,820.86V780.47" transform="translate(-61.49 -25.26)"/><path class="cls-2" d="M897.69,742.78v40.38c0,37.18-54.24,67.31-121.15,67.31s-121.16-30.13-121.16-67.31V742.78" transform="translate(-61.49 -25.26)"/><path class="cls-2" d="M897.69,705.09v40.38c0,37.17-54.24,67.31-121.15,67.31s-121.16-30.14-121.16-67.31V705.09" transform="translate(-61.49 -25.26)"/><path class="cls-2" d="M897.69,667.39v40.39c0,37.17-54.24,67.31-121.15,67.31S655.38,745,655.38,707.78V667.39" transform="translate(-61.49 -25.26)"/><ellipse class="cls-2" cx="715.04" cy="644.83" rx="121.16" ry="67.31"/><path class="cls-1" d="M347.69,1147.71" transform="translate(-61.49 -25.26)"/><path class="cls-2" d="M387.19,1147.61v334.57c0,9.81-8,18.14-17.83,18a17.5,17.5,0,0,1-17.17-17.49V1150.58l11.57,7.5a6.73,6.73,0,0,0,7.37,0Z" transform="translate(-61.49 -25.26)"/><path class="cls-2" d="M369.69,865.14a17.51,17.51,0,0,1-17.5-17.5V359.28L338.72,385.2a17.5,17.5,0,0,1-31.06-16.13l46.5-89.5a17.5,17.5,0,0,1,33,8.07v560A17.5,17.5,0,0,1,369.69,865.14Z" transform="translate(-61.49 -25.26)"/><path class="cls-2" d="M445.69,1109.64l-.5,270.19A27.51,27.51,0,0,0,489,1402a27.61,27.61,0,0,0,11.23-22.18v-305.5l35-22.69v328.19a62.5,62.5,0,0,1-125,0V1132.64Z" transform="translate(-61.49 -25.26)"/><path class="cls-2" d="M427.69,834.31a17.5,17.5,0,0,1-17.5-17.5V295.44a62.5,62.5,0,1,1,125,0V767.73a17.5,17.5,0,1,1-35,0V295.44a27.5,27.5,0,0,0-43.76-22.18,27.59,27.59,0,0,0-11.24,22.18V816.81A17.49,17.49,0,0,1,427.69,834.31Z" transform="translate(-61.49 -25.26)"/><path class="cls-2" d="M847,199.19l28.55,28.56C901.82,254,884.77,313.7,837.46,361s-107,64.37-133.27,38.08l-28.56-28.56" transform="translate(-61.49 -25.26)"/><ellipse class="cls-2" cx="763.21" cy="286.77" rx="121.16" ry="67.31" transform="translate(-40.73 598.41) rotate(-45)"/><path class="cls-2" d="M198.15,167.27,176,183.46c-20.37,14.89-58.63-2.76-85.44-39.44s-32-78.47-11.66-93.37l22.14-16.18" transform="translate(-61.49 -25.26)"/><ellipse class="cls-2" cx="148.13" cy="101.95" rx="45.7" ry="82.26" transform="matrix(0.81, -0.59, 0.59, 0.81, -93.11, 81.82)"/><path class="cls-2" d="M251.92,1358.49l-23.6,22.63c-21.73,20.83-69.74,6-107.23-33.1s-50.28-87.7-28.55-108.53l23.6-22.63" transform="translate(-61.49 -25.26)"/><ellipse class="cls-2" cx="182.46" cy="1289.18" rx="54.5" ry="98.1" transform="translate(-902.93 459.61) rotate(-43.79)"/><path class="cls-2" d="M789,1652.69l19.9,20.49c18.33,18.85,5.66,60.87-28.28,93.85s-76.31,44.43-94.63,25.58L666,1772.12" transform="translate(-61.49 -25.26)"/><ellipse class="cls-2" cx="728.83" cy="1713.77" rx="85.69" ry="47.61" transform="translate(-1049.66 967.32) rotate(-44.18)"/></svg>