<svg id="Layer_1" data-name="Layer 1" xmlns="http://www.w3.org/2000/svg" viewBox="0 0 841.2 1781.43"><defs><style>.cls-1,.cls-2{fill:none;stroke:#000;stroke-linecap:round;stroke-linejoin:round;stroke-width:10px}.cls-2{fill:#fff}</style></defs><path class="cls-1" d="M595.45 773.77L305.9 961.64 96.2 825.57 469.57 583.3l124.3 80.65"/><path class="cls-1" d="M214 887.34c31.07-20.17 31.07-52.85 0-73m260.81-169.27c31.07 20.16 81.45 20.16 112.52 0M423.66 950.39c-31.07-20.16-81.45-20.16-112.53 0" transform="translate(-61.49 -25.26)"/><path class="cls-1" d="M594.41 817.84l-288.51 187.2L96.2 868.97"/><path class="cls-1" d="M593.88 861.58L305.9 1048.44 96.2 912.37"/><path class="cls-1" d="M592.19 906.08L305.9 1091.84 96.2 955.77"/><path class="cls-1" d="M594.8 947.78l-288.9 187.46L96.2 999.17"/><path class="cls-2" d="M897.69 931.25v40.38c0 37.18-54.24 67.31-121.15 67.31s-121.16-30.13-121.16-67.31v-40.38" transform="translate(-61.49 -25.26)"/><path class="cls-2" d="M897.69 893.55v40.39c0 37.17-54.24 67.31-121.15 67.31s-121.16-30.14-121.16-67.31v-40.39" transform="translate(-61.49 -25.26)"/><path class="cls-2" d="M897.69 855.86v40.38c0 37.18-54.24 67.31-121.15 67.31s-121.16-30.13-121.16-67.31v-40.38" transform="translate(-61.49 -25.26)"/><path class="cls-2" d="M897.69 818.17v40.38c0 37.18-54.24 67.31-121.15 67.31s-121.16-30.13-121.16-67.31v-40.38" transform="translate(-61.49 -25.26)"/><path class="cls-2" d="M897.69 780.47v40.39c0 37.17-54.24 67.31-121.15 67.31S655.38 858 655.38 820.86v-40.39" transform="translate(-61.49 -25.26)"/><path class="cls-2" d="M897.69 742.78v40.38c0 37.18-54.24 67.31-121.15 67.31s-121.16-30.13-121.16-67.31v-40.38" transform="translate(-61.49 -25.26)"/><path class="cls-2" d="M897.69 705.09v40.38c0 37.17-54.24 67.31-121.15 67.31s-121.16-30.14-121.16-67.31v-40.38" transform="translate(-61.49 -25.26)"/><path class="cls-2" d="M897.69 667.39v40.39c0 37.17-54.24 67.31-121.15 67.31S655.38 745 655.38 707.78v-40.39" transform="translate(-61.49 -25.26)"/><ellipse class="cls-2" cx="715.04" cy="644.83" rx="121.16" ry="67.31"/><path class="cls-2" d="M387.19 1147.61v334.57c0 9.81-8 18.14-17.83 18a17.5 17.5 0 0 1-17.17-17.49v-332.11l11.57 7.5a6.73 6.73 0 0 0 7.37 0zm-17.5-282.47a17.51 17.51 0 0 1-17.5-17.5V359.28l-13.47 25.92a17.5 17.5 0 0 1-31.06-16.13l46.5-89.5a17.5 17.5 0 0 1 33 8.07v560a17.5 17.5 0 0 1-17.47 17.5zm76 244.5l-.5 270.19A27.51 27.51 0 0 0 489 1402a27.61 27.61 0 0 0 11.23-22.18v-305.5l35-22.69v328.19a62.5 62.5 0 0 1-125 0v-247.18zm-18-275.33a17.5 17.5 0 0 1-17.5-17.5V295.44a62.5 62.5 0 1 1 125 0v472.29a17.5 17.5 0 1 1-35 0V295.44a27.5 27.5 0 0 0-43.76-22.18 27.59 27.59 0 0 0-11.24 22.18v521.37a17.49 17.49 0 0 1-17.5 17.5zM847 199.19l28.55 28.56C901.82 254 884.77 313.7 837.46 361s-107 64.37-133.27 38.08l-28.56-28.56" transform="translate(-61.49 -25.26)"/><ellipse class="cls-2" cx="763.21" cy="286.77" rx="121.16" ry="67.31" transform="rotate(-45 701.98 348.37)"/><path class="cls-2" d="M198.15 167.27L176 183.46c-20.37 14.89-58.63-2.76-85.44-39.44s-32-78.47-11.66-93.37l22.14-16.18" transform="translate(-61.49 -25.26)"/><ellipse class="cls-2" cx="148.13" cy="101.95" rx="45.7" ry="82.26" transform="rotate(-35.9 79.602 183.448)"/><path class="cls-2" d="M251.92 1358.49l-23.6 22.63c-21.73 20.83-69.74 6-107.23-33.1s-50.28-87.7-28.55-108.53l23.6-22.63" transform="translate(-61.49 -25.26)"/><ellipse class="cls-2" cx="182.46" cy="1289.18" rx="54.5" ry="98.1" transform="rotate(-43.79 120.337 1353.143)"/><path class="cls-2" d="M789 1652.69l19.9 20.49c18.33 18.85 5.66 60.87-28.28 93.85s-76.31 44.43-94.63 25.58L666 1772.12" transform="translate(-61.49 -25.26)"/><ellipse class="cls-2" cx="728.83" cy="1713.77" rx="85.69" ry="47.61" transform="rotate(-44.18 666.878 1776.808)"/></svg>