<svg version="1.1" id="Layer_1" xmlns="http://www.w3.org/2000/svg" x="0" y="0" viewBox="0 0 989.4 1859" xml:space="preserve"><style>.st1,.st2{fill:none;stroke:#000;stroke-width:10;stroke-linecap:round;stroke-linejoin:round}.st2{fill:#fff}</style><path fill="#fff" d="M0 0h989.4v1859H0z"/><path class="st1" d="M737.6 802.7L448.1 990.5l-209.7-136 373.4-242.3 124.3 80.6M294.7 891c31.1-20.2 31.1-52.8 0-73m260.8-169.3c31.1 20.2 81.5 20.2 112.5 0M504.4 954c-31.1-20.2-81.4-20.2-112.5 0"/><path class="st1" d="M736.6 846.7l-288.5 187.2-209.7-136"/><path class="st1" d="M736.1 890.5l-288 186.8-209.7-136"/><path class="st1" d="M734.4 935l-286.3 185.7-209.7-136"/><path class="st1" d="M737 976.7l-288.9 187.4-209.7-136"/><path class="st2" d="M978.4 934.9v40.4c0 37.2-54.2 67.3-121.2 67.3S736 1012.5 736 975.3v-40.4"/><path class="st2" d="M978.4 897.2v40.4c0 37.2-54.2 67.3-121.2 67.3S736 974.8 736 937.6v-40.4"/><path class="st2" d="M978.4 859.5v40.4c0 37.2-54.2 67.3-121.2 67.3S736 937.1 736 899.9v-40.4"/><path class="st2" d="M978.4 821.8v40.4c0 37.2-54.2 67.3-121.2 67.3S736 899.4 736 862.2v-40.4"/><path class="st2" d="M978.4 784.1v40.4c0 37.2-54.2 67.3-121.2 67.3S736 861.6 736 824.5v-40.4"/><path class="st2" d="M978.4 746.4v40.4c0 37.2-54.2 67.3-121.2 67.3S736.1 824 736.1 786.8v-40.4"/><path class="st2" d="M978.4 708.7v40.4c0 37.2-54.2 67.3-121.2 67.3S736 786.3 736 749.1v-40.4"/><path class="st2" d="M978.4 671v40.4c0 37.2-54.2 67.3-121.2 67.3S736 748.6 736 711.4V671"/><ellipse class="st2" cx="857.2" cy="673.7" rx="121.2" ry="67.3"/><path class="st2" d="M467.9 1151.2v334.6c0 9.8-8 18.1-17.8 18-9.5-.2-17.2-8-17.2-17.5v-332.1l11.6 7.5c2.2 1.5 5.1 1.5 7.4 0l16-10.5zm-17.5-282.4c-9.7 0-17.5-7.8-17.5-17.5V362.9l-13.5 25.9c-4.5 8.5-15.1 11.8-23.7 7.3-8.4-4.5-11.7-14.9-7.4-23.4l46.5-89.5c4.5-8.6 15.1-11.9 23.6-7.4 5.7 3 9.4 9 9.4 15.4v560c.1 9.7-7.8 17.6-17.4 17.6zm76 244.5l-.5 270.2c0 15.2 12.3 27.5 27.5 27.5 5.9 0 11.6-1.9 16.3-5.3 7-5.2 11.2-13.4 11.2-22.2V1078l35-22.7v328.2c0 34.5-28 62.5-62.5 62.5s-62.5-28-62.5-62.5v-247.2l35.5-23zm-18-275.4c-9.7 0-17.5-7.8-17.5-17.5V299.1c0-34.5 28-62.5 62.5-62.5s62.5 28 62.5 62.5v472.3c0 9.7-7.8 17.5-17.5 17.5s-17.5-7.8-17.5-17.5V299.1c0-15.2-12.3-27.5-27.5-27.5-5.8 0-11.5 1.9-16.3 5.3-7.1 5.2-11.2 13.4-11.2 22.2v521.4c0 9.6-7.8 17.4-17.5 17.4zm419.3-635.1l28.5 28.6c26.3 26.2 9.2 86-38.1 133.2s-107 64.4-133.3 38.1l-28.6-28.6"/><ellipse transform="rotate(-45.001 843.913 290.425)" class="st2" cx="843.9" cy="290.4" rx="121.2" ry="67.3"/><path class="st2" d="M278.9 170.9l-22.1 16.2c-20.4 14.9-58.6-2.8-85.4-39.4s-32-78.5-11.7-93.4l22.1-16.2"/><ellipse transform="rotate(-36.07 229.209 105.893)" class="st2" cx="229.2" cy="105.9" rx="45.8" ry="82.4"/><path class="st2" d="M332.6 1362.1l-23.6 22.6c-21.7 20.8-69.7 6-107.2-33.1s-50.3-87.7-28.6-108.5l23.6-22.6"/><ellipse transform="rotate(-43.788 263.141 1292.913)" class="st2" cx="263.1" cy="1292.9" rx="54.5" ry="98.1"/><path class="st2" d="M869.7 1656.3l19.9 20.5c18.3 18.8 5.7 60.9-28.3 93.8s-76.3 44.4-94.6 25.6l-20-20.5"/><ellipse transform="rotate(-44.176 809.688 1717.354)" class="st2" cx="809.6" cy="1717.3" rx="85.7" ry="47.6"/></svg>